G04 #@! TF.GenerationSoftware,KiCad,Pcbnew,(6.0.0)*
G04 #@! TF.CreationDate,2022-05-28T20:38:18-06:00*
G04 #@! TF.ProjectId,usb_to_serial,7573625f-746f-45f7-9365-7269616c2e6b,2*
G04 #@! TF.SameCoordinates,Original*
G04 #@! TF.FileFunction,Soldermask,Top*
G04 #@! TF.FilePolarity,Negative*
%FSLAX46Y46*%
G04 Gerber Fmt 4.6, Leading zero omitted, Abs format (unit mm)*
G04 Created by KiCad (PCBNEW (6.0.0)) date 2022-05-28 20:38:18*
%MOMM*%
%LPD*%
G01*
G04 APERTURE LIST*
G04 Aperture macros list*
%AMRoundRect*
0 Rectangle with rounded corners*
0 $1 Rounding radius*
0 $2 $3 $4 $5 $6 $7 $8 $9 X,Y pos of 4 corners*
0 Add a 4 corners polygon primitive as box body*
4,1,4,$2,$3,$4,$5,$6,$7,$8,$9,$2,$3,0*
0 Add four circle primitives for the rounded corners*
1,1,$1+$1,$2,$3*
1,1,$1+$1,$4,$5*
1,1,$1+$1,$6,$7*
1,1,$1+$1,$8,$9*
0 Add four rect primitives between the rounded corners*
20,1,$1+$1,$2,$3,$4,$5,0*
20,1,$1+$1,$4,$5,$6,$7,0*
20,1,$1+$1,$6,$7,$8,$9,0*
20,1,$1+$1,$8,$9,$2,$3,0*%
%AMFreePoly0*
4,1,22,0.500000,-0.750000,0.000000,-0.750000,0.000000,-0.745033,-0.079941,-0.743568,-0.215256,-0.701293,-0.333266,-0.622738,-0.424486,-0.514219,-0.481581,-0.384460,-0.499164,-0.250000,-0.500000,-0.250000,-0.500000,0.250000,-0.499164,0.250000,-0.499963,0.256109,-0.478152,0.396186,-0.417904,0.524511,-0.324060,0.630769,-0.204165,0.706417,-0.067858,0.745374,0.000000,0.744959,0.000000,0.750000,
0.500000,0.750000,0.500000,-0.750000,0.500000,-0.750000,$1*%
%AMFreePoly1*
4,1,20,0.000000,0.744959,0.073905,0.744508,0.209726,0.703889,0.328688,0.626782,0.421226,0.519385,0.479903,0.390333,0.500000,0.250000,0.500000,-0.250000,0.499851,-0.262216,0.476331,-0.402017,0.414519,-0.529596,0.319384,-0.634700,0.198574,-0.708877,0.061801,-0.746166,0.000000,-0.745033,0.000000,-0.750000,-0.500000,-0.750000,-0.500000,0.750000,0.000000,0.750000,0.000000,0.744959,
0.000000,0.744959,$1*%
G04 Aperture macros list end*
%ADD10RoundRect,0.237500X0.300000X0.237500X-0.300000X0.237500X-0.300000X-0.237500X0.300000X-0.237500X0*%
%ADD11C,3.250000*%
%ADD12R,1.500000X1.500000*%
%ADD13C,1.500000*%
%ADD14C,2.300000*%
%ADD15R,0.450000X1.750000*%
%ADD16O,0.990600X1.803400*%
%ADD17O,0.990600X2.108200*%
%ADD18C,0.762000*%
%ADD19R,0.584200X1.143000*%
%ADD20R,0.304800X1.143000*%
%ADD21RoundRect,0.237500X-0.237500X0.300000X-0.237500X-0.300000X0.237500X-0.300000X0.237500X0.300000X0*%
%ADD22FreePoly0,180.000000*%
%ADD23FreePoly1,180.000000*%
G04 APERTURE END LIST*
D10*
X138130619Y-109572504D03*
X136405619Y-109572504D03*
X135130619Y-121822504D03*
X133405619Y-121822504D03*
D11*
X129428119Y-96492872D03*
X142128119Y-96492872D03*
D12*
X132218119Y-99032872D03*
D13*
X133234119Y-100812872D03*
X134250119Y-99032872D03*
X135266119Y-100812872D03*
X136282119Y-99032872D03*
X137298119Y-100812872D03*
X138314119Y-99032872D03*
X139330119Y-100812872D03*
X128918119Y-105632872D03*
X131208119Y-105632872D03*
X140348119Y-105632872D03*
X142638119Y-105632872D03*
D14*
X143908119Y-99922872D03*
X127648119Y-99922872D03*
D15*
X140003119Y-112522504D03*
X139353119Y-112522504D03*
X138703119Y-112522504D03*
X138053119Y-112522504D03*
X137403119Y-112522504D03*
X136753119Y-112522504D03*
X136103119Y-112522504D03*
X135453119Y-112522504D03*
X134803119Y-112522504D03*
X134153119Y-112522504D03*
X133503119Y-112522504D03*
X132853119Y-112522504D03*
X132203119Y-112522504D03*
X131553119Y-112522504D03*
X131553119Y-119722504D03*
X132203119Y-119722504D03*
X132853119Y-119722504D03*
X133503119Y-119722504D03*
X134153119Y-119722504D03*
X134803119Y-119722504D03*
X135453119Y-119722504D03*
X136103119Y-119722504D03*
X136753119Y-119722504D03*
X137403119Y-119722504D03*
X138053119Y-119722504D03*
X138703119Y-119722504D03*
X139353119Y-119722504D03*
X140003119Y-119722504D03*
D16*
X131458117Y-130091704D03*
X140098121Y-130091704D03*
D17*
X131458117Y-125911704D03*
X140098121Y-125911704D03*
D18*
X132888120Y-126411703D03*
X138668118Y-126411703D03*
D19*
X132578119Y-125336704D03*
X133378118Y-125336704D03*
D20*
X134528119Y-125336704D03*
X135528119Y-125336704D03*
X136028119Y-125336704D03*
X137028119Y-125336704D03*
D19*
X138978119Y-125336704D03*
X138178120Y-125336704D03*
D20*
X137528118Y-125336704D03*
X136528120Y-125336704D03*
X135028118Y-125336704D03*
X134028120Y-125336704D03*
D21*
X129500000Y-116545372D03*
X129500000Y-118270372D03*
D22*
X139428119Y-123157872D03*
D23*
X138128119Y-123157872D03*
M02*
