G04 #@! TF.GenerationSoftware,KiCad,Pcbnew,(6.0.0)*
G04 #@! TF.CreationDate,2022-05-28T20:38:17-06:00*
G04 #@! TF.ProjectId,usb_to_serial,7573625f-746f-45f7-9365-7269616c2e6b,2*
G04 #@! TF.SameCoordinates,Original*
G04 #@! TF.FileFunction,Copper,L3,Inr*
G04 #@! TF.FilePolarity,Positive*
%FSLAX46Y46*%
G04 Gerber Fmt 4.6, Leading zero omitted, Abs format (unit mm)*
G04 Created by KiCad (PCBNEW (6.0.0)) date 2022-05-28 20:38:17*
%MOMM*%
%LPD*%
G01*
G04 APERTURE LIST*
G04 #@! TA.AperFunction,ComponentPad*
%ADD10R,1.500000X1.500000*%
G04 #@! TD*
G04 #@! TA.AperFunction,ComponentPad*
%ADD11C,1.500000*%
G04 #@! TD*
G04 #@! TA.AperFunction,ComponentPad*
%ADD12C,2.300000*%
G04 #@! TD*
G04 #@! TA.AperFunction,ComponentPad*
%ADD13O,0.990600X1.803400*%
G04 #@! TD*
G04 #@! TA.AperFunction,ComponentPad*
%ADD14O,0.990600X2.108200*%
G04 #@! TD*
G04 #@! TA.AperFunction,ComponentPad*
%ADD15C,0.762000*%
G04 #@! TD*
G04 #@! TA.AperFunction,ViaPad*
%ADD16C,0.685800*%
G04 #@! TD*
G04 #@! TA.AperFunction,ViaPad*
%ADD17C,0.508000*%
G04 #@! TD*
G04 #@! TA.AperFunction,ViaPad*
%ADD18C,3.302000*%
G04 #@! TD*
G04 #@! TA.AperFunction,ViaPad*
%ADD19C,2.159000*%
G04 #@! TD*
G04 #@! TA.AperFunction,Conductor*
%ADD20C,0.381000*%
G04 #@! TD*
G04 APERTURE END LIST*
D10*
X132218119Y-99032872D03*
D11*
X133234119Y-100812872D03*
X134250119Y-99032872D03*
X135266119Y-100812872D03*
X136282119Y-99032872D03*
X137298119Y-100812872D03*
X138314119Y-99032872D03*
X139330119Y-100812872D03*
X128918119Y-105632872D03*
X131208119Y-105632872D03*
X140348119Y-105632872D03*
X142638119Y-105632872D03*
D12*
X143908119Y-99922872D03*
X127648119Y-99922872D03*
D13*
X131458117Y-130091704D03*
X140098121Y-130091704D03*
D14*
X131458117Y-125911704D03*
X140098121Y-125911704D03*
D15*
X132888120Y-126411703D03*
X138668118Y-126411703D03*
D16*
X137060125Y-107641869D03*
D17*
X138053119Y-110882872D03*
D16*
X136799167Y-121752672D03*
X135778119Y-128907872D03*
X130768119Y-117322504D03*
X141528119Y-124657872D03*
X140528119Y-121907872D03*
X136328332Y-126669504D03*
X140778119Y-123907872D03*
X141278119Y-121157872D03*
X135278119Y-126917304D03*
D18*
X129278119Y-109157872D03*
D16*
X139016488Y-121079549D03*
X136808319Y-114341707D03*
D18*
X142278119Y-108907872D03*
D16*
X138018119Y-121072504D03*
D19*
X142278119Y-122657872D03*
D16*
X136768119Y-117729624D03*
D19*
X129278119Y-122657872D03*
D16*
X134528119Y-105157872D03*
X128432165Y-116530071D03*
D17*
X133504222Y-121028906D03*
D16*
X133028119Y-116407872D03*
X134933319Y-108907872D03*
X129778119Y-115157872D03*
X131778119Y-117157872D03*
X135893696Y-110877937D03*
D17*
X134414830Y-124039334D03*
D16*
X139778119Y-104157872D03*
X140778119Y-116157872D03*
X137278119Y-102657872D03*
X140895697Y-119360461D03*
X137327672Y-123998564D03*
D17*
X134028119Y-127407872D03*
X135278119Y-123976484D03*
X136538451Y-124071031D03*
X137526350Y-127404131D03*
X133500000Y-110895071D03*
X137518119Y-115566604D03*
X138768119Y-107572504D03*
X136278119Y-121157872D03*
X136836106Y-105991844D03*
X140022408Y-111163583D03*
X140518119Y-113822504D03*
X138837219Y-110910360D03*
X137502429Y-118338194D03*
X136908399Y-116932225D03*
X137768119Y-117076493D03*
D20*
X137327672Y-124608319D02*
X136528119Y-125407872D01*
X133891951Y-125407872D02*
X132888120Y-126411703D01*
X136528119Y-125407872D02*
X133891951Y-125407872D01*
X137327672Y-123998564D02*
X137327672Y-124608319D01*
G04 #@! TA.AperFunction,Conductor*
G36*
X144712139Y-93686409D02*
G01*
X144758683Y-93740020D01*
X144770119Y-93792471D01*
X144770119Y-98296205D01*
X144750117Y-98364326D01*
X144696461Y-98410819D01*
X144626187Y-98420923D01*
X144595901Y-98412614D01*
X144426781Y-98342562D01*
X144426779Y-98342561D01*
X144422208Y-98340668D01*
X144333188Y-98319296D01*
X144173181Y-98280881D01*
X144173175Y-98280880D01*
X144168368Y-98279726D01*
X143908119Y-98259244D01*
X143671631Y-98277856D01*
X143602151Y-98263260D01*
X143551591Y-98213417D01*
X143536005Y-98144153D01*
X143560340Y-98077457D01*
X143575968Y-98059950D01*
X143687007Y-97956766D01*
X143698014Y-97943319D01*
X143803693Y-97814204D01*
X143871258Y-97731656D01*
X144023252Y-97483624D01*
X144031988Y-97463724D01*
X144138453Y-97221187D01*
X144140178Y-97217258D01*
X144146192Y-97196148D01*
X144165901Y-97126959D01*
X144219873Y-96937488D01*
X144222405Y-96919701D01*
X144260256Y-96653742D01*
X144260861Y-96649491D01*
X144262384Y-96358595D01*
X144224414Y-96070185D01*
X144147654Y-95789596D01*
X144033523Y-95522020D01*
X143884134Y-95272410D01*
X143869456Y-95254088D01*
X143704942Y-95048741D01*
X143702252Y-95045383D01*
X143491241Y-94845141D01*
X143255006Y-94675389D01*
X142997919Y-94539269D01*
X142993896Y-94537797D01*
X142993892Y-94537795D01*
X142728768Y-94440773D01*
X142728766Y-94440772D01*
X142724737Y-94439298D01*
X142440515Y-94377328D01*
X142396717Y-94373881D01*
X142214822Y-94359565D01*
X142214815Y-94359565D01*
X142212366Y-94359372D01*
X142054998Y-94359372D01*
X142052862Y-94359518D01*
X142052851Y-94359518D01*
X141842170Y-94373881D01*
X141842164Y-94373882D01*
X141837893Y-94374173D01*
X141833698Y-94375042D01*
X141833696Y-94375042D01*
X141818249Y-94378241D01*
X141553038Y-94433163D01*
X141278824Y-94530267D01*
X141020326Y-94663688D01*
X141016825Y-94666149D01*
X141016821Y-94666151D01*
X141003677Y-94675389D01*
X140782327Y-94830957D01*
X140569231Y-95028978D01*
X140566517Y-95032294D01*
X140566514Y-95032297D01*
X140553055Y-95048741D01*
X140384980Y-95254088D01*
X140232986Y-95502120D01*
X140231267Y-95506037D01*
X140231265Y-95506040D01*
X140222516Y-95525972D01*
X140116060Y-95768486D01*
X140114884Y-95772614D01*
X140114883Y-95772617D01*
X140090337Y-95858785D01*
X140036365Y-96048256D01*
X140035761Y-96052498D01*
X140035760Y-96052504D01*
X140033244Y-96070185D01*
X139995377Y-96336253D01*
X139993854Y-96627149D01*
X140031824Y-96915559D01*
X140108584Y-97196148D01*
X140222715Y-97463724D01*
X140372104Y-97713334D01*
X140374788Y-97716685D01*
X140374790Y-97716687D01*
X140432145Y-97788278D01*
X140553986Y-97940361D01*
X140682129Y-98061964D01*
X140745629Y-98122223D01*
X140764997Y-98140603D01*
X141001232Y-98310355D01*
X141027043Y-98324021D01*
X141148387Y-98388269D01*
X141258319Y-98446475D01*
X141262342Y-98447947D01*
X141262346Y-98447949D01*
X141420901Y-98505972D01*
X141531501Y-98546446D01*
X141815723Y-98608416D01*
X141844769Y-98610702D01*
X142041416Y-98626179D01*
X142041423Y-98626179D01*
X142043872Y-98626372D01*
X142201240Y-98626372D01*
X142203376Y-98626226D01*
X142203387Y-98626226D01*
X142414068Y-98611863D01*
X142414074Y-98611862D01*
X142418345Y-98611571D01*
X142422540Y-98610702D01*
X142422542Y-98610702D01*
X142497548Y-98595169D01*
X142578745Y-98578354D01*
X142649505Y-98584126D01*
X142705913Y-98627239D01*
X142730058Y-98694004D01*
X142714273Y-98763224D01*
X142700109Y-98783563D01*
X142562216Y-98945016D01*
X142425816Y-99167601D01*
X142423923Y-99172171D01*
X142423921Y-99172175D01*
X142390756Y-99252243D01*
X142325915Y-99408783D01*
X142324760Y-99413595D01*
X142266128Y-99657810D01*
X142266127Y-99657816D01*
X142264973Y-99662623D01*
X142244491Y-99922872D01*
X142264973Y-100183121D01*
X142266127Y-100187928D01*
X142266128Y-100187934D01*
X142288674Y-100281843D01*
X142325915Y-100436961D01*
X142327808Y-100441532D01*
X142327809Y-100441534D01*
X142393025Y-100598978D01*
X142425816Y-100678143D01*
X142562216Y-100900728D01*
X142731756Y-101099235D01*
X142930263Y-101268775D01*
X143152848Y-101405175D01*
X143157418Y-101407068D01*
X143157422Y-101407070D01*
X143389457Y-101503182D01*
X143394030Y-101505076D01*
X143478556Y-101525369D01*
X143643057Y-101564863D01*
X143643063Y-101564864D01*
X143647870Y-101566018D01*
X143908119Y-101586500D01*
X144168368Y-101566018D01*
X144173175Y-101564864D01*
X144173181Y-101564863D01*
X144337682Y-101525369D01*
X144422208Y-101505076D01*
X144450351Y-101493419D01*
X144485864Y-101478709D01*
X144508750Y-101469229D01*
X144579340Y-101461640D01*
X144642827Y-101493419D01*
X144679054Y-101554477D01*
X144682637Y-101594759D01*
X144349167Y-106189252D01*
X144261566Y-107396206D01*
X144249110Y-107567816D01*
X144224230Y-107634310D01*
X144167349Y-107676797D01*
X144096528Y-107681787D01*
X144034252Y-107647697D01*
X144020354Y-107631145D01*
X143962756Y-107549191D01*
X143962750Y-107549184D01*
X143960287Y-107545679D01*
X143824046Y-107399066D01*
X143762774Y-107333129D01*
X143762771Y-107333126D01*
X143759853Y-107329986D01*
X143756538Y-107327272D01*
X143756534Y-107327269D01*
X143535318Y-107146206D01*
X143532000Y-107143490D01*
X143280945Y-106989644D01*
X143242512Y-106972773D01*
X143239305Y-106971365D01*
X143184970Y-106925668D01*
X143163966Y-106857849D01*
X143182961Y-106789441D01*
X143236703Y-106741797D01*
X143264531Y-106728821D01*
X143274031Y-106723336D01*
X143315267Y-106694462D01*
X143323642Y-106683984D01*
X143316576Y-106670540D01*
X142650930Y-106004893D01*
X142636987Y-105997280D01*
X142635153Y-105997411D01*
X142628539Y-106001662D01*
X141958939Y-106671263D01*
X141936440Y-106712467D01*
X141934019Y-106723594D01*
X141883815Y-106773795D01*
X141850277Y-106786014D01*
X141850281Y-106786030D01*
X141846149Y-106787160D01*
X141846146Y-106787161D01*
X141570417Y-106862592D01*
X141566272Y-106863726D01*
X141295436Y-106979247D01*
X141248122Y-107007564D01*
X141046465Y-107128253D01*
X141046461Y-107128256D01*
X141042783Y-107130457D01*
X140812990Y-107314556D01*
X140810046Y-107317658D01*
X140810042Y-107317662D01*
X140752544Y-107378253D01*
X140610308Y-107528138D01*
X140438487Y-107767252D01*
X140300708Y-108027472D01*
X140299236Y-108031495D01*
X140299234Y-108031499D01*
X140203019Y-108294418D01*
X140199519Y-108303983D01*
X140136794Y-108591669D01*
X140113692Y-108885205D01*
X140130641Y-109179162D01*
X140131466Y-109183367D01*
X140131467Y-109183375D01*
X140164179Y-109350105D01*
X140187328Y-109468098D01*
X140188715Y-109472148D01*
X140188716Y-109472153D01*
X140281315Y-109742611D01*
X140282704Y-109746667D01*
X140415003Y-110009716D01*
X140417429Y-110013245D01*
X140417432Y-110013251D01*
X140509985Y-110147916D01*
X140581778Y-110252375D01*
X140584665Y-110255548D01*
X140584666Y-110255549D01*
X140730391Y-110415698D01*
X140779943Y-110470155D01*
X141005831Y-110659026D01*
X141009472Y-110661310D01*
X141251621Y-110813211D01*
X141251625Y-110813213D01*
X141255261Y-110815494D01*
X141259171Y-110817259D01*
X141259172Y-110817260D01*
X141291891Y-110832033D01*
X141523619Y-110936662D01*
X141527738Y-110937882D01*
X141801825Y-111019071D01*
X141801830Y-111019072D01*
X141805938Y-111020289D01*
X141810172Y-111020937D01*
X141810177Y-111020938D01*
X141984402Y-111047598D01*
X142096994Y-111064827D01*
X142246891Y-111067182D01*
X142387112Y-111069385D01*
X142387118Y-111069385D01*
X142391403Y-111069452D01*
X142683714Y-111034078D01*
X142968521Y-110959360D01*
X143240552Y-110846681D01*
X143254245Y-110838680D01*
X143491076Y-110700287D01*
X143491077Y-110700287D01*
X143494774Y-110698126D01*
X143498134Y-110695492D01*
X143498142Y-110695486D01*
X143723111Y-110519087D01*
X143726483Y-110516443D01*
X143806630Y-110433738D01*
X143818834Y-110421145D01*
X143880605Y-110386145D01*
X143951491Y-110390097D01*
X144008988Y-110431746D01*
X144034840Y-110497869D01*
X144034987Y-110517947D01*
X143723491Y-114809669D01*
X143260979Y-121182054D01*
X143236099Y-121248548D01*
X143179218Y-121291035D01*
X143108397Y-121296025D01*
X143069475Y-121280366D01*
X143032227Y-121257540D01*
X143001285Y-121238579D01*
X142996715Y-121236686D01*
X142996711Y-121236684D01*
X142774924Y-121144817D01*
X142774918Y-121144815D01*
X142770355Y-121142925D01*
X142765555Y-121141773D01*
X142765550Y-121141771D01*
X142654287Y-121115059D01*
X142527305Y-121084573D01*
X142278119Y-121064962D01*
X142028933Y-121084573D01*
X141901951Y-121115059D01*
X141790688Y-121141771D01*
X141790683Y-121141773D01*
X141785883Y-121142925D01*
X141781320Y-121144815D01*
X141781314Y-121144817D01*
X141559527Y-121236684D01*
X141559523Y-121236686D01*
X141554953Y-121238579D01*
X141341830Y-121369181D01*
X141151762Y-121531515D01*
X140989428Y-121721583D01*
X140858826Y-121934706D01*
X140856933Y-121939276D01*
X140856931Y-121939280D01*
X140765064Y-122161067D01*
X140765062Y-122161073D01*
X140763172Y-122165636D01*
X140704820Y-122408686D01*
X140685209Y-122657872D01*
X140704820Y-122907058D01*
X140763172Y-123150108D01*
X140765062Y-123154671D01*
X140765064Y-123154677D01*
X140856931Y-123376464D01*
X140858826Y-123381038D01*
X140989428Y-123594161D01*
X141151762Y-123784229D01*
X141341830Y-123946563D01*
X141554953Y-124077165D01*
X141559523Y-124079058D01*
X141559527Y-124079060D01*
X141781314Y-124170927D01*
X141781320Y-124170929D01*
X141785883Y-124172819D01*
X141790683Y-124173971D01*
X141790688Y-124173973D01*
X141865197Y-124191861D01*
X142028933Y-124231171D01*
X142278119Y-124250782D01*
X142527305Y-124231171D01*
X142691041Y-124191861D01*
X142765550Y-124173973D01*
X142765555Y-124173971D01*
X142770355Y-124172819D01*
X142774918Y-124170929D01*
X142774924Y-124170927D01*
X142863716Y-124134148D01*
X142934306Y-124126559D01*
X142997793Y-124158339D01*
X143034020Y-124219397D01*
X143037603Y-124259678D01*
X142981842Y-125027946D01*
X142564136Y-130782993D01*
X142539256Y-130849487D01*
X142482375Y-130891974D01*
X142438467Y-130899872D01*
X141194713Y-130899872D01*
X141126592Y-130879870D01*
X141080099Y-130826214D01*
X141069995Y-130755940D01*
X141071376Y-130748105D01*
X141100580Y-130608316D01*
X141100580Y-130608312D01*
X141101571Y-130603571D01*
X141101921Y-130596892D01*
X141101921Y-129634337D01*
X141086490Y-129482421D01*
X141025507Y-129287826D01*
X140926642Y-129109467D01*
X140793931Y-128954631D01*
X140632797Y-128829643D01*
X140449822Y-128739608D01*
X140443644Y-128737999D01*
X140443642Y-128737998D01*
X140258662Y-128689814D01*
X140258659Y-128689814D01*
X140252480Y-128688204D01*
X140171139Y-128683941D01*
X140055215Y-128677866D01*
X140055211Y-128677866D01*
X140048833Y-128677532D01*
X139847199Y-128708026D01*
X139841204Y-128710232D01*
X139841203Y-128710232D01*
X139753702Y-128742426D01*
X139655815Y-128778441D01*
X139482499Y-128885902D01*
X139334330Y-129026018D01*
X139330668Y-129031248D01*
X139330667Y-129031249D01*
X139221027Y-129187832D01*
X139217363Y-129193065D01*
X139136374Y-129380220D01*
X139094671Y-129579837D01*
X139094321Y-129586516D01*
X139094321Y-130549071D01*
X139109752Y-130700987D01*
X139111661Y-130707078D01*
X139120785Y-130736193D01*
X139122069Y-130807178D01*
X139084773Y-130867588D01*
X139020736Y-130898245D01*
X139000551Y-130899872D01*
X132554709Y-130899872D01*
X132486588Y-130879870D01*
X132440095Y-130826214D01*
X132429991Y-130755940D01*
X132431372Y-130748105D01*
X132460576Y-130608316D01*
X132460576Y-130608312D01*
X132461567Y-130603571D01*
X132461917Y-130596892D01*
X132461917Y-129634337D01*
X132446486Y-129482421D01*
X132385503Y-129287826D01*
X132286638Y-129109467D01*
X132153927Y-128954631D01*
X131992793Y-128829643D01*
X131809818Y-128739608D01*
X131803640Y-128737999D01*
X131803638Y-128737998D01*
X131618658Y-128689814D01*
X131618655Y-128689814D01*
X131612476Y-128688204D01*
X131531135Y-128683941D01*
X131415211Y-128677866D01*
X131415207Y-128677866D01*
X131408829Y-128677532D01*
X131207195Y-128708026D01*
X131201200Y-128710232D01*
X131201199Y-128710232D01*
X131113698Y-128742426D01*
X131015811Y-128778441D01*
X130842495Y-128885902D01*
X130694326Y-129026018D01*
X130690664Y-129031248D01*
X130690663Y-129031249D01*
X130581023Y-129187832D01*
X130577359Y-129193065D01*
X130496370Y-129380220D01*
X130454667Y-129579837D01*
X130454317Y-129586516D01*
X130454317Y-130549071D01*
X130469748Y-130700987D01*
X130471657Y-130707078D01*
X130480781Y-130736193D01*
X130482065Y-130807178D01*
X130444769Y-130867588D01*
X130380732Y-130898245D01*
X130360547Y-130899872D01*
X129117770Y-130899872D01*
X129049649Y-130879870D01*
X129003156Y-130826214D01*
X128992101Y-130782993D01*
X128682797Y-126521471D01*
X130454317Y-126521471D01*
X130454640Y-126524650D01*
X130468712Y-126663183D01*
X130469748Y-126673387D01*
X130530731Y-126867982D01*
X130629596Y-127046341D01*
X130762307Y-127201177D01*
X130923441Y-127326165D01*
X130929163Y-127328980D01*
X130929162Y-127328980D01*
X131079869Y-127403137D01*
X131106416Y-127416200D01*
X131112594Y-127417809D01*
X131112596Y-127417810D01*
X131297576Y-127465994D01*
X131297579Y-127465994D01*
X131303758Y-127467604D01*
X131385099Y-127471867D01*
X131501023Y-127477942D01*
X131501027Y-127477942D01*
X131507405Y-127478276D01*
X131709039Y-127447782D01*
X131794877Y-127416200D01*
X131894433Y-127379571D01*
X131894434Y-127379570D01*
X131900423Y-127377367D01*
X132049290Y-127285065D01*
X132068317Y-127273268D01*
X132068318Y-127273267D01*
X132073739Y-127269906D01*
X132207281Y-127143622D01*
X132270519Y-127111351D01*
X132341166Y-127118391D01*
X132367915Y-127133235D01*
X132393439Y-127151779D01*
X132440920Y-127186276D01*
X132446948Y-127188960D01*
X132446950Y-127188961D01*
X132605704Y-127259643D01*
X132611735Y-127262328D01*
X132692218Y-127279435D01*
X132788173Y-127299831D01*
X132788177Y-127299831D01*
X132794630Y-127301203D01*
X132981610Y-127301203D01*
X133008195Y-127295552D01*
X133109444Y-127274032D01*
X133180235Y-127279435D01*
X133236867Y-127322252D01*
X133261360Y-127388889D01*
X133261456Y-127392514D01*
X133260869Y-127397158D01*
X133261556Y-127404165D01*
X133261556Y-127404168D01*
X133262597Y-127414783D01*
X133277562Y-127567408D01*
X133331559Y-127729728D01*
X133335206Y-127735750D01*
X133335207Y-127735752D01*
X133416525Y-127870026D01*
X133416528Y-127870029D01*
X133420175Y-127876052D01*
X133539008Y-127999106D01*
X133569515Y-128019069D01*
X133670537Y-128085176D01*
X133682149Y-128092775D01*
X133688753Y-128095231D01*
X133688755Y-128095232D01*
X133835876Y-128149946D01*
X133835878Y-128149946D01*
X133842486Y-128152404D01*
X133921573Y-128162957D01*
X134005068Y-128174098D01*
X134005072Y-128174098D01*
X134012049Y-128175029D01*
X134019060Y-128174391D01*
X134019064Y-128174391D01*
X134175392Y-128160164D01*
X134175394Y-128160164D01*
X134182411Y-128159525D01*
X134189109Y-128157349D01*
X134189112Y-128157348D01*
X134338408Y-128108838D01*
X134338410Y-128108837D01*
X134345104Y-128106662D01*
X134492043Y-128019069D01*
X134615924Y-127901099D01*
X134629198Y-127881121D01*
X134706689Y-127764486D01*
X134710590Y-127758615D01*
X134715918Y-127744590D01*
X134758807Y-127688014D01*
X134825475Y-127663605D01*
X134884952Y-127674229D01*
X135013573Y-127731494D01*
X135101103Y-127750099D01*
X135182176Y-127767332D01*
X135182180Y-127767332D01*
X135188633Y-127768704D01*
X135367605Y-127768704D01*
X135374058Y-127767332D01*
X135374062Y-127767332D01*
X135455135Y-127750099D01*
X135542665Y-127731494D01*
X135561642Y-127723045D01*
X135700134Y-127661385D01*
X135700136Y-127661384D01*
X135706164Y-127658700D01*
X135711506Y-127654819D01*
X135845611Y-127557386D01*
X135845613Y-127557384D01*
X135850955Y-127553503D01*
X135855377Y-127548592D01*
X135966291Y-127425409D01*
X135966292Y-127425408D01*
X135970710Y-127420501D01*
X135986347Y-127393417D01*
X136759100Y-127393417D01*
X136775793Y-127563667D01*
X136829790Y-127725987D01*
X136833437Y-127732009D01*
X136833438Y-127732011D01*
X136914756Y-127866285D01*
X136914759Y-127866288D01*
X136918406Y-127872311D01*
X137037239Y-127995365D01*
X137180380Y-128089034D01*
X137186984Y-128091490D01*
X137186986Y-128091491D01*
X137334107Y-128146205D01*
X137334109Y-128146205D01*
X137340717Y-128148663D01*
X137405807Y-128157348D01*
X137503299Y-128170357D01*
X137503303Y-128170357D01*
X137510280Y-128171288D01*
X137517291Y-128170650D01*
X137517295Y-128170650D01*
X137673623Y-128156423D01*
X137673625Y-128156423D01*
X137680642Y-128155784D01*
X137687340Y-128153608D01*
X137687343Y-128153607D01*
X137836639Y-128105097D01*
X137836641Y-128105096D01*
X137843335Y-128102921D01*
X137977946Y-128022677D01*
X137984222Y-128018936D01*
X137984224Y-128018935D01*
X137990274Y-128015328D01*
X138114155Y-127897358D01*
X138127429Y-127877380D01*
X138204920Y-127760745D01*
X138208821Y-127754874D01*
X138269568Y-127594957D01*
X138287420Y-127467938D01*
X138292825Y-127429478D01*
X138292825Y-127429475D01*
X138293376Y-127425556D01*
X138293675Y-127404131D01*
X138293505Y-127402612D01*
X138310032Y-127334121D01*
X138361354Y-127285065D01*
X138431051Y-127271543D01*
X138445418Y-127273739D01*
X138498704Y-127285065D01*
X138568171Y-127299831D01*
X138568175Y-127299831D01*
X138574628Y-127301203D01*
X138761608Y-127301203D01*
X138768061Y-127299831D01*
X138768065Y-127299831D01*
X138864020Y-127279435D01*
X138944503Y-127262328D01*
X138950534Y-127259643D01*
X139109288Y-127188961D01*
X139109290Y-127188960D01*
X139115318Y-127186276D01*
X139120660Y-127182395D01*
X139190242Y-127131841D01*
X139257110Y-127107982D01*
X139326262Y-127124063D01*
X139359970Y-127151779D01*
X139398151Y-127196325D01*
X139398158Y-127196332D01*
X139402311Y-127201177D01*
X139563445Y-127326165D01*
X139569167Y-127328980D01*
X139569166Y-127328980D01*
X139719873Y-127403137D01*
X139746420Y-127416200D01*
X139752598Y-127417809D01*
X139752600Y-127417810D01*
X139937580Y-127465994D01*
X139937583Y-127465994D01*
X139943762Y-127467604D01*
X140025103Y-127471867D01*
X140141027Y-127477942D01*
X140141031Y-127477942D01*
X140147409Y-127478276D01*
X140349043Y-127447782D01*
X140434881Y-127416200D01*
X140534437Y-127379571D01*
X140534438Y-127379570D01*
X140540427Y-127377367D01*
X140689294Y-127285065D01*
X140708321Y-127273268D01*
X140708322Y-127273267D01*
X140713743Y-127269906D01*
X140861912Y-127129790D01*
X140904074Y-127069577D01*
X140975215Y-126967976D01*
X140975216Y-126967975D01*
X140978879Y-126962743D01*
X141059868Y-126775588D01*
X141075395Y-126701264D01*
X141100580Y-126580716D01*
X141100580Y-126580712D01*
X141101571Y-126575971D01*
X141101921Y-126569292D01*
X141101921Y-125301937D01*
X141086490Y-125150021D01*
X141025507Y-124955426D01*
X140926642Y-124777067D01*
X140793931Y-124622231D01*
X140632797Y-124497243D01*
X140449822Y-124407208D01*
X140443644Y-124405599D01*
X140443642Y-124405598D01*
X140258662Y-124357414D01*
X140258659Y-124357414D01*
X140252480Y-124355804D01*
X140171139Y-124351541D01*
X140055215Y-124345466D01*
X140055211Y-124345466D01*
X140048833Y-124345132D01*
X139847199Y-124375626D01*
X139841204Y-124377832D01*
X139841203Y-124377832D01*
X139753702Y-124410026D01*
X139655815Y-124446041D01*
X139482499Y-124553502D01*
X139477866Y-124557883D01*
X139477865Y-124557884D01*
X139442627Y-124591207D01*
X139334330Y-124693618D01*
X139330668Y-124698848D01*
X139330667Y-124698849D01*
X139271443Y-124783430D01*
X139217363Y-124860665D01*
X139136374Y-125047820D01*
X139094671Y-125247437D01*
X139094321Y-125254116D01*
X139094321Y-125437325D01*
X139074319Y-125505446D01*
X139020663Y-125551939D01*
X138950389Y-125562043D01*
X138942125Y-125560572D01*
X138798495Y-125530043D01*
X138761608Y-125522203D01*
X138574628Y-125522203D01*
X138568175Y-125523575D01*
X138568171Y-125523575D01*
X138483181Y-125541640D01*
X138391733Y-125561078D01*
X138385704Y-125563763D01*
X138385702Y-125563763D01*
X138226948Y-125634445D01*
X138226946Y-125634446D01*
X138220918Y-125637130D01*
X138069648Y-125747034D01*
X137944533Y-125885988D01*
X137851043Y-126047918D01*
X137793263Y-126225747D01*
X137773718Y-126411703D01*
X137776090Y-126434266D01*
X137784253Y-126511933D01*
X137771481Y-126581771D01*
X137722979Y-126633618D01*
X137654147Y-126651013D01*
X137644024Y-126650218D01*
X137594752Y-126644343D01*
X137531707Y-126636825D01*
X137524704Y-126637561D01*
X137524703Y-126637561D01*
X137488178Y-126641400D01*
X137361578Y-126654706D01*
X137351421Y-126658164D01*
X137206306Y-126707565D01*
X137206303Y-126707566D01*
X137199639Y-126709835D01*
X137053938Y-126799471D01*
X137048907Y-126804398D01*
X137048904Y-126804400D01*
X136990205Y-126861883D01*
X136931716Y-126919159D01*
X136839048Y-127062951D01*
X136836637Y-127069574D01*
X136836636Y-127069577D01*
X136782950Y-127217078D01*
X136782949Y-127217083D01*
X136780540Y-127223701D01*
X136759100Y-127393417D01*
X135986347Y-127393417D01*
X136060196Y-127265507D01*
X136115501Y-127095295D01*
X136134209Y-126917304D01*
X136115501Y-126739313D01*
X136105186Y-126707565D01*
X136062238Y-126575386D01*
X136062237Y-126575383D01*
X136060196Y-126569101D01*
X135970710Y-126414107D01*
X135883437Y-126317180D01*
X135852721Y-126253174D01*
X135861486Y-126182721D01*
X135906949Y-126128190D01*
X135977075Y-126106872D01*
X136499520Y-126106872D01*
X136508090Y-126107164D01*
X136557396Y-126110526D01*
X136557400Y-126110526D01*
X136564971Y-126111042D01*
X136572447Y-126109737D01*
X136572451Y-126109737D01*
X136627043Y-126100209D01*
X136633568Y-126099246D01*
X136688537Y-126092594D01*
X136688539Y-126092593D01*
X136696079Y-126091681D01*
X136703181Y-126088997D01*
X136706619Y-126088153D01*
X136720742Y-126084289D01*
X136724153Y-126083259D01*
X136731636Y-126081953D01*
X136789316Y-126056633D01*
X136795423Y-126054142D01*
X136847236Y-126034563D01*
X136847237Y-126034562D01*
X136854341Y-126031878D01*
X136860596Y-126027579D01*
X136863737Y-126025937D01*
X136876491Y-126018839D01*
X136879597Y-126017002D01*
X136886552Y-126013949D01*
X136892579Y-126009324D01*
X136892583Y-126009322D01*
X136936521Y-125975607D01*
X136941839Y-125971743D01*
X136993771Y-125936051D01*
X137034645Y-125890175D01*
X137039609Y-125884917D01*
X137801725Y-125122802D01*
X137807991Y-125116949D01*
X137845219Y-125084473D01*
X137850946Y-125079477D01*
X137887170Y-125027936D01*
X137891095Y-125022651D01*
X137925279Y-124979054D01*
X137929964Y-124973079D01*
X137933088Y-124966161D01*
X137934917Y-124963140D01*
X137942172Y-124950421D01*
X137943860Y-124947273D01*
X137948228Y-124941058D01*
X137971110Y-124882369D01*
X137973650Y-124876324D01*
X137999585Y-124818884D01*
X138000970Y-124811411D01*
X138002041Y-124807993D01*
X138006026Y-124794004D01*
X138006923Y-124790512D01*
X138009684Y-124783430D01*
X138012887Y-124759102D01*
X138017905Y-124720989D01*
X138018937Y-124714476D01*
X138029033Y-124660001D01*
X138029033Y-124659999D01*
X138030417Y-124652532D01*
X138026881Y-124591206D01*
X138026672Y-124583954D01*
X138026672Y-124524421D01*
X138043553Y-124461421D01*
X138106445Y-124352490D01*
X138106446Y-124352489D01*
X138109749Y-124346767D01*
X138155631Y-124205555D01*
X138163014Y-124182834D01*
X138163014Y-124182833D01*
X138165054Y-124176555D01*
X138183762Y-123998564D01*
X138165054Y-123820573D01*
X138109749Y-123650361D01*
X138020263Y-123495367D01*
X137900508Y-123362365D01*
X137876660Y-123345038D01*
X137761059Y-123261049D01*
X137761058Y-123261048D01*
X137755717Y-123257168D01*
X137749689Y-123254484D01*
X137749687Y-123254483D01*
X137598249Y-123187059D01*
X137598248Y-123187059D01*
X137592218Y-123184374D01*
X137504688Y-123165769D01*
X137423615Y-123148536D01*
X137423611Y-123148536D01*
X137417158Y-123147164D01*
X137238186Y-123147164D01*
X137231733Y-123148536D01*
X137231729Y-123148536D01*
X137150656Y-123165769D01*
X137063126Y-123184374D01*
X137057096Y-123187059D01*
X137057095Y-123187059D01*
X136905657Y-123254483D01*
X136905655Y-123254484D01*
X136899627Y-123257168D01*
X136894286Y-123261048D01*
X136894285Y-123261049D01*
X136830497Y-123307394D01*
X136763629Y-123331252D01*
X136727603Y-123326085D01*
X136727165Y-123327951D01*
X136720302Y-123326341D01*
X136713670Y-123323980D01*
X136543808Y-123303725D01*
X136536805Y-123304461D01*
X136536804Y-123304461D01*
X136508899Y-123307394D01*
X136373679Y-123321606D01*
X136363522Y-123325064D01*
X136218407Y-123374465D01*
X136218404Y-123374466D01*
X136211740Y-123376735D01*
X136066039Y-123466371D01*
X136061008Y-123471298D01*
X136061005Y-123471300D01*
X136043987Y-123487966D01*
X135981322Y-123521337D01*
X135910563Y-123515531D01*
X135866423Y-123486727D01*
X135851104Y-123471300D01*
X135758928Y-123378478D01*
X135684511Y-123331252D01*
X135620435Y-123290588D01*
X135620432Y-123290586D01*
X135614492Y-123286817D01*
X135607859Y-123284455D01*
X135459973Y-123231795D01*
X135459968Y-123231794D01*
X135453338Y-123229433D01*
X135446350Y-123228600D01*
X135446347Y-123228599D01*
X135330774Y-123214818D01*
X135283476Y-123209178D01*
X135276473Y-123209914D01*
X135276472Y-123209914D01*
X135232077Y-123214580D01*
X135113347Y-123227059D01*
X135103190Y-123230517D01*
X134958075Y-123279918D01*
X134958072Y-123279919D01*
X134951408Y-123282188D01*
X134945408Y-123285879D01*
X134945402Y-123285882D01*
X134859899Y-123338484D01*
X134791398Y-123357143D01*
X134751938Y-123347602D01*
X134751203Y-123349667D01*
X134596684Y-123294645D01*
X134596679Y-123294644D01*
X134590049Y-123292283D01*
X134583061Y-123291450D01*
X134583058Y-123291449D01*
X134467485Y-123277668D01*
X134420187Y-123272028D01*
X134413184Y-123272764D01*
X134413183Y-123272764D01*
X134368788Y-123277430D01*
X134250058Y-123289909D01*
X134239901Y-123293367D01*
X134094786Y-123342768D01*
X134094783Y-123342769D01*
X134088119Y-123345038D01*
X133942418Y-123434674D01*
X133937387Y-123439601D01*
X133937384Y-123439603D01*
X133889263Y-123486727D01*
X133820196Y-123554362D01*
X133816377Y-123560287D01*
X133816376Y-123560289D01*
X133797263Y-123589947D01*
X133727528Y-123698154D01*
X133725117Y-123704777D01*
X133725116Y-123704780D01*
X133671430Y-123852281D01*
X133671429Y-123852286D01*
X133669020Y-123858904D01*
X133647580Y-124028620D01*
X133664273Y-124198870D01*
X133718270Y-124361190D01*
X133721917Y-124367212D01*
X133721918Y-124367214D01*
X133803236Y-124501488D01*
X133803239Y-124501491D01*
X133806886Y-124507514D01*
X133811781Y-124512582D01*
X133816077Y-124518161D01*
X133814357Y-124519486D01*
X133842446Y-124573123D01*
X133836152Y-124643840D01*
X133792624Y-124699928D01*
X133738818Y-124720972D01*
X133738908Y-124721339D01*
X133736144Y-124722018D01*
X133734017Y-124722850D01*
X133723991Y-124724063D01*
X133716882Y-124726749D01*
X133713439Y-124727595D01*
X133699314Y-124731458D01*
X133695909Y-124732486D01*
X133688433Y-124733791D01*
X133630761Y-124759107D01*
X133624666Y-124761595D01*
X133572831Y-124781182D01*
X133572829Y-124781183D01*
X133565729Y-124783866D01*
X133559477Y-124788163D01*
X133556334Y-124789806D01*
X133543586Y-124796901D01*
X133540474Y-124798742D01*
X133533518Y-124801795D01*
X133527490Y-124806421D01*
X133527489Y-124806421D01*
X133483553Y-124840134D01*
X133478226Y-124844005D01*
X133426299Y-124879693D01*
X133421247Y-124885363D01*
X133421246Y-124885364D01*
X133385449Y-124925542D01*
X133380469Y-124930818D01*
X132813980Y-125497308D01*
X132751082Y-125531459D01*
X132614112Y-125560573D01*
X132543323Y-125555171D01*
X132486690Y-125512354D01*
X132462197Y-125445716D01*
X132461917Y-125437326D01*
X132461917Y-125301937D01*
X132446486Y-125150021D01*
X132385503Y-124955426D01*
X132286638Y-124777067D01*
X132153927Y-124622231D01*
X131992793Y-124497243D01*
X131809818Y-124407208D01*
X131803640Y-124405599D01*
X131803638Y-124405598D01*
X131618658Y-124357414D01*
X131618655Y-124357414D01*
X131612476Y-124355804D01*
X131531135Y-124351541D01*
X131415211Y-124345466D01*
X131415207Y-124345466D01*
X131408829Y-124345132D01*
X131207195Y-124375626D01*
X131201200Y-124377832D01*
X131201199Y-124377832D01*
X131113698Y-124410026D01*
X131015811Y-124446041D01*
X130842495Y-124553502D01*
X130837862Y-124557883D01*
X130837861Y-124557884D01*
X130802623Y-124591207D01*
X130694326Y-124693618D01*
X130690664Y-124698848D01*
X130690663Y-124698849D01*
X130631439Y-124783430D01*
X130577359Y-124860665D01*
X130496370Y-125047820D01*
X130454667Y-125247437D01*
X130454317Y-125254116D01*
X130454317Y-126521471D01*
X128682797Y-126521471D01*
X128518635Y-124259678D01*
X128533653Y-124190288D01*
X128583802Y-124140033D01*
X128653160Y-124124869D01*
X128692522Y-124134148D01*
X128781314Y-124170927D01*
X128781320Y-124170929D01*
X128785883Y-124172819D01*
X128790683Y-124173971D01*
X128790688Y-124173973D01*
X128865197Y-124191861D01*
X129028933Y-124231171D01*
X129278119Y-124250782D01*
X129527305Y-124231171D01*
X129691041Y-124191861D01*
X129765550Y-124173973D01*
X129765555Y-124173971D01*
X129770355Y-124172819D01*
X129774918Y-124170929D01*
X129774924Y-124170927D01*
X129996711Y-124079060D01*
X129996715Y-124079058D01*
X130001285Y-124077165D01*
X130214408Y-123946563D01*
X130404476Y-123784229D01*
X130566810Y-123594161D01*
X130697412Y-123381038D01*
X130699307Y-123376464D01*
X130791174Y-123154677D01*
X130791176Y-123154671D01*
X130793066Y-123150108D01*
X130851418Y-122907058D01*
X130871029Y-122657872D01*
X130851418Y-122408686D01*
X130793066Y-122165636D01*
X130791176Y-122161073D01*
X130791174Y-122161067D01*
X130699307Y-121939280D01*
X130699305Y-121939276D01*
X130697412Y-121934706D01*
X130566810Y-121721583D01*
X130404476Y-121531515D01*
X130214408Y-121369181D01*
X130001285Y-121238579D01*
X129996715Y-121236686D01*
X129996711Y-121236684D01*
X129774924Y-121144817D01*
X129774918Y-121144815D01*
X129770355Y-121142925D01*
X129765555Y-121141773D01*
X129765550Y-121141771D01*
X129654287Y-121115059D01*
X129527305Y-121084573D01*
X129278119Y-121064962D01*
X129028933Y-121084573D01*
X128901951Y-121115059D01*
X128790688Y-121141771D01*
X128790683Y-121141773D01*
X128785883Y-121142925D01*
X128781320Y-121144815D01*
X128781314Y-121144817D01*
X128559527Y-121236684D01*
X128559523Y-121236686D01*
X128554953Y-121238579D01*
X128524012Y-121257540D01*
X128486763Y-121280366D01*
X128418229Y-121298904D01*
X128350553Y-121277448D01*
X128305220Y-121222809D01*
X128295259Y-121182054D01*
X128283366Y-121018192D01*
X132736972Y-121018192D01*
X132753665Y-121188442D01*
X132807662Y-121350762D01*
X132811309Y-121356784D01*
X132811310Y-121356786D01*
X132892628Y-121491060D01*
X132892631Y-121491063D01*
X132896278Y-121497086D01*
X133015111Y-121620140D01*
X133158252Y-121713809D01*
X133164856Y-121716265D01*
X133164858Y-121716266D01*
X133311979Y-121770980D01*
X133311981Y-121770980D01*
X133318589Y-121773438D01*
X133397676Y-121783991D01*
X133481171Y-121795132D01*
X133481175Y-121795132D01*
X133488152Y-121796063D01*
X133495163Y-121795425D01*
X133495167Y-121795425D01*
X133651495Y-121781198D01*
X133651497Y-121781198D01*
X133658514Y-121780559D01*
X133665212Y-121778383D01*
X133665215Y-121778382D01*
X133814511Y-121729872D01*
X133814513Y-121729871D01*
X133821207Y-121727696D01*
X133968146Y-121640103D01*
X134092027Y-121522133D01*
X134101009Y-121508615D01*
X134182792Y-121385520D01*
X134186693Y-121379649D01*
X134233078Y-121257540D01*
X134244940Y-121226314D01*
X134244941Y-121226312D01*
X134247440Y-121219732D01*
X134251838Y-121188442D01*
X134257640Y-121147158D01*
X135510869Y-121147158D01*
X135527562Y-121317408D01*
X135581559Y-121479728D01*
X135585206Y-121485750D01*
X135585207Y-121485752D01*
X135666525Y-121620026D01*
X135666528Y-121620029D01*
X135670175Y-121626052D01*
X135789008Y-121749106D01*
X135833746Y-121778382D01*
X135892859Y-121817064D01*
X135932149Y-121842775D01*
X135938753Y-121845231D01*
X135938755Y-121845232D01*
X136085876Y-121899946D01*
X136085878Y-121899946D01*
X136092486Y-121902404D01*
X136171573Y-121912957D01*
X136255068Y-121924098D01*
X136255072Y-121924098D01*
X136262049Y-121925029D01*
X136269060Y-121924391D01*
X136269064Y-121924391D01*
X136425392Y-121910164D01*
X136425394Y-121910164D01*
X136432411Y-121909525D01*
X136439109Y-121907349D01*
X136439112Y-121907348D01*
X136588408Y-121858838D01*
X136588410Y-121858837D01*
X136595104Y-121856662D01*
X136655020Y-121820945D01*
X136735991Y-121772677D01*
X136735993Y-121772676D01*
X136742043Y-121769069D01*
X136865924Y-121651099D01*
X136876458Y-121635245D01*
X136945375Y-121531515D01*
X136960590Y-121508615D01*
X136963091Y-121502030D01*
X136963094Y-121502025D01*
X136997392Y-121411734D01*
X137040281Y-121355155D01*
X137106949Y-121330746D01*
X137176231Y-121346256D01*
X137226130Y-121396759D01*
X137231138Y-121408473D01*
X137231316Y-121408394D01*
X137234000Y-121414423D01*
X137236042Y-121420707D01*
X137239345Y-121426429D01*
X137239346Y-121426430D01*
X137266259Y-121473045D01*
X137325528Y-121575701D01*
X137329946Y-121580608D01*
X137329947Y-121580609D01*
X137386764Y-121643711D01*
X137445283Y-121708703D01*
X137450625Y-121712584D01*
X137450627Y-121712586D01*
X137584732Y-121810019D01*
X137590074Y-121813900D01*
X137596102Y-121816584D01*
X137596104Y-121816585D01*
X137691007Y-121858838D01*
X137753573Y-121886694D01*
X137827483Y-121902404D01*
X137922176Y-121922532D01*
X137922180Y-121922532D01*
X137928633Y-121923904D01*
X138107605Y-121923904D01*
X138114058Y-121922532D01*
X138114062Y-121922532D01*
X138208755Y-121902404D01*
X138282665Y-121886694D01*
X138350119Y-121856662D01*
X138424310Y-121823630D01*
X138446164Y-121813900D01*
X138449473Y-121811496D01*
X138517561Y-121794978D01*
X138576312Y-121815626D01*
X138577387Y-121813764D01*
X138583098Y-121817062D01*
X138588443Y-121820945D01*
X138594472Y-121823629D01*
X138594475Y-121823631D01*
X138739200Y-121888066D01*
X138751942Y-121893739D01*
X138815968Y-121907348D01*
X138920545Y-121929577D01*
X138920549Y-121929577D01*
X138927002Y-121930949D01*
X139105974Y-121930949D01*
X139112427Y-121929577D01*
X139112431Y-121929577D01*
X139217008Y-121907348D01*
X139281034Y-121893739D01*
X139293776Y-121888066D01*
X139438503Y-121823630D01*
X139438505Y-121823629D01*
X139444533Y-121820945D01*
X139457236Y-121811716D01*
X139583980Y-121719631D01*
X139583982Y-121719629D01*
X139589324Y-121715748D01*
X139671936Y-121623998D01*
X139704660Y-121587654D01*
X139704661Y-121587653D01*
X139709079Y-121582746D01*
X139798565Y-121427752D01*
X139842987Y-121291035D01*
X139851830Y-121263819D01*
X139851830Y-121263818D01*
X139853870Y-121257540D01*
X139854611Y-121250495D01*
X139871888Y-121086114D01*
X139872578Y-121079549D01*
X139853870Y-120901558D01*
X139826296Y-120816692D01*
X139800607Y-120737631D01*
X139798565Y-120731346D01*
X139791194Y-120718578D01*
X139712380Y-120582070D01*
X139709079Y-120576352D01*
X139684921Y-120549521D01*
X139593746Y-120448261D01*
X139593745Y-120448260D01*
X139589324Y-120443350D01*
X139579628Y-120436305D01*
X139449875Y-120342034D01*
X139449874Y-120342033D01*
X139444533Y-120338153D01*
X139438505Y-120335469D01*
X139438503Y-120335468D01*
X139287065Y-120268044D01*
X139287064Y-120268044D01*
X139281034Y-120265359D01*
X139193504Y-120246754D01*
X139112431Y-120229521D01*
X139112427Y-120229521D01*
X139105974Y-120228149D01*
X138927002Y-120228149D01*
X138920549Y-120229521D01*
X138920545Y-120229521D01*
X138839472Y-120246754D01*
X138751942Y-120265359D01*
X138745912Y-120268044D01*
X138745911Y-120268044D01*
X138714891Y-120281855D01*
X138588443Y-120338153D01*
X138585134Y-120340557D01*
X138517046Y-120357075D01*
X138458295Y-120336427D01*
X138457220Y-120338289D01*
X138451509Y-120334991D01*
X138446164Y-120331108D01*
X138440135Y-120328424D01*
X138440132Y-120328422D01*
X138288696Y-120260999D01*
X138288695Y-120260999D01*
X138282665Y-120258314D01*
X138195135Y-120239709D01*
X138114062Y-120222476D01*
X138114058Y-120222476D01*
X138107605Y-120221104D01*
X137928633Y-120221104D01*
X137922180Y-120222476D01*
X137922176Y-120222476D01*
X137841103Y-120239709D01*
X137753573Y-120258314D01*
X137747543Y-120260999D01*
X137747542Y-120260999D01*
X137596104Y-120328423D01*
X137596102Y-120328424D01*
X137590074Y-120331108D01*
X137584733Y-120334988D01*
X137584732Y-120334989D01*
X137455097Y-120429175D01*
X137445283Y-120436305D01*
X137440862Y-120441215D01*
X137440861Y-120441216D01*
X137335477Y-120558258D01*
X137325528Y-120569307D01*
X137270951Y-120663836D01*
X137260898Y-120681250D01*
X137236042Y-120724301D01*
X137234000Y-120730586D01*
X137205822Y-120817308D01*
X137165748Y-120875914D01*
X137100352Y-120903551D01*
X137030395Y-120891444D01*
X136978089Y-120843438D01*
X136972417Y-120832925D01*
X136970118Y-120826322D01*
X136879467Y-120681250D01*
X136866278Y-120667968D01*
X136763891Y-120564864D01*
X136758928Y-120559866D01*
X136693658Y-120518445D01*
X136620435Y-120471976D01*
X136620432Y-120471974D01*
X136614492Y-120468205D01*
X136607859Y-120465843D01*
X136459973Y-120413183D01*
X136459968Y-120413182D01*
X136453338Y-120410821D01*
X136446350Y-120409988D01*
X136446347Y-120409987D01*
X136330774Y-120396206D01*
X136283476Y-120390566D01*
X136276473Y-120391302D01*
X136276472Y-120391302D01*
X136232077Y-120395968D01*
X136113347Y-120408447D01*
X136103190Y-120411905D01*
X135958075Y-120461306D01*
X135958072Y-120461307D01*
X135951408Y-120463576D01*
X135805707Y-120553212D01*
X135800676Y-120558139D01*
X135800673Y-120558141D01*
X135794283Y-120564399D01*
X135683485Y-120672900D01*
X135679666Y-120678825D01*
X135679665Y-120678827D01*
X135677750Y-120681799D01*
X135590817Y-120816692D01*
X135588406Y-120823315D01*
X135588405Y-120823318D01*
X135534719Y-120970819D01*
X135534718Y-120970824D01*
X135532309Y-120977442D01*
X135510869Y-121147158D01*
X134257640Y-121147158D01*
X134270697Y-121054253D01*
X134270697Y-121054250D01*
X134271248Y-121050331D01*
X134271547Y-121028906D01*
X134252478Y-120858906D01*
X134243393Y-120832815D01*
X134198536Y-120704003D01*
X134198535Y-120704001D01*
X134196221Y-120697356D01*
X134117543Y-120571444D01*
X134109303Y-120558258D01*
X134105570Y-120552284D01*
X134092381Y-120539002D01*
X134019731Y-120465843D01*
X133985031Y-120430900D01*
X133914777Y-120386316D01*
X133846538Y-120343010D01*
X133846535Y-120343008D01*
X133840595Y-120339239D01*
X133828660Y-120334989D01*
X133686076Y-120284217D01*
X133686071Y-120284216D01*
X133679441Y-120281855D01*
X133672453Y-120281022D01*
X133672450Y-120281021D01*
X133556877Y-120267240D01*
X133509579Y-120261600D01*
X133502576Y-120262336D01*
X133502575Y-120262336D01*
X133458180Y-120267002D01*
X133339450Y-120279481D01*
X133329293Y-120282939D01*
X133184178Y-120332340D01*
X133184175Y-120332341D01*
X133177511Y-120334610D01*
X133031810Y-120424246D01*
X133026779Y-120429173D01*
X133026776Y-120429175D01*
X132993965Y-120461306D01*
X132909588Y-120543934D01*
X132905769Y-120549859D01*
X132905768Y-120549861D01*
X132901752Y-120556093D01*
X132816920Y-120687726D01*
X132814509Y-120694349D01*
X132814508Y-120694352D01*
X132760822Y-120841853D01*
X132760821Y-120841858D01*
X132758412Y-120848476D01*
X132736972Y-121018192D01*
X128283366Y-121018192D01*
X128163046Y-119360461D01*
X140039607Y-119360461D01*
X140058315Y-119538452D01*
X140113620Y-119708664D01*
X140203106Y-119863658D01*
X140322861Y-119996660D01*
X140467652Y-120101857D01*
X140473680Y-120104541D01*
X140473682Y-120104542D01*
X140625120Y-120171966D01*
X140631151Y-120174651D01*
X140718681Y-120193256D01*
X140799754Y-120210489D01*
X140799758Y-120210489D01*
X140806211Y-120211861D01*
X140985183Y-120211861D01*
X140991636Y-120210489D01*
X140991640Y-120210489D01*
X141072713Y-120193256D01*
X141160243Y-120174651D01*
X141166274Y-120171966D01*
X141317712Y-120104542D01*
X141317714Y-120104541D01*
X141323742Y-120101857D01*
X141468533Y-119996660D01*
X141588288Y-119863658D01*
X141677774Y-119708664D01*
X141733079Y-119538452D01*
X141751787Y-119360461D01*
X141733079Y-119182470D01*
X141677774Y-119012258D01*
X141588288Y-118857264D01*
X141468533Y-118724262D01*
X141427994Y-118694808D01*
X141329084Y-118622946D01*
X141329083Y-118622945D01*
X141323742Y-118619065D01*
X141317714Y-118616381D01*
X141317712Y-118616380D01*
X141166274Y-118548956D01*
X141166273Y-118548956D01*
X141160243Y-118546271D01*
X141072713Y-118527666D01*
X140991640Y-118510433D01*
X140991636Y-118510433D01*
X140985183Y-118509061D01*
X140806211Y-118509061D01*
X140799758Y-118510433D01*
X140799754Y-118510433D01*
X140718681Y-118527666D01*
X140631151Y-118546271D01*
X140625121Y-118548956D01*
X140625120Y-118548956D01*
X140473682Y-118616380D01*
X140473680Y-118616381D01*
X140467652Y-118619065D01*
X140462311Y-118622945D01*
X140462310Y-118622946D01*
X140363401Y-118694808D01*
X140322861Y-118724262D01*
X140203106Y-118857264D01*
X140113620Y-119012258D01*
X140058315Y-119182470D01*
X140039607Y-119360461D01*
X128163046Y-119360461D01*
X128139568Y-119036984D01*
X128026482Y-117478909D01*
X128041500Y-117409520D01*
X128091649Y-117359265D01*
X128161007Y-117344101D01*
X128178347Y-117346542D01*
X128315519Y-117375698D01*
X128342679Y-117381471D01*
X128521651Y-117381471D01*
X128528104Y-117380099D01*
X128528108Y-117380099D01*
X128626122Y-117359265D01*
X128696711Y-117344261D01*
X128702742Y-117341576D01*
X128854180Y-117274152D01*
X128854182Y-117274151D01*
X128860210Y-117271467D01*
X128865983Y-117267273D01*
X128999657Y-117170153D01*
X128999659Y-117170151D01*
X129005001Y-117166270D01*
X129012563Y-117157872D01*
X130922029Y-117157872D01*
X130940737Y-117335863D01*
X130942777Y-117342141D01*
X130942777Y-117342142D01*
X130968285Y-117420648D01*
X130996042Y-117506075D01*
X131085528Y-117661069D01*
X131089946Y-117665976D01*
X131089947Y-117665977D01*
X131112743Y-117691295D01*
X131205283Y-117794071D01*
X131350074Y-117899268D01*
X131356102Y-117901952D01*
X131356104Y-117901953D01*
X131507542Y-117969377D01*
X131513573Y-117972062D01*
X131601103Y-117990667D01*
X131682176Y-118007900D01*
X131682180Y-118007900D01*
X131688633Y-118009272D01*
X131867605Y-118009272D01*
X131874058Y-118007900D01*
X131874062Y-118007900D01*
X131955135Y-117990667D01*
X132042665Y-117972062D01*
X132048696Y-117969377D01*
X132200134Y-117901953D01*
X132200136Y-117901952D01*
X132206164Y-117899268D01*
X132350955Y-117794071D01*
X132408983Y-117729624D01*
X135912029Y-117729624D01*
X135930737Y-117907615D01*
X135986042Y-118077827D01*
X136075528Y-118232821D01*
X136195283Y-118365823D01*
X136340074Y-118471020D01*
X136346102Y-118473704D01*
X136346104Y-118473705D01*
X136454685Y-118522048D01*
X136503573Y-118543814D01*
X136591103Y-118562419D01*
X136672176Y-118579652D01*
X136672180Y-118579652D01*
X136678633Y-118581024D01*
X136689638Y-118581024D01*
X136757759Y-118601026D01*
X136803849Y-118653977D01*
X136805869Y-118660050D01*
X136826919Y-118694808D01*
X136890835Y-118800348D01*
X136890838Y-118800351D01*
X136894485Y-118806374D01*
X137013318Y-118929428D01*
X137019214Y-118933286D01*
X137149500Y-119018543D01*
X137156459Y-119023097D01*
X137163063Y-119025553D01*
X137163065Y-119025554D01*
X137310186Y-119080268D01*
X137310188Y-119080268D01*
X137316796Y-119082726D01*
X137395883Y-119093279D01*
X137479378Y-119104420D01*
X137479382Y-119104420D01*
X137486359Y-119105351D01*
X137493370Y-119104713D01*
X137493374Y-119104713D01*
X137649702Y-119090486D01*
X137649704Y-119090486D01*
X137656721Y-119089847D01*
X137663419Y-119087671D01*
X137663422Y-119087670D01*
X137812718Y-119039160D01*
X137812720Y-119039159D01*
X137819414Y-119036984D01*
X137966353Y-118949391D01*
X138090234Y-118831421D01*
X138103508Y-118811443D01*
X138180999Y-118694808D01*
X138184900Y-118688937D01*
X138245647Y-118529020D01*
X138253421Y-118473705D01*
X138268904Y-118363541D01*
X138268904Y-118363538D01*
X138269455Y-118359619D01*
X138269754Y-118338194D01*
X138250685Y-118168194D01*
X138221210Y-118083550D01*
X138196743Y-118013291D01*
X138196742Y-118013289D01*
X138194428Y-118006644D01*
X138127607Y-117899708D01*
X138108471Y-117831339D01*
X138129336Y-117763477D01*
X138169943Y-117724709D01*
X138173644Y-117722503D01*
X138232043Y-117687690D01*
X138355924Y-117569720D01*
X138450590Y-117427236D01*
X138508485Y-117274828D01*
X138508837Y-117273901D01*
X138508838Y-117273899D01*
X138511337Y-117267319D01*
X138535145Y-117097918D01*
X138535444Y-117076493D01*
X138516375Y-116906493D01*
X138508542Y-116883997D01*
X138462433Y-116751590D01*
X138462432Y-116751588D01*
X138460118Y-116744943D01*
X138400646Y-116649767D01*
X138373200Y-116605845D01*
X138369467Y-116599871D01*
X138360703Y-116591045D01*
X138253891Y-116483485D01*
X138248928Y-116478487D01*
X138157329Y-116420357D01*
X138110435Y-116390597D01*
X138110432Y-116390595D01*
X138104492Y-116386826D01*
X138048553Y-116366907D01*
X137991089Y-116325213D01*
X137965288Y-116259071D01*
X137979343Y-116189479D01*
X138003240Y-116157872D01*
X139922029Y-116157872D01*
X139922719Y-116164437D01*
X139930444Y-116237929D01*
X139940737Y-116335863D01*
X139942777Y-116342141D01*
X139942777Y-116342142D01*
X139943966Y-116345801D01*
X139996042Y-116506075D01*
X139999345Y-116511797D01*
X139999346Y-116511798D01*
X140006106Y-116523506D01*
X140085528Y-116661069D01*
X140205283Y-116794071D01*
X140210625Y-116797952D01*
X140210627Y-116797954D01*
X140321178Y-116878274D01*
X140350074Y-116899268D01*
X140356102Y-116901952D01*
X140356104Y-116901953D01*
X140415784Y-116928524D01*
X140513573Y-116972062D01*
X140601103Y-116990667D01*
X140682176Y-117007900D01*
X140682180Y-117007900D01*
X140688633Y-117009272D01*
X140867605Y-117009272D01*
X140874058Y-117007900D01*
X140874062Y-117007900D01*
X140955135Y-116990667D01*
X141042665Y-116972062D01*
X141140454Y-116928524D01*
X141200134Y-116901953D01*
X141200136Y-116901952D01*
X141206164Y-116899268D01*
X141235060Y-116878274D01*
X141345611Y-116797954D01*
X141345613Y-116797952D01*
X141350955Y-116794071D01*
X141470710Y-116661069D01*
X141550132Y-116523506D01*
X141556892Y-116511798D01*
X141556893Y-116511797D01*
X141560196Y-116506075D01*
X141612272Y-116345801D01*
X141613461Y-116342142D01*
X141613461Y-116342141D01*
X141615501Y-116335863D01*
X141625795Y-116237929D01*
X141633519Y-116164437D01*
X141634209Y-116157872D01*
X141624548Y-116065954D01*
X141616191Y-115986445D01*
X141616191Y-115986444D01*
X141615501Y-115979881D01*
X141612961Y-115972062D01*
X141573858Y-115851718D01*
X141560196Y-115809669D01*
X141551191Y-115794071D01*
X141507598Y-115718567D01*
X141470710Y-115654675D01*
X141418210Y-115596367D01*
X141355377Y-115526584D01*
X141355376Y-115526583D01*
X141350955Y-115521673D01*
X141337364Y-115511798D01*
X141211506Y-115420357D01*
X141211505Y-115420356D01*
X141206164Y-115416476D01*
X141200136Y-115413792D01*
X141200134Y-115413791D01*
X141048696Y-115346367D01*
X141048695Y-115346367D01*
X141042665Y-115343682D01*
X140955135Y-115325077D01*
X140874062Y-115307844D01*
X140874058Y-115307844D01*
X140867605Y-115306472D01*
X140688633Y-115306472D01*
X140682180Y-115307844D01*
X140682176Y-115307844D01*
X140601103Y-115325077D01*
X140513573Y-115343682D01*
X140507543Y-115346367D01*
X140507542Y-115346367D01*
X140356104Y-115413791D01*
X140356102Y-115413792D01*
X140350074Y-115416476D01*
X140344733Y-115420356D01*
X140344732Y-115420357D01*
X140218875Y-115511798D01*
X140205283Y-115521673D01*
X140200862Y-115526583D01*
X140200861Y-115526584D01*
X140138029Y-115596367D01*
X140085528Y-115654675D01*
X140048640Y-115718567D01*
X140005048Y-115794071D01*
X139996042Y-115809669D01*
X139982380Y-115851718D01*
X139943278Y-115972062D01*
X139940737Y-115979881D01*
X139940047Y-115986444D01*
X139940047Y-115986445D01*
X139931690Y-116065954D01*
X139922029Y-116157872D01*
X138003240Y-116157872D01*
X138003927Y-116156963D01*
X138100817Y-116064695D01*
X138100820Y-116064692D01*
X138105924Y-116059831D01*
X138120136Y-116038441D01*
X138164237Y-115972062D01*
X138200590Y-115917347D01*
X138250488Y-115785990D01*
X138258837Y-115764012D01*
X138258838Y-115764010D01*
X138261337Y-115757430D01*
X138266809Y-115718497D01*
X138284594Y-115591951D01*
X138284594Y-115591948D01*
X138285145Y-115588029D01*
X138285444Y-115566604D01*
X138266375Y-115396604D01*
X138251444Y-115353726D01*
X138212433Y-115241701D01*
X138212432Y-115241699D01*
X138210118Y-115235054D01*
X138158978Y-115153212D01*
X138123200Y-115095956D01*
X138119467Y-115089982D01*
X137998928Y-114968598D01*
X137933658Y-114927177D01*
X137860435Y-114880708D01*
X137860432Y-114880706D01*
X137854492Y-114876937D01*
X137764533Y-114844904D01*
X137699977Y-114821917D01*
X137693338Y-114819553D01*
X137690321Y-114819193D01*
X137629947Y-114784943D01*
X137596938Y-114722086D01*
X137600644Y-114658369D01*
X137643661Y-114525977D01*
X137643661Y-114525976D01*
X137645701Y-114519698D01*
X137664409Y-114341707D01*
X137645701Y-114163716D01*
X137637241Y-114137677D01*
X137596838Y-114013330D01*
X137590396Y-113993504D01*
X137500910Y-113838510D01*
X137482953Y-113818566D01*
X137476852Y-113811790D01*
X139750869Y-113811790D01*
X139767562Y-113982040D01*
X139821559Y-114144360D01*
X139825206Y-114150382D01*
X139825207Y-114150384D01*
X139906525Y-114284658D01*
X139906528Y-114284661D01*
X139910175Y-114290684D01*
X140029008Y-114413738D01*
X140172149Y-114507407D01*
X140178753Y-114509863D01*
X140178755Y-114509864D01*
X140325876Y-114564578D01*
X140325878Y-114564578D01*
X140332486Y-114567036D01*
X140411573Y-114577589D01*
X140495068Y-114588730D01*
X140495072Y-114588730D01*
X140502049Y-114589661D01*
X140509060Y-114589023D01*
X140509064Y-114589023D01*
X140665392Y-114574796D01*
X140665394Y-114574796D01*
X140672411Y-114574157D01*
X140679109Y-114571981D01*
X140679112Y-114571980D01*
X140828408Y-114523470D01*
X140828410Y-114523469D01*
X140835104Y-114521294D01*
X140982043Y-114433701D01*
X141105924Y-114315731D01*
X141119198Y-114295753D01*
X141196689Y-114179118D01*
X141200590Y-114173247D01*
X141261337Y-114013330D01*
X141263240Y-113999789D01*
X141284594Y-113847851D01*
X141284594Y-113847848D01*
X141285145Y-113843929D01*
X141285444Y-113822504D01*
X141266375Y-113652504D01*
X141249552Y-113604192D01*
X141212433Y-113497601D01*
X141212432Y-113497599D01*
X141210118Y-113490954D01*
X141119467Y-113345882D01*
X141106278Y-113332600D01*
X141003891Y-113229496D01*
X140998928Y-113224498D01*
X140933658Y-113183077D01*
X140860435Y-113136608D01*
X140860432Y-113136606D01*
X140854492Y-113132837D01*
X140847859Y-113130475D01*
X140699973Y-113077815D01*
X140699968Y-113077814D01*
X140693338Y-113075453D01*
X140686350Y-113074620D01*
X140686347Y-113074619D01*
X140570774Y-113060838D01*
X140523476Y-113055198D01*
X140516473Y-113055934D01*
X140516472Y-113055934D01*
X140472077Y-113060600D01*
X140353347Y-113073079D01*
X140343190Y-113076537D01*
X140198075Y-113125938D01*
X140198072Y-113125939D01*
X140191408Y-113128208D01*
X140045707Y-113217844D01*
X140040676Y-113222771D01*
X140040673Y-113222773D01*
X140033808Y-113229496D01*
X139923485Y-113337532D01*
X139919666Y-113343457D01*
X139919665Y-113343459D01*
X139914254Y-113351856D01*
X139830817Y-113481324D01*
X139828406Y-113487947D01*
X139828405Y-113487950D01*
X139774719Y-113635451D01*
X139774718Y-113635456D01*
X139772309Y-113642074D01*
X139750869Y-113811790D01*
X137476852Y-113811790D01*
X137385577Y-113710419D01*
X137385576Y-113710418D01*
X137381155Y-113705508D01*
X137317834Y-113659502D01*
X137241706Y-113604192D01*
X137241705Y-113604191D01*
X137236364Y-113600311D01*
X137230336Y-113597627D01*
X137230334Y-113597626D01*
X137078896Y-113530202D01*
X137078895Y-113530202D01*
X137072865Y-113527517D01*
X136985335Y-113508912D01*
X136904262Y-113491679D01*
X136904258Y-113491679D01*
X136897805Y-113490307D01*
X136718833Y-113490307D01*
X136712380Y-113491679D01*
X136712376Y-113491679D01*
X136631303Y-113508912D01*
X136543773Y-113527517D01*
X136537743Y-113530202D01*
X136537742Y-113530202D01*
X136386304Y-113597626D01*
X136386302Y-113597627D01*
X136380274Y-113600311D01*
X136374933Y-113604191D01*
X136374932Y-113604192D01*
X136298805Y-113659502D01*
X136235483Y-113705508D01*
X136231062Y-113710418D01*
X136231061Y-113710419D01*
X136133686Y-113818566D01*
X136115728Y-113838510D01*
X136026242Y-113993504D01*
X136019800Y-114013330D01*
X135979398Y-114137677D01*
X135970937Y-114163716D01*
X135952229Y-114341707D01*
X135970937Y-114519698D01*
X136026242Y-114689910D01*
X136115728Y-114844904D01*
X136120146Y-114849811D01*
X136120147Y-114849812D01*
X136147966Y-114880708D01*
X136235483Y-114977906D01*
X136240825Y-114981787D01*
X136240827Y-114981789D01*
X136374932Y-115079222D01*
X136380274Y-115083103D01*
X136386302Y-115085787D01*
X136386304Y-115085788D01*
X136537742Y-115153212D01*
X136543773Y-115155897D01*
X136550228Y-115157269D01*
X136550231Y-115157270D01*
X136634754Y-115175236D01*
X136691915Y-115187385D01*
X136754388Y-115221113D01*
X136788710Y-115283263D01*
X136784119Y-115353726D01*
X136774719Y-115379551D01*
X136774718Y-115379556D01*
X136772309Y-115386174D01*
X136750869Y-115555890D01*
X136767562Y-115726140D01*
X136821559Y-115888460D01*
X136825206Y-115894482D01*
X136825207Y-115894484D01*
X136881634Y-115987657D01*
X136899813Y-116056287D01*
X136878002Y-116123850D01*
X136823126Y-116168896D01*
X136787030Y-116178238D01*
X136764247Y-116180633D01*
X136743627Y-116182800D01*
X136736959Y-116185070D01*
X136588355Y-116235659D01*
X136588352Y-116235660D01*
X136581688Y-116237929D01*
X136435987Y-116327565D01*
X136430956Y-116332492D01*
X136430953Y-116332494D01*
X136377884Y-116384463D01*
X136313765Y-116447253D01*
X136309946Y-116453178D01*
X136309945Y-116453180D01*
X136293636Y-116478487D01*
X136221097Y-116591045D01*
X136218686Y-116597668D01*
X136218685Y-116597671D01*
X136164999Y-116745172D01*
X136164998Y-116745177D01*
X136162589Y-116751795D01*
X136141149Y-116921511D01*
X136149754Y-117009272D01*
X136156243Y-117075454D01*
X136142983Y-117145201D01*
X136124480Y-117172059D01*
X136079952Y-117221513D01*
X136079950Y-117221516D01*
X136075528Y-117226427D01*
X136072226Y-117232146D01*
X136072224Y-117232149D01*
X136008720Y-117342142D01*
X135986042Y-117381421D01*
X135930737Y-117551633D01*
X135930047Y-117558196D01*
X135930047Y-117558197D01*
X135916058Y-117691295D01*
X135912029Y-117729624D01*
X132408983Y-117729624D01*
X132443495Y-117691295D01*
X132466291Y-117665977D01*
X132466292Y-117665976D01*
X132470710Y-117661069D01*
X132560196Y-117506075D01*
X132587953Y-117420648D01*
X132613461Y-117342142D01*
X132613461Y-117342141D01*
X132615501Y-117335863D01*
X132616191Y-117329299D01*
X132617565Y-117322835D01*
X132619770Y-117323304D01*
X132642826Y-117267273D01*
X132701050Y-117226646D01*
X132767315Y-117222858D01*
X132908623Y-117252893D01*
X132938633Y-117259272D01*
X133117605Y-117259272D01*
X133124058Y-117257900D01*
X133124062Y-117257900D01*
X133205135Y-117240667D01*
X133292665Y-117222062D01*
X133298696Y-117219377D01*
X133450134Y-117151953D01*
X133450136Y-117151952D01*
X133456164Y-117149268D01*
X133532293Y-117093957D01*
X133595611Y-117047954D01*
X133595613Y-117047952D01*
X133600955Y-117044071D01*
X133632288Y-117009272D01*
X133716291Y-116915977D01*
X133716292Y-116915976D01*
X133720710Y-116911069D01*
X133810196Y-116756075D01*
X133833130Y-116685492D01*
X133863461Y-116592142D01*
X133863461Y-116592141D01*
X133865501Y-116585863D01*
X133877184Y-116474714D01*
X133883519Y-116414437D01*
X133884209Y-116407872D01*
X133876468Y-116334219D01*
X133866191Y-116236445D01*
X133866191Y-116236444D01*
X133865501Y-116229881D01*
X133810196Y-116059669D01*
X133720710Y-115904675D01*
X133624619Y-115797954D01*
X133605377Y-115776584D01*
X133605376Y-115776583D01*
X133600955Y-115771673D01*
X133583451Y-115758955D01*
X133461506Y-115670357D01*
X133461505Y-115670356D01*
X133456164Y-115666476D01*
X133450136Y-115663792D01*
X133450134Y-115663791D01*
X133298696Y-115596367D01*
X133298695Y-115596367D01*
X133292665Y-115593682D01*
X133205135Y-115575077D01*
X133124062Y-115557844D01*
X133124058Y-115557844D01*
X133117605Y-115556472D01*
X132938633Y-115556472D01*
X132932180Y-115557844D01*
X132932176Y-115557844D01*
X132851103Y-115575077D01*
X132763573Y-115593682D01*
X132757543Y-115596367D01*
X132757542Y-115596367D01*
X132606104Y-115663791D01*
X132606102Y-115663792D01*
X132600074Y-115666476D01*
X132594733Y-115670356D01*
X132594732Y-115670357D01*
X132472788Y-115758955D01*
X132455283Y-115771673D01*
X132450862Y-115776583D01*
X132450861Y-115776584D01*
X132431620Y-115797954D01*
X132335528Y-115904675D01*
X132246042Y-116059669D01*
X132190737Y-116229881D01*
X132190047Y-116236444D01*
X132188673Y-116242909D01*
X132186468Y-116242440D01*
X132163412Y-116298471D01*
X132105188Y-116339098D01*
X132038923Y-116342886D01*
X131874064Y-116307845D01*
X131874065Y-116307845D01*
X131867605Y-116306472D01*
X131688633Y-116306472D01*
X131682180Y-116307844D01*
X131682176Y-116307844D01*
X131606763Y-116323874D01*
X131513573Y-116343682D01*
X131507543Y-116346367D01*
X131507542Y-116346367D01*
X131356104Y-116413791D01*
X131356102Y-116413792D01*
X131350074Y-116416476D01*
X131344733Y-116420356D01*
X131344732Y-116420357D01*
X131218875Y-116511798D01*
X131205283Y-116521673D01*
X131200862Y-116526583D01*
X131200861Y-116526584D01*
X131129495Y-116605845D01*
X131085528Y-116654675D01*
X131079003Y-116665977D01*
X131005048Y-116794071D01*
X130996042Y-116809669D01*
X130994000Y-116815954D01*
X130943278Y-116972062D01*
X130940737Y-116979881D01*
X130922029Y-117157872D01*
X129012563Y-117157872D01*
X129124756Y-117033268D01*
X129193317Y-116914517D01*
X129210938Y-116883997D01*
X129210939Y-116883996D01*
X129214242Y-116878274D01*
X129269547Y-116708062D01*
X129288255Y-116530071D01*
X129272895Y-116383937D01*
X129270237Y-116358644D01*
X129270237Y-116358643D01*
X129269547Y-116352080D01*
X129262192Y-116329442D01*
X129216284Y-116188153D01*
X129214242Y-116181868D01*
X129204457Y-116164919D01*
X129143690Y-116059669D01*
X129131434Y-116038440D01*
X129114696Y-115969446D01*
X129137916Y-115902354D01*
X129193723Y-115858467D01*
X129264398Y-115851718D01*
X129314614Y-115873505D01*
X129335198Y-115888460D01*
X129350074Y-115899268D01*
X129356102Y-115901952D01*
X129356104Y-115901953D01*
X129507542Y-115969377D01*
X129513573Y-115972062D01*
X129586942Y-115987657D01*
X129682176Y-116007900D01*
X129682180Y-116007900D01*
X129688633Y-116009272D01*
X129867605Y-116009272D01*
X129874058Y-116007900D01*
X129874062Y-116007900D01*
X129969296Y-115987657D01*
X130042665Y-115972062D01*
X130048696Y-115969377D01*
X130200134Y-115901953D01*
X130200136Y-115901952D01*
X130206164Y-115899268D01*
X130221040Y-115888460D01*
X130345611Y-115797954D01*
X130345613Y-115797952D01*
X130350955Y-115794071D01*
X130374079Y-115768389D01*
X130466291Y-115665977D01*
X130466292Y-115665976D01*
X130470710Y-115661069D01*
X130548355Y-115526584D01*
X130556892Y-115511798D01*
X130556893Y-115511797D01*
X130560196Y-115506075D01*
X130612088Y-115346367D01*
X130613461Y-115342142D01*
X130613461Y-115342141D01*
X130615501Y-115335863D01*
X130634209Y-115157872D01*
X130615501Y-114979881D01*
X130560196Y-114809669D01*
X130545921Y-114784943D01*
X130474011Y-114660393D01*
X130470710Y-114654675D01*
X130412172Y-114589661D01*
X130355377Y-114526584D01*
X130355376Y-114526583D01*
X130350955Y-114521673D01*
X130345471Y-114517688D01*
X130211506Y-114420357D01*
X130211505Y-114420356D01*
X130206164Y-114416476D01*
X130200136Y-114413792D01*
X130200134Y-114413791D01*
X130048696Y-114346367D01*
X130048695Y-114346367D01*
X130042665Y-114343682D01*
X129955135Y-114325077D01*
X129874062Y-114307844D01*
X129874058Y-114307844D01*
X129867605Y-114306472D01*
X129688633Y-114306472D01*
X129682180Y-114307844D01*
X129682176Y-114307844D01*
X129601103Y-114325077D01*
X129513573Y-114343682D01*
X129507543Y-114346367D01*
X129507542Y-114346367D01*
X129356104Y-114413791D01*
X129356102Y-114413792D01*
X129350074Y-114416476D01*
X129344733Y-114420356D01*
X129344732Y-114420357D01*
X129210768Y-114517688D01*
X129205283Y-114521673D01*
X129200862Y-114526583D01*
X129200861Y-114526584D01*
X129144067Y-114589661D01*
X129085528Y-114654675D01*
X129082227Y-114660393D01*
X129010318Y-114784943D01*
X128996042Y-114809669D01*
X128940737Y-114979881D01*
X128922029Y-115157872D01*
X128940737Y-115335863D01*
X128942777Y-115342141D01*
X128942777Y-115342142D01*
X128944150Y-115346367D01*
X128996042Y-115506075D01*
X128999345Y-115511797D01*
X128999346Y-115511798D01*
X129078850Y-115649502D01*
X129095588Y-115718497D01*
X129072368Y-115785589D01*
X129016561Y-115829476D01*
X128945886Y-115836225D01*
X128895670Y-115814438D01*
X128865552Y-115792556D01*
X128865551Y-115792555D01*
X128860210Y-115788675D01*
X128854182Y-115785991D01*
X128854180Y-115785990D01*
X128702742Y-115718566D01*
X128702741Y-115718566D01*
X128696711Y-115715881D01*
X128609181Y-115697276D01*
X128528108Y-115680043D01*
X128528104Y-115680043D01*
X128521651Y-115678671D01*
X128342679Y-115678671D01*
X128336226Y-115680043D01*
X128336222Y-115680043D01*
X128255149Y-115697276D01*
X128167619Y-115715881D01*
X128161592Y-115718564D01*
X128161584Y-115718567D01*
X128070871Y-115758955D01*
X128000504Y-115768389D01*
X127936207Y-115738282D01*
X127898394Y-115678193D01*
X127893954Y-115652969D01*
X127893703Y-115649502D01*
X127541155Y-110792177D01*
X127556173Y-110722788D01*
X127606322Y-110672533D01*
X127675680Y-110657369D01*
X127742227Y-110682109D01*
X127760017Y-110698257D01*
X127779943Y-110720155D01*
X128005831Y-110909026D01*
X128009472Y-110911310D01*
X128251621Y-111063211D01*
X128251625Y-111063213D01*
X128255261Y-111065494D01*
X128259171Y-111067259D01*
X128259172Y-111067260D01*
X128264027Y-111069452D01*
X128523619Y-111186662D01*
X128527738Y-111187882D01*
X128801825Y-111269071D01*
X128801830Y-111269072D01*
X128805938Y-111270289D01*
X128810172Y-111270937D01*
X128810177Y-111270938D01*
X129067515Y-111310316D01*
X129096994Y-111314827D01*
X129246891Y-111317182D01*
X129387112Y-111319385D01*
X129387118Y-111319385D01*
X129391403Y-111319452D01*
X129683714Y-111284078D01*
X129858437Y-111238240D01*
X129964378Y-111210447D01*
X129964379Y-111210447D01*
X129968521Y-111209360D01*
X130240552Y-111096681D01*
X130274950Y-111076581D01*
X130491076Y-110950287D01*
X130491077Y-110950287D01*
X130494774Y-110948126D01*
X130498134Y-110945492D01*
X130498142Y-110945486D01*
X130576102Y-110884357D01*
X132732750Y-110884357D01*
X132749443Y-111054607D01*
X132803440Y-111216927D01*
X132807087Y-111222949D01*
X132807088Y-111222951D01*
X132888406Y-111357225D01*
X132888409Y-111357228D01*
X132892056Y-111363251D01*
X133010889Y-111486305D01*
X133046909Y-111509876D01*
X133138492Y-111569806D01*
X133154030Y-111579974D01*
X133160634Y-111582430D01*
X133160636Y-111582431D01*
X133307757Y-111637145D01*
X133307759Y-111637145D01*
X133314367Y-111639603D01*
X133393454Y-111650156D01*
X133476949Y-111661297D01*
X133476953Y-111661297D01*
X133483930Y-111662228D01*
X133490941Y-111661590D01*
X133490945Y-111661590D01*
X133647273Y-111647363D01*
X133647275Y-111647363D01*
X133654292Y-111646724D01*
X133660990Y-111644548D01*
X133660993Y-111644547D01*
X133810289Y-111596037D01*
X133810291Y-111596036D01*
X133816985Y-111593861D01*
X133894716Y-111547524D01*
X133957872Y-111509876D01*
X133957874Y-111509875D01*
X133963924Y-111506268D01*
X134087805Y-111388298D01*
X134101079Y-111368320D01*
X134157771Y-111282991D01*
X134182471Y-111245814D01*
X134243218Y-111085897D01*
X134245837Y-111067260D01*
X134266475Y-110920418D01*
X134266475Y-110920415D01*
X134267026Y-110916496D01*
X134267325Y-110895071D01*
X134265403Y-110877937D01*
X135037606Y-110877937D01*
X135038296Y-110884502D01*
X135054072Y-111034593D01*
X135056314Y-111055928D01*
X135058354Y-111062206D01*
X135058354Y-111062207D01*
X135069555Y-111096681D01*
X135111619Y-111226140D01*
X135201105Y-111381134D01*
X135205523Y-111386041D01*
X135205524Y-111386042D01*
X135309567Y-111501594D01*
X135320860Y-111514136D01*
X135326202Y-111518017D01*
X135326204Y-111518019D01*
X135433587Y-111596037D01*
X135465651Y-111619333D01*
X135471679Y-111622017D01*
X135471681Y-111622018D01*
X135594244Y-111676586D01*
X135629150Y-111692127D01*
X135716680Y-111710732D01*
X135797753Y-111727965D01*
X135797757Y-111727965D01*
X135804210Y-111729337D01*
X135983182Y-111729337D01*
X135989635Y-111727965D01*
X135989639Y-111727965D01*
X136070712Y-111710732D01*
X136158242Y-111692127D01*
X136193148Y-111676586D01*
X136315711Y-111622018D01*
X136315713Y-111622017D01*
X136321741Y-111619333D01*
X136353805Y-111596037D01*
X136461188Y-111518019D01*
X136461190Y-111518017D01*
X136466532Y-111514136D01*
X136477825Y-111501594D01*
X136581868Y-111386042D01*
X136581869Y-111386041D01*
X136586287Y-111381134D01*
X136675773Y-111226140D01*
X136717837Y-111096681D01*
X136729038Y-111062207D01*
X136729038Y-111062206D01*
X136731078Y-111055928D01*
X136733321Y-111034593D01*
X136747504Y-110899646D01*
X138069969Y-110899646D01*
X138086662Y-111069896D01*
X138140659Y-111232216D01*
X138144306Y-111238238D01*
X138144307Y-111238240D01*
X138225625Y-111372514D01*
X138225628Y-111372517D01*
X138229275Y-111378540D01*
X138348108Y-111501594D01*
X138378615Y-111521557D01*
X138471640Y-111582431D01*
X138491249Y-111595263D01*
X138497853Y-111597719D01*
X138497855Y-111597720D01*
X138644976Y-111652434D01*
X138644978Y-111652434D01*
X138651586Y-111654892D01*
X138730673Y-111665445D01*
X138814168Y-111676586D01*
X138814172Y-111676586D01*
X138821149Y-111677517D01*
X138828160Y-111676879D01*
X138828164Y-111676879D01*
X138984492Y-111662652D01*
X138984494Y-111662652D01*
X138991511Y-111662013D01*
X138998209Y-111659837D01*
X138998212Y-111659836D01*
X139147508Y-111611326D01*
X139147510Y-111611325D01*
X139154204Y-111609150D01*
X139227892Y-111565223D01*
X139296644Y-111547524D01*
X139364054Y-111569806D01*
X139400183Y-111608182D01*
X139410814Y-111625737D01*
X139410817Y-111625740D01*
X139414464Y-111631763D01*
X139533297Y-111754817D01*
X139676438Y-111848486D01*
X139683042Y-111850942D01*
X139683044Y-111850943D01*
X139830165Y-111905657D01*
X139830167Y-111905657D01*
X139836775Y-111908115D01*
X139915862Y-111918668D01*
X139999357Y-111929809D01*
X139999361Y-111929809D01*
X140006338Y-111930740D01*
X140013349Y-111930102D01*
X140013353Y-111930102D01*
X140169681Y-111915875D01*
X140169683Y-111915875D01*
X140176700Y-111915236D01*
X140183398Y-111913060D01*
X140183401Y-111913059D01*
X140332697Y-111864549D01*
X140332699Y-111864548D01*
X140339393Y-111862373D01*
X140486332Y-111774780D01*
X140610213Y-111656810D01*
X140621646Y-111639603D01*
X140668018Y-111569806D01*
X140704879Y-111514326D01*
X140755474Y-111381134D01*
X140763126Y-111360991D01*
X140763127Y-111360989D01*
X140765626Y-111354409D01*
X140770539Y-111319452D01*
X140788883Y-111188930D01*
X140788883Y-111188927D01*
X140789434Y-111185008D01*
X140789733Y-111163583D01*
X140770664Y-110993583D01*
X140758747Y-110959360D01*
X140716722Y-110838680D01*
X140716721Y-110838678D01*
X140714407Y-110832033D01*
X140646468Y-110723307D01*
X140627489Y-110692935D01*
X140623756Y-110686961D01*
X140609429Y-110672533D01*
X140508180Y-110570575D01*
X140503217Y-110565577D01*
X140428170Y-110517951D01*
X140364724Y-110477687D01*
X140364721Y-110477685D01*
X140358781Y-110473916D01*
X140348219Y-110470155D01*
X140204262Y-110418894D01*
X140204257Y-110418893D01*
X140197627Y-110416532D01*
X140190639Y-110415699D01*
X140190636Y-110415698D01*
X140075063Y-110401917D01*
X140027765Y-110396277D01*
X140020762Y-110397013D01*
X140020761Y-110397013D01*
X139976366Y-110401679D01*
X139857636Y-110414158D01*
X139847479Y-110417616D01*
X139702364Y-110467017D01*
X139702361Y-110467018D01*
X139695697Y-110469287D01*
X139689696Y-110472979D01*
X139632583Y-110508115D01*
X139564082Y-110526774D01*
X139496368Y-110505436D01*
X139459707Y-110467569D01*
X139438567Y-110433738D01*
X139425378Y-110420456D01*
X139322991Y-110317352D01*
X139318028Y-110312354D01*
X139228517Y-110255549D01*
X139179535Y-110224464D01*
X139179532Y-110224462D01*
X139173592Y-110220693D01*
X139166959Y-110218331D01*
X139019073Y-110165671D01*
X139019068Y-110165670D01*
X139012438Y-110163309D01*
X139005450Y-110162476D01*
X139005447Y-110162475D01*
X138884222Y-110148020D01*
X138842576Y-110143054D01*
X138835573Y-110143790D01*
X138835572Y-110143790D01*
X138817914Y-110145646D01*
X138672447Y-110160935D01*
X138662290Y-110164393D01*
X138517175Y-110213794D01*
X138517172Y-110213795D01*
X138510508Y-110216064D01*
X138364807Y-110305700D01*
X138359776Y-110310627D01*
X138359773Y-110310629D01*
X138300792Y-110368388D01*
X138242585Y-110425388D01*
X138238766Y-110431313D01*
X138238765Y-110431315D01*
X138211311Y-110473916D01*
X138149917Y-110569180D01*
X138147506Y-110575803D01*
X138147505Y-110575806D01*
X138093819Y-110723307D01*
X138093818Y-110723312D01*
X138091409Y-110729930D01*
X138069969Y-110899646D01*
X136747504Y-110899646D01*
X136749096Y-110884502D01*
X136749786Y-110877937D01*
X136733479Y-110722788D01*
X136731768Y-110706510D01*
X136731768Y-110706509D01*
X136731078Y-110699946D01*
X136725283Y-110682109D01*
X136677815Y-110536019D01*
X136675773Y-110529734D01*
X136668100Y-110516443D01*
X136639541Y-110466979D01*
X136586287Y-110374740D01*
X136528562Y-110310629D01*
X136470954Y-110246649D01*
X136470953Y-110246648D01*
X136466532Y-110241738D01*
X136442757Y-110224464D01*
X136327083Y-110140422D01*
X136327082Y-110140421D01*
X136321741Y-110136541D01*
X136315713Y-110133857D01*
X136315711Y-110133856D01*
X136164273Y-110066432D01*
X136164272Y-110066432D01*
X136158242Y-110063747D01*
X136070712Y-110045142D01*
X135989639Y-110027909D01*
X135989635Y-110027909D01*
X135983182Y-110026537D01*
X135804210Y-110026537D01*
X135797757Y-110027909D01*
X135797753Y-110027909D01*
X135716680Y-110045142D01*
X135629150Y-110063747D01*
X135623120Y-110066432D01*
X135623119Y-110066432D01*
X135471681Y-110133856D01*
X135471679Y-110133857D01*
X135465651Y-110136541D01*
X135460310Y-110140421D01*
X135460309Y-110140422D01*
X135344636Y-110224464D01*
X135320860Y-110241738D01*
X135316439Y-110246648D01*
X135316438Y-110246649D01*
X135258831Y-110310629D01*
X135201105Y-110374740D01*
X135147851Y-110466979D01*
X135119293Y-110516443D01*
X135111619Y-110529734D01*
X135109577Y-110536019D01*
X135062110Y-110682109D01*
X135056314Y-110699946D01*
X135055624Y-110706509D01*
X135055624Y-110706510D01*
X135053913Y-110722788D01*
X135037606Y-110877937D01*
X134265403Y-110877937D01*
X134248256Y-110725071D01*
X134241793Y-110706510D01*
X134194314Y-110570168D01*
X134194313Y-110570166D01*
X134191999Y-110563521D01*
X134167311Y-110524011D01*
X134105081Y-110424423D01*
X134101348Y-110418449D01*
X134088159Y-110405167D01*
X134000955Y-110317352D01*
X133980809Y-110297065D01*
X133887508Y-110237855D01*
X133842316Y-110209175D01*
X133842313Y-110209173D01*
X133836373Y-110205404D01*
X133829740Y-110203042D01*
X133681854Y-110150382D01*
X133681849Y-110150381D01*
X133675219Y-110148020D01*
X133668231Y-110147187D01*
X133668228Y-110147186D01*
X133552655Y-110133405D01*
X133505357Y-110127765D01*
X133498354Y-110128501D01*
X133498353Y-110128501D01*
X133453958Y-110133167D01*
X133335228Y-110145646D01*
X133325071Y-110149104D01*
X133179956Y-110198505D01*
X133179953Y-110198506D01*
X133173289Y-110200775D01*
X133027588Y-110290411D01*
X133022557Y-110295338D01*
X133022554Y-110295340D01*
X132999727Y-110317694D01*
X132905366Y-110410099D01*
X132901547Y-110416024D01*
X132901546Y-110416026D01*
X132886283Y-110439710D01*
X132812698Y-110553891D01*
X132810287Y-110560514D01*
X132810286Y-110560517D01*
X132756600Y-110708018D01*
X132756599Y-110708023D01*
X132754190Y-110714641D01*
X132732750Y-110884357D01*
X130576102Y-110884357D01*
X130723111Y-110769087D01*
X130726483Y-110766443D01*
X130931391Y-110554995D01*
X130933924Y-110551547D01*
X130933928Y-110551542D01*
X131103168Y-110321149D01*
X131105706Y-110317694D01*
X131107752Y-110313926D01*
X131244152Y-110062707D01*
X131244153Y-110062705D01*
X131246202Y-110058931D01*
X131350281Y-109783495D01*
X131416016Y-109496482D01*
X131436961Y-109261798D01*
X131441970Y-109205671D01*
X131441970Y-109205664D01*
X131442190Y-109203203D01*
X131442665Y-109157872D01*
X131437756Y-109085863D01*
X131425622Y-108907872D01*
X134077229Y-108907872D01*
X134095937Y-109085863D01*
X134151242Y-109256075D01*
X134240728Y-109411069D01*
X134245146Y-109415976D01*
X134245147Y-109415977D01*
X134356061Y-109539160D01*
X134360483Y-109544071D01*
X134505274Y-109649268D01*
X134511302Y-109651952D01*
X134511304Y-109651953D01*
X134662742Y-109719377D01*
X134668773Y-109722062D01*
X134756303Y-109740667D01*
X134837376Y-109757900D01*
X134837380Y-109757900D01*
X134843833Y-109759272D01*
X135022805Y-109759272D01*
X135029258Y-109757900D01*
X135029262Y-109757900D01*
X135110335Y-109740667D01*
X135197865Y-109722062D01*
X135203896Y-109719377D01*
X135355334Y-109651953D01*
X135355336Y-109651952D01*
X135361364Y-109649268D01*
X135506155Y-109544071D01*
X135510577Y-109539160D01*
X135621491Y-109415977D01*
X135621492Y-109415976D01*
X135625910Y-109411069D01*
X135715396Y-109256075D01*
X135770701Y-109085863D01*
X135789409Y-108907872D01*
X135770701Y-108729881D01*
X135715396Y-108559669D01*
X135625910Y-108404675D01*
X135567372Y-108339661D01*
X135510577Y-108276584D01*
X135510576Y-108276583D01*
X135506155Y-108271673D01*
X135500671Y-108267688D01*
X135366706Y-108170357D01*
X135366705Y-108170356D01*
X135361364Y-108166476D01*
X135355336Y-108163792D01*
X135355334Y-108163791D01*
X135203896Y-108096367D01*
X135203895Y-108096367D01*
X135197865Y-108093682D01*
X135110335Y-108075077D01*
X135029262Y-108057844D01*
X135029258Y-108057844D01*
X135022805Y-108056472D01*
X134843833Y-108056472D01*
X134837380Y-108057844D01*
X134837376Y-108057844D01*
X134756303Y-108075077D01*
X134668773Y-108093682D01*
X134662743Y-108096367D01*
X134662742Y-108096367D01*
X134511304Y-108163791D01*
X134511302Y-108163792D01*
X134505274Y-108166476D01*
X134499933Y-108170356D01*
X134499932Y-108170357D01*
X134365968Y-108267688D01*
X134360483Y-108271673D01*
X134356062Y-108276583D01*
X134356061Y-108276584D01*
X134299267Y-108339661D01*
X134240728Y-108404675D01*
X134151242Y-108559669D01*
X134095937Y-108729881D01*
X134077229Y-108907872D01*
X131425622Y-108907872D01*
X131422930Y-108868386D01*
X131422929Y-108868380D01*
X131422638Y-108864109D01*
X131362929Y-108575783D01*
X131264641Y-108298227D01*
X131129594Y-108036579D01*
X131077614Y-107962618D01*
X131005343Y-107859787D01*
X130960287Y-107795679D01*
X130759853Y-107579986D01*
X130756538Y-107577272D01*
X130756534Y-107577269D01*
X130737622Y-107561790D01*
X138000869Y-107561790D01*
X138017562Y-107732040D01*
X138071559Y-107894360D01*
X138075206Y-107900382D01*
X138075207Y-107900384D01*
X138156525Y-108034658D01*
X138156528Y-108034661D01*
X138160175Y-108040684D01*
X138279008Y-108163738D01*
X138422149Y-108257407D01*
X138428753Y-108259863D01*
X138428755Y-108259864D01*
X138575876Y-108314578D01*
X138575878Y-108314578D01*
X138582486Y-108317036D01*
X138661573Y-108327589D01*
X138745068Y-108338730D01*
X138745072Y-108338730D01*
X138752049Y-108339661D01*
X138759060Y-108339023D01*
X138759064Y-108339023D01*
X138915392Y-108324796D01*
X138915394Y-108324796D01*
X138922411Y-108324157D01*
X138929109Y-108321981D01*
X138929112Y-108321980D01*
X139078408Y-108273470D01*
X139078410Y-108273469D01*
X139085104Y-108271294D01*
X139232043Y-108183701D01*
X139355924Y-108065731D01*
X139369198Y-108045753D01*
X139446689Y-107929118D01*
X139450590Y-107923247D01*
X139500242Y-107792538D01*
X139508837Y-107769912D01*
X139508838Y-107769910D01*
X139511337Y-107763330D01*
X139523499Y-107676797D01*
X139534594Y-107597851D01*
X139534594Y-107597848D01*
X139535145Y-107593929D01*
X139535444Y-107572504D01*
X139516375Y-107402504D01*
X139512457Y-107391251D01*
X139462433Y-107247601D01*
X139462432Y-107247599D01*
X139460118Y-107240954D01*
X139369467Y-107095882D01*
X139356278Y-107082600D01*
X139266197Y-106991888D01*
X139248928Y-106974498D01*
X139183658Y-106933077D01*
X139110435Y-106886608D01*
X139110432Y-106886606D01*
X139104492Y-106882837D01*
X139097859Y-106880475D01*
X138949973Y-106827815D01*
X138949968Y-106827814D01*
X138943338Y-106825453D01*
X138936350Y-106824620D01*
X138936347Y-106824619D01*
X138820774Y-106810838D01*
X138773476Y-106805198D01*
X138766473Y-106805934D01*
X138766472Y-106805934D01*
X138722077Y-106810600D01*
X138603347Y-106823079D01*
X138593190Y-106826537D01*
X138448075Y-106875938D01*
X138448072Y-106875939D01*
X138441408Y-106878208D01*
X138295707Y-106967844D01*
X138290676Y-106972771D01*
X138290673Y-106972773D01*
X138275207Y-106987919D01*
X138173485Y-107087532D01*
X138169666Y-107093457D01*
X138169665Y-107093459D01*
X138144093Y-107133139D01*
X138080817Y-107231324D01*
X138078406Y-107237947D01*
X138078405Y-107237950D01*
X138024719Y-107385451D01*
X138024718Y-107385456D01*
X138022309Y-107392074D01*
X138000869Y-107561790D01*
X130737622Y-107561790D01*
X130543013Y-107402504D01*
X130532000Y-107393490D01*
X130280945Y-107239644D01*
X130011333Y-107121292D01*
X129728153Y-107040627D01*
X129668135Y-107032085D01*
X129495846Y-107007564D01*
X129431223Y-106978163D01*
X129392755Y-106918491D01*
X129392653Y-106847495D01*
X129430952Y-106787714D01*
X129460351Y-106768626D01*
X129544782Y-106729256D01*
X129544788Y-106729252D01*
X129549773Y-106726928D01*
X129612461Y-106683033D01*
X130522512Y-106683033D01*
X130531806Y-106695047D01*
X130572207Y-106723336D01*
X130581703Y-106728819D01*
X130771232Y-106817198D01*
X130781524Y-106820944D01*
X130983520Y-106875068D01*
X130994315Y-106876971D01*
X131202644Y-106895198D01*
X131213594Y-106895198D01*
X131421923Y-106876971D01*
X131432718Y-106875068D01*
X131634714Y-106820944D01*
X131645006Y-106817198D01*
X131834535Y-106728819D01*
X131844031Y-106723336D01*
X131885267Y-106694462D01*
X131893642Y-106683984D01*
X131886576Y-106670540D01*
X131220930Y-106004893D01*
X131206987Y-105997280D01*
X131205153Y-105997411D01*
X131198539Y-106001662D01*
X130528939Y-106671263D01*
X130522512Y-106683033D01*
X129612461Y-106683033D01*
X129650878Y-106656133D01*
X129725646Y-106603780D01*
X129725648Y-106603778D01*
X129730157Y-106600621D01*
X129885868Y-106444910D01*
X129953405Y-106348458D01*
X129962954Y-106334820D01*
X130018411Y-106290492D01*
X130089030Y-106283183D01*
X130144838Y-106308669D01*
X130157006Y-106318395D01*
X130170453Y-106311327D01*
X130836098Y-105645683D01*
X130842475Y-105634004D01*
X131572527Y-105634004D01*
X131572658Y-105635838D01*
X131576909Y-105642452D01*
X132246510Y-106312052D01*
X132258280Y-106318479D01*
X132270295Y-106309183D01*
X132298585Y-106268779D01*
X132304065Y-106259289D01*
X132392445Y-106069759D01*
X132396191Y-106059467D01*
X132450315Y-105857471D01*
X132452218Y-105846676D01*
X132470445Y-105638347D01*
X132470445Y-105627397D01*
X132452218Y-105419068D01*
X132450315Y-105408273D01*
X132396191Y-105206277D01*
X132392445Y-105195985D01*
X132374672Y-105157872D01*
X133672029Y-105157872D01*
X133690737Y-105335863D01*
X133746042Y-105506075D01*
X133835528Y-105661069D01*
X133955283Y-105794071D01*
X133960625Y-105797952D01*
X133960627Y-105797954D01*
X134042545Y-105857471D01*
X134100074Y-105899268D01*
X134106102Y-105901952D01*
X134106104Y-105901953D01*
X134257542Y-105969377D01*
X134263573Y-105972062D01*
X134351103Y-105990667D01*
X134432176Y-106007900D01*
X134432180Y-106007900D01*
X134438633Y-106009272D01*
X134617605Y-106009272D01*
X134624058Y-106007900D01*
X134624062Y-106007900D01*
X134705135Y-105990667D01*
X134750003Y-105981130D01*
X136068856Y-105981130D01*
X136085549Y-106151380D01*
X136139546Y-106313700D01*
X136143193Y-106319722D01*
X136143194Y-106319724D01*
X136224512Y-106453998D01*
X136224515Y-106454001D01*
X136228162Y-106460024D01*
X136346995Y-106583078D01*
X136377502Y-106603041D01*
X136481756Y-106671263D01*
X136490136Y-106676747D01*
X136496740Y-106679203D01*
X136496742Y-106679204D01*
X136643863Y-106733918D01*
X136643865Y-106733918D01*
X136650473Y-106736376D01*
X136729560Y-106746929D01*
X136813055Y-106758070D01*
X136813059Y-106758070D01*
X136820036Y-106759001D01*
X136827047Y-106758363D01*
X136827051Y-106758363D01*
X136983379Y-106744136D01*
X136983381Y-106744136D01*
X136990398Y-106743497D01*
X136997096Y-106741321D01*
X136997099Y-106741320D01*
X137146395Y-106692810D01*
X137146397Y-106692809D01*
X137153091Y-106690634D01*
X137300030Y-106603041D01*
X137423911Y-106485071D01*
X137437185Y-106465093D01*
X137514676Y-106348458D01*
X137518577Y-106342587D01*
X137579324Y-106182670D01*
X137595869Y-106064948D01*
X137602581Y-106017191D01*
X137602581Y-106017188D01*
X137603132Y-106013269D01*
X137603294Y-106001662D01*
X137603376Y-105995806D01*
X137603376Y-105995801D01*
X137603431Y-105991844D01*
X137584362Y-105821844D01*
X137572981Y-105789160D01*
X137530420Y-105666941D01*
X137530419Y-105666939D01*
X137528105Y-105660294D01*
X137510263Y-105631740D01*
X137441187Y-105521196D01*
X137437454Y-105515222D01*
X137424265Y-105501940D01*
X137336441Y-105413501D01*
X137316915Y-105393838D01*
X137251645Y-105352417D01*
X137178422Y-105305948D01*
X137178419Y-105305946D01*
X137172479Y-105302177D01*
X137165846Y-105299815D01*
X137017960Y-105247155D01*
X137017955Y-105247154D01*
X137011325Y-105244793D01*
X137004337Y-105243960D01*
X137004334Y-105243959D01*
X136888761Y-105230178D01*
X136841463Y-105224538D01*
X136834460Y-105225274D01*
X136834459Y-105225274D01*
X136790064Y-105229940D01*
X136671334Y-105242419D01*
X136661177Y-105245877D01*
X136516062Y-105295278D01*
X136516059Y-105295279D01*
X136509395Y-105297548D01*
X136363694Y-105387184D01*
X136358663Y-105392111D01*
X136358660Y-105392113D01*
X136331227Y-105418978D01*
X136241472Y-105506872D01*
X136237653Y-105512797D01*
X136237652Y-105512799D01*
X136232241Y-105521196D01*
X136148804Y-105650664D01*
X136146393Y-105657287D01*
X136146392Y-105657290D01*
X136092706Y-105804791D01*
X136092705Y-105804796D01*
X136090296Y-105811414D01*
X136068856Y-105981130D01*
X134750003Y-105981130D01*
X134792665Y-105972062D01*
X134798696Y-105969377D01*
X134950134Y-105901953D01*
X134950136Y-105901952D01*
X134956164Y-105899268D01*
X135013693Y-105857471D01*
X135095611Y-105797954D01*
X135095613Y-105797952D01*
X135100955Y-105794071D01*
X135220710Y-105661069D01*
X135310196Y-105506075D01*
X135365501Y-105335863D01*
X135384209Y-105157872D01*
X135365501Y-104979881D01*
X135354904Y-104947265D01*
X135313824Y-104820834D01*
X135310196Y-104809669D01*
X135303434Y-104797956D01*
X135224918Y-104661964D01*
X135220710Y-104654675D01*
X135155057Y-104581759D01*
X135105377Y-104526584D01*
X135105376Y-104526583D01*
X135100955Y-104521673D01*
X135087364Y-104511798D01*
X134961506Y-104420357D01*
X134961505Y-104420356D01*
X134956164Y-104416476D01*
X134950136Y-104413792D01*
X134950134Y-104413791D01*
X134798696Y-104346367D01*
X134798695Y-104346367D01*
X134792665Y-104343682D01*
X134705135Y-104325077D01*
X134624062Y-104307844D01*
X134624058Y-104307844D01*
X134617605Y-104306472D01*
X134438633Y-104306472D01*
X134432180Y-104307844D01*
X134432176Y-104307844D01*
X134351103Y-104325077D01*
X134263573Y-104343682D01*
X134257543Y-104346367D01*
X134257542Y-104346367D01*
X134106104Y-104413791D01*
X134106102Y-104413792D01*
X134100074Y-104416476D01*
X134094733Y-104420356D01*
X134094732Y-104420357D01*
X133968875Y-104511798D01*
X133955283Y-104521673D01*
X133950862Y-104526583D01*
X133950861Y-104526584D01*
X133901182Y-104581759D01*
X133835528Y-104654675D01*
X133831320Y-104661964D01*
X133752805Y-104797956D01*
X133746042Y-104809669D01*
X133742414Y-104820834D01*
X133701335Y-104947265D01*
X133690737Y-104979881D01*
X133672029Y-105157872D01*
X132374672Y-105157872D01*
X132304065Y-105006455D01*
X132298585Y-104996965D01*
X132269708Y-104955723D01*
X132259232Y-104947349D01*
X132245785Y-104954417D01*
X131580140Y-105620061D01*
X131572527Y-105634004D01*
X130842475Y-105634004D01*
X130843711Y-105631740D01*
X130843580Y-105629906D01*
X130839329Y-105623292D01*
X130169728Y-104953692D01*
X130157958Y-104947265D01*
X130143412Y-104958518D01*
X130077294Y-104984381D01*
X130007689Y-104970393D01*
X129963099Y-104931131D01*
X129889031Y-104825350D01*
X129889026Y-104825344D01*
X129885868Y-104820834D01*
X129730157Y-104665123D01*
X129724368Y-104661069D01*
X129612461Y-104582711D01*
X129611101Y-104581759D01*
X130522596Y-104581759D01*
X130529664Y-104595206D01*
X131195308Y-105260851D01*
X131209251Y-105268464D01*
X131211085Y-105268333D01*
X131217699Y-105264082D01*
X131887299Y-104594481D01*
X131893726Y-104582711D01*
X131884432Y-104570697D01*
X131844031Y-104542408D01*
X131834535Y-104536925D01*
X131645006Y-104448546D01*
X131634714Y-104444800D01*
X131432718Y-104390676D01*
X131421923Y-104388773D01*
X131213594Y-104370546D01*
X131202644Y-104370546D01*
X130994315Y-104388773D01*
X130983520Y-104390676D01*
X130781524Y-104444800D01*
X130771232Y-104448546D01*
X130581702Y-104536926D01*
X130572212Y-104542406D01*
X130530970Y-104571283D01*
X130522596Y-104581759D01*
X129611101Y-104581759D01*
X129549773Y-104538816D01*
X129350195Y-104445752D01*
X129137490Y-104388757D01*
X128918119Y-104369565D01*
X128698748Y-104388757D01*
X128486043Y-104445752D01*
X128392681Y-104489287D01*
X128291453Y-104536490D01*
X128291448Y-104536493D01*
X128286466Y-104538816D01*
X128281959Y-104541972D01*
X128281957Y-104541973D01*
X128110592Y-104661964D01*
X128110589Y-104661966D01*
X128106081Y-104665123D01*
X127950370Y-104820834D01*
X127947213Y-104825342D01*
X127947211Y-104825345D01*
X127827220Y-104996710D01*
X127827219Y-104996712D01*
X127824063Y-105001219D01*
X127821740Y-105006201D01*
X127821737Y-105006206D01*
X127821621Y-105006455D01*
X127730999Y-105200796D01*
X127674004Y-105413501D01*
X127654812Y-105632872D01*
X127674004Y-105852243D01*
X127730999Y-106064948D01*
X127771303Y-106151380D01*
X127821737Y-106259538D01*
X127821740Y-106259543D01*
X127824063Y-106264525D01*
X127827219Y-106269032D01*
X127827220Y-106269034D01*
X127882834Y-106348458D01*
X127950370Y-106444910D01*
X128106081Y-106600621D01*
X128110590Y-106603778D01*
X128110592Y-106603780D01*
X128185360Y-106656133D01*
X128286465Y-106726928D01*
X128486043Y-106819992D01*
X128555236Y-106838533D01*
X128619495Y-106855751D01*
X128680117Y-106892703D01*
X128711139Y-106956564D01*
X128702710Y-107027058D01*
X128657506Y-107081805D01*
X128620132Y-107098992D01*
X128566272Y-107113726D01*
X128295436Y-107229247D01*
X128157368Y-107311879D01*
X128046465Y-107378253D01*
X128046461Y-107378256D01*
X128042783Y-107380457D01*
X127812990Y-107564556D01*
X127810046Y-107567658D01*
X127810042Y-107567662D01*
X127785116Y-107593929D01*
X127610308Y-107778138D01*
X127566688Y-107838842D01*
X127551637Y-107859787D01*
X127495643Y-107903435D01*
X127424939Y-107909881D01*
X127361975Y-107877078D01*
X127326741Y-107815442D01*
X127323646Y-107795382D01*
X127322395Y-107778138D01*
X127212535Y-106264525D01*
X127059633Y-104157872D01*
X138922029Y-104157872D01*
X138940737Y-104335863D01*
X138942777Y-104342141D01*
X138942777Y-104342142D01*
X138944150Y-104346367D01*
X138996042Y-104506075D01*
X138999345Y-104511797D01*
X138999346Y-104511798D01*
X139007883Y-104526584D01*
X139085528Y-104661069D01*
X139205283Y-104794071D01*
X139210624Y-104797951D01*
X139210629Y-104797956D01*
X139233579Y-104814629D01*
X139276934Y-104870850D01*
X139283011Y-104941586D01*
X139262733Y-104988837D01*
X139254063Y-105001219D01*
X139251740Y-105006201D01*
X139251737Y-105006206D01*
X139251621Y-105006455D01*
X139160999Y-105200796D01*
X139104004Y-105413501D01*
X139084812Y-105632872D01*
X139104004Y-105852243D01*
X139160999Y-106064948D01*
X139201303Y-106151380D01*
X139251737Y-106259538D01*
X139251740Y-106259543D01*
X139254063Y-106264525D01*
X139257219Y-106269032D01*
X139257220Y-106269034D01*
X139312834Y-106348458D01*
X139380370Y-106444910D01*
X139536081Y-106600621D01*
X139540590Y-106603778D01*
X139540592Y-106603780D01*
X139615360Y-106656133D01*
X139716465Y-106726928D01*
X139916043Y-106819992D01*
X140128748Y-106876987D01*
X140348119Y-106896179D01*
X140567490Y-106876987D01*
X140780195Y-106819992D01*
X140979773Y-106726928D01*
X141080878Y-106656133D01*
X141155646Y-106603780D01*
X141155648Y-106603778D01*
X141160157Y-106600621D01*
X141315868Y-106444910D01*
X141383405Y-106348458D01*
X141392954Y-106334820D01*
X141448411Y-106290492D01*
X141519030Y-106283183D01*
X141574838Y-106308669D01*
X141587006Y-106318395D01*
X141600453Y-106311327D01*
X142266098Y-105645683D01*
X142272475Y-105634004D01*
X143002527Y-105634004D01*
X143002658Y-105635838D01*
X143006909Y-105642452D01*
X143676510Y-106312052D01*
X143688280Y-106318479D01*
X143700295Y-106309183D01*
X143728585Y-106268779D01*
X143734065Y-106259289D01*
X143822445Y-106069759D01*
X143826191Y-106059467D01*
X143880315Y-105857471D01*
X143882218Y-105846676D01*
X143900445Y-105638347D01*
X143900445Y-105627397D01*
X143882218Y-105419068D01*
X143880315Y-105408273D01*
X143826191Y-105206277D01*
X143822445Y-105195985D01*
X143734065Y-105006455D01*
X143728585Y-104996965D01*
X143699708Y-104955723D01*
X143689232Y-104947349D01*
X143675785Y-104954417D01*
X143010140Y-105620061D01*
X143002527Y-105634004D01*
X142272475Y-105634004D01*
X142273711Y-105631740D01*
X142273580Y-105629906D01*
X142269329Y-105623292D01*
X141599728Y-104953692D01*
X141587958Y-104947265D01*
X141573412Y-104958518D01*
X141507294Y-104984381D01*
X141437689Y-104970393D01*
X141393099Y-104931131D01*
X141319031Y-104825350D01*
X141319026Y-104825344D01*
X141315868Y-104820834D01*
X141160157Y-104665123D01*
X141154368Y-104661069D01*
X141042461Y-104582711D01*
X141041101Y-104581759D01*
X141952596Y-104581759D01*
X141959664Y-104595206D01*
X142625308Y-105260851D01*
X142639251Y-105268464D01*
X142641085Y-105268333D01*
X142647699Y-105264082D01*
X143317299Y-104594481D01*
X143323726Y-104582711D01*
X143314432Y-104570697D01*
X143274031Y-104542408D01*
X143264535Y-104536925D01*
X143075006Y-104448546D01*
X143064714Y-104444800D01*
X142862718Y-104390676D01*
X142851923Y-104388773D01*
X142643594Y-104370546D01*
X142632644Y-104370546D01*
X142424315Y-104388773D01*
X142413520Y-104390676D01*
X142211524Y-104444800D01*
X142201232Y-104448546D01*
X142011702Y-104536926D01*
X142002212Y-104542406D01*
X141960970Y-104571283D01*
X141952596Y-104581759D01*
X141041101Y-104581759D01*
X140979773Y-104538816D01*
X140780195Y-104445752D01*
X140774883Y-104444329D01*
X140774873Y-104444325D01*
X140712726Y-104427672D01*
X140652103Y-104390720D01*
X140621082Y-104326859D01*
X140620028Y-104292795D01*
X140633519Y-104164437D01*
X140634209Y-104157872D01*
X140615501Y-103979881D01*
X140560196Y-103809669D01*
X140470710Y-103654675D01*
X140350955Y-103521673D01*
X140331999Y-103507900D01*
X140211506Y-103420357D01*
X140211505Y-103420356D01*
X140206164Y-103416476D01*
X140200136Y-103413792D01*
X140200134Y-103413791D01*
X140048696Y-103346367D01*
X140048695Y-103346367D01*
X140042665Y-103343682D01*
X139955135Y-103325077D01*
X139874062Y-103307844D01*
X139874058Y-103307844D01*
X139867605Y-103306472D01*
X139688633Y-103306472D01*
X139682180Y-103307844D01*
X139682176Y-103307844D01*
X139601103Y-103325077D01*
X139513573Y-103343682D01*
X139507543Y-103346367D01*
X139507542Y-103346367D01*
X139356104Y-103413791D01*
X139356102Y-103413792D01*
X139350074Y-103416476D01*
X139344733Y-103420356D01*
X139344732Y-103420357D01*
X139224240Y-103507900D01*
X139205283Y-103521673D01*
X139085528Y-103654675D01*
X138996042Y-103809669D01*
X138940737Y-103979881D01*
X138922029Y-104157872D01*
X127059633Y-104157872D01*
X126873601Y-101594759D01*
X126888619Y-101525369D01*
X126938768Y-101475114D01*
X127008126Y-101459950D01*
X127047488Y-101469229D01*
X127070374Y-101478709D01*
X127105888Y-101493419D01*
X127134030Y-101505076D01*
X127218556Y-101525369D01*
X127383057Y-101564863D01*
X127383063Y-101564864D01*
X127387870Y-101566018D01*
X127648119Y-101586500D01*
X127908368Y-101566018D01*
X127913175Y-101564864D01*
X127913181Y-101564863D01*
X128077682Y-101525369D01*
X128162208Y-101505076D01*
X128166781Y-101503182D01*
X128398816Y-101407070D01*
X128398820Y-101407068D01*
X128403390Y-101405175D01*
X128625975Y-101268775D01*
X128824482Y-101099235D01*
X128994022Y-100900728D01*
X129130422Y-100678143D01*
X129163214Y-100598978D01*
X129228429Y-100441534D01*
X129228430Y-100441532D01*
X129230323Y-100436961D01*
X129267564Y-100281843D01*
X129290110Y-100187934D01*
X129290111Y-100187928D01*
X129291265Y-100183121D01*
X129311747Y-99922872D01*
X129291265Y-99662623D01*
X129290111Y-99657816D01*
X129290110Y-99657810D01*
X129231478Y-99413595D01*
X129230323Y-99408783D01*
X129165482Y-99252243D01*
X129132317Y-99172175D01*
X129132315Y-99172171D01*
X129130422Y-99167601D01*
X128994022Y-98945016D01*
X128877163Y-98808191D01*
X128856059Y-98783481D01*
X128827028Y-98718691D01*
X128837633Y-98648491D01*
X128884508Y-98595169D01*
X128952770Y-98575654D01*
X128978712Y-98578543D01*
X129115723Y-98608416D01*
X129144769Y-98610702D01*
X129341416Y-98626179D01*
X129341423Y-98626179D01*
X129343872Y-98626372D01*
X129501240Y-98626372D01*
X129503376Y-98626226D01*
X129503387Y-98626226D01*
X129714068Y-98611863D01*
X129714074Y-98611862D01*
X129718345Y-98611571D01*
X129722540Y-98610702D01*
X129722542Y-98610702D01*
X129877833Y-98578543D01*
X130003200Y-98552581D01*
X130277414Y-98455477D01*
X130454016Y-98364326D01*
X130532105Y-98324021D01*
X130532106Y-98324021D01*
X130535912Y-98322056D01*
X130539413Y-98319595D01*
X130539417Y-98319593D01*
X130761168Y-98163743D01*
X130828402Y-98140938D01*
X130897293Y-98158103D01*
X130945967Y-98209787D01*
X130959619Y-98266830D01*
X130959619Y-99831006D01*
X130966374Y-99893188D01*
X131017504Y-100029577D01*
X131104858Y-100146133D01*
X131221414Y-100233487D01*
X131357803Y-100284617D01*
X131419985Y-100291372D01*
X131906753Y-100291372D01*
X131974874Y-100311374D01*
X132021367Y-100365030D01*
X132031471Y-100435304D01*
X132028459Y-100449984D01*
X131991429Y-100588180D01*
X131991428Y-100588189D01*
X131990004Y-100593501D01*
X131970812Y-100812872D01*
X131990004Y-101032243D01*
X132046999Y-101244948D01*
X132049324Y-101249933D01*
X132137737Y-101439538D01*
X132137740Y-101439543D01*
X132140063Y-101444525D01*
X132143219Y-101449032D01*
X132143220Y-101449034D01*
X132224325Y-101564863D01*
X132266370Y-101624910D01*
X132422081Y-101780621D01*
X132602465Y-101906928D01*
X132802043Y-101999992D01*
X133014748Y-102056987D01*
X133234119Y-102076179D01*
X133453490Y-102056987D01*
X133666195Y-101999992D01*
X133865773Y-101906928D01*
X134046157Y-101780621D01*
X134161024Y-101665754D01*
X134223336Y-101631728D01*
X134294151Y-101636793D01*
X134339214Y-101665754D01*
X134454081Y-101780621D01*
X134634465Y-101906928D01*
X134834043Y-101999992D01*
X135046748Y-102056987D01*
X135266119Y-102076179D01*
X135485490Y-102056987D01*
X135698195Y-101999992D01*
X135897773Y-101906928D01*
X136078157Y-101780621D01*
X136193024Y-101665754D01*
X136255336Y-101631728D01*
X136326151Y-101636793D01*
X136371214Y-101665754D01*
X136486081Y-101780621D01*
X136636980Y-101886282D01*
X136681307Y-101941738D01*
X136688616Y-102012357D01*
X136658346Y-102073802D01*
X136585528Y-102154675D01*
X136496042Y-102309669D01*
X136440737Y-102479881D01*
X136422029Y-102657872D01*
X136440737Y-102835863D01*
X136496042Y-103006075D01*
X136585528Y-103161069D01*
X136705283Y-103294071D01*
X136710625Y-103297952D01*
X136710627Y-103297954D01*
X136777262Y-103346367D01*
X136850074Y-103399268D01*
X136856102Y-103401952D01*
X136856104Y-103401953D01*
X137007542Y-103469377D01*
X137013573Y-103472062D01*
X137101103Y-103490667D01*
X137182176Y-103507900D01*
X137182180Y-103507900D01*
X137188633Y-103509272D01*
X137367605Y-103509272D01*
X137374058Y-103507900D01*
X137374062Y-103507900D01*
X137455135Y-103490667D01*
X137542665Y-103472062D01*
X137548696Y-103469377D01*
X137700134Y-103401953D01*
X137700136Y-103401952D01*
X137706164Y-103399268D01*
X137778976Y-103346367D01*
X137845611Y-103297954D01*
X137845613Y-103297952D01*
X137850955Y-103294071D01*
X137970710Y-103161069D01*
X138060196Y-103006075D01*
X138115501Y-102835863D01*
X138134209Y-102657872D01*
X138115501Y-102479881D01*
X138060196Y-102309669D01*
X137970710Y-102154675D01*
X137913359Y-102090980D01*
X137882644Y-102026976D01*
X137891407Y-101956523D01*
X137934726Y-101903460D01*
X138105646Y-101783780D01*
X138105648Y-101783778D01*
X138110157Y-101780621D01*
X138225024Y-101665754D01*
X138287336Y-101631728D01*
X138358151Y-101636793D01*
X138403214Y-101665754D01*
X138518081Y-101780621D01*
X138698465Y-101906928D01*
X138898043Y-101999992D01*
X139110748Y-102056987D01*
X139330119Y-102076179D01*
X139549490Y-102056987D01*
X139762195Y-101999992D01*
X139961773Y-101906928D01*
X140142157Y-101780621D01*
X140297868Y-101624910D01*
X140339914Y-101564863D01*
X140421018Y-101449034D01*
X140421019Y-101449032D01*
X140424175Y-101444525D01*
X140426498Y-101439543D01*
X140426501Y-101439538D01*
X140514914Y-101249933D01*
X140517239Y-101244948D01*
X140574234Y-101032243D01*
X140593426Y-100812872D01*
X140574234Y-100593501D01*
X140517239Y-100380796D01*
X140448548Y-100233487D01*
X140426501Y-100186206D01*
X140426498Y-100186201D01*
X140424175Y-100181219D01*
X140421018Y-100176710D01*
X140301027Y-100005345D01*
X140301025Y-100005342D01*
X140297868Y-100000834D01*
X140142157Y-99845123D01*
X140126848Y-99834403D01*
X140062878Y-99789611D01*
X139961773Y-99718816D01*
X139762195Y-99625752D01*
X139600226Y-99582352D01*
X139539604Y-99545400D01*
X139508582Y-99481539D01*
X139511131Y-99428034D01*
X139556811Y-99257556D01*
X139556812Y-99257549D01*
X139558234Y-99252243D01*
X139577426Y-99032872D01*
X139558234Y-98813501D01*
X139501239Y-98600796D01*
X139432559Y-98453511D01*
X139410501Y-98406206D01*
X139410498Y-98406201D01*
X139408175Y-98401219D01*
X139405018Y-98396710D01*
X139285027Y-98225345D01*
X139285025Y-98225342D01*
X139281868Y-98220834D01*
X139126157Y-98065123D01*
X139118760Y-98059943D01*
X139032397Y-97999471D01*
X138945773Y-97938816D01*
X138746195Y-97845752D01*
X138533490Y-97788757D01*
X138314119Y-97769565D01*
X138094748Y-97788757D01*
X137882043Y-97845752D01*
X137788681Y-97889287D01*
X137687453Y-97936490D01*
X137687448Y-97936493D01*
X137682466Y-97938816D01*
X137677959Y-97941972D01*
X137677957Y-97941973D01*
X137506592Y-98061964D01*
X137506589Y-98061966D01*
X137502081Y-98065123D01*
X137387214Y-98179990D01*
X137324902Y-98214016D01*
X137254087Y-98208951D01*
X137209024Y-98179990D01*
X137094157Y-98065123D01*
X137086760Y-98059943D01*
X137000397Y-97999471D01*
X136913773Y-97938816D01*
X136714195Y-97845752D01*
X136501490Y-97788757D01*
X136282119Y-97769565D01*
X136062748Y-97788757D01*
X135850043Y-97845752D01*
X135756681Y-97889287D01*
X135655453Y-97936490D01*
X135655448Y-97936493D01*
X135650466Y-97938816D01*
X135645959Y-97941972D01*
X135645957Y-97941973D01*
X135474592Y-98061964D01*
X135474589Y-98061966D01*
X135470081Y-98065123D01*
X135355214Y-98179990D01*
X135292902Y-98214016D01*
X135222087Y-98208951D01*
X135177024Y-98179990D01*
X135062157Y-98065123D01*
X135054760Y-98059943D01*
X134968397Y-97999471D01*
X134881773Y-97938816D01*
X134682195Y-97845752D01*
X134469490Y-97788757D01*
X134250119Y-97769565D01*
X134030748Y-97788757D01*
X133818043Y-97845752D01*
X133724681Y-97889287D01*
X133623453Y-97936490D01*
X133623448Y-97936493D01*
X133618466Y-97938816D01*
X133613959Y-97941972D01*
X133613957Y-97941973D01*
X133539558Y-97994068D01*
X133472284Y-98016756D01*
X133403423Y-97999471D01*
X133366462Y-97966421D01*
X133331380Y-97919611D01*
X133214824Y-97832257D01*
X133078435Y-97781127D01*
X133016253Y-97774372D01*
X131419985Y-97774372D01*
X131380605Y-97778650D01*
X131310724Y-97766122D01*
X131258708Y-97717802D01*
X131241073Y-97649030D01*
X131259565Y-97587552D01*
X131321015Y-97487274D01*
X131323252Y-97483624D01*
X131331988Y-97463724D01*
X131438453Y-97221187D01*
X131440178Y-97217258D01*
X131446192Y-97196148D01*
X131465901Y-97126959D01*
X131519873Y-96937488D01*
X131522405Y-96919701D01*
X131560256Y-96653742D01*
X131560861Y-96649491D01*
X131562384Y-96358595D01*
X131524414Y-96070185D01*
X131447654Y-95789596D01*
X131333523Y-95522020D01*
X131184134Y-95272410D01*
X131169456Y-95254088D01*
X131004942Y-95048741D01*
X131002252Y-95045383D01*
X130791241Y-94845141D01*
X130555006Y-94675389D01*
X130297919Y-94539269D01*
X130293896Y-94537797D01*
X130293892Y-94537795D01*
X130028768Y-94440773D01*
X130028766Y-94440772D01*
X130024737Y-94439298D01*
X129740515Y-94377328D01*
X129696717Y-94373881D01*
X129514822Y-94359565D01*
X129514815Y-94359565D01*
X129512366Y-94359372D01*
X129354998Y-94359372D01*
X129352862Y-94359518D01*
X129352851Y-94359518D01*
X129142170Y-94373881D01*
X129142164Y-94373882D01*
X129137893Y-94374173D01*
X129133698Y-94375042D01*
X129133696Y-94375042D01*
X129118249Y-94378241D01*
X128853038Y-94433163D01*
X128578824Y-94530267D01*
X128320326Y-94663688D01*
X128316825Y-94666149D01*
X128316821Y-94666151D01*
X128303677Y-94675389D01*
X128082327Y-94830957D01*
X127869231Y-95028978D01*
X127866517Y-95032294D01*
X127866514Y-95032297D01*
X127853055Y-95048741D01*
X127684980Y-95254088D01*
X127532986Y-95502120D01*
X127531267Y-95506037D01*
X127531265Y-95506040D01*
X127522516Y-95525972D01*
X127416060Y-95768486D01*
X127414884Y-95772614D01*
X127414883Y-95772617D01*
X127390337Y-95858785D01*
X127336365Y-96048256D01*
X127335761Y-96052498D01*
X127335760Y-96052504D01*
X127333244Y-96070185D01*
X127295377Y-96336253D01*
X127293854Y-96627149D01*
X127331824Y-96915559D01*
X127408584Y-97196148D01*
X127522715Y-97463724D01*
X127672104Y-97713334D01*
X127674788Y-97716685D01*
X127674790Y-97716687D01*
X127732145Y-97788278D01*
X127853986Y-97940361D01*
X127857100Y-97943316D01*
X127857110Y-97943327D01*
X127980926Y-98060823D01*
X128016571Y-98122223D01*
X128013362Y-98193147D01*
X127972318Y-98251077D01*
X127906470Y-98277621D01*
X127884308Y-98277832D01*
X127653049Y-98259632D01*
X127648119Y-98259244D01*
X127387870Y-98279726D01*
X127383063Y-98280880D01*
X127383057Y-98280881D01*
X127223050Y-98319296D01*
X127134030Y-98340668D01*
X127129459Y-98342561D01*
X127129457Y-98342562D01*
X127050665Y-98375199D01*
X126960711Y-98412459D01*
X126890123Y-98420048D01*
X126826635Y-98388269D01*
X126790408Y-98327211D01*
X126786494Y-98296028D01*
X126786498Y-98277856D01*
X126786894Y-96048256D01*
X126787292Y-93809215D01*
X126807306Y-93741097D01*
X126860970Y-93694614D01*
X126913173Y-93683237D01*
X127485806Y-93682696D01*
X144644001Y-93666471D01*
X144712139Y-93686409D01*
G37*
G04 #@! TD.AperFunction*
M02*
