G04 #@! TF.GenerationSoftware,KiCad,Pcbnew,(6.0.0)*
G04 #@! TF.CreationDate,2022-05-28T20:38:17-06:00*
G04 #@! TF.ProjectId,usb_to_serial,7573625f-746f-45f7-9365-7269616c2e6b,2*
G04 #@! TF.SameCoordinates,Original*
G04 #@! TF.FileFunction,Legend,Top*
G04 #@! TF.FilePolarity,Positive*
%FSLAX46Y46*%
G04 Gerber Fmt 4.6, Leading zero omitted, Abs format (unit mm)*
G04 Created by KiCad (PCBNEW (6.0.0)) date 2022-05-28 20:38:18*
%MOMM*%
%LPD*%
G01*
G04 APERTURE LIST*
G04 Aperture macros list*
%AMRoundRect*
0 Rectangle with rounded corners*
0 $1 Rounding radius*
0 $2 $3 $4 $5 $6 $7 $8 $9 X,Y pos of 4 corners*
0 Add a 4 corners polygon primitive as box body*
4,1,4,$2,$3,$4,$5,$6,$7,$8,$9,$2,$3,0*
0 Add four circle primitives for the rounded corners*
1,1,$1+$1,$2,$3*
1,1,$1+$1,$4,$5*
1,1,$1+$1,$6,$7*
1,1,$1+$1,$8,$9*
0 Add four rect primitives between the rounded corners*
20,1,$1+$1,$2,$3,$4,$5,0*
20,1,$1+$1,$4,$5,$6,$7,0*
20,1,$1+$1,$6,$7,$8,$9,0*
20,1,$1+$1,$8,$9,$2,$3,0*%
%AMFreePoly0*
4,1,22,0.500000,-0.750000,0.000000,-0.750000,0.000000,-0.745033,-0.079941,-0.743568,-0.215256,-0.701293,-0.333266,-0.622738,-0.424486,-0.514219,-0.481581,-0.384460,-0.499164,-0.250000,-0.500000,-0.250000,-0.500000,0.250000,-0.499164,0.250000,-0.499963,0.256109,-0.478152,0.396186,-0.417904,0.524511,-0.324060,0.630769,-0.204165,0.706417,-0.067858,0.745374,0.000000,0.744959,0.000000,0.750000,
0.500000,0.750000,0.500000,-0.750000,0.500000,-0.750000,$1*%
%AMFreePoly1*
4,1,20,0.000000,0.744959,0.073905,0.744508,0.209726,0.703889,0.328688,0.626782,0.421226,0.519385,0.479903,0.390333,0.500000,0.250000,0.500000,-0.250000,0.499851,-0.262216,0.476331,-0.402017,0.414519,-0.529596,0.319384,-0.634700,0.198574,-0.708877,0.061801,-0.746166,0.000000,-0.745033,0.000000,-0.750000,-0.500000,-0.750000,-0.500000,0.750000,0.000000,0.750000,0.000000,0.744959,
0.000000,0.744959,$1*%
G04 Aperture macros list end*
%ADD10C,0.150000*%
%ADD11C,0.120000*%
%ADD12C,0.010000*%
%ADD13RoundRect,0.237500X0.300000X0.237500X-0.300000X0.237500X-0.300000X-0.237500X0.300000X-0.237500X0*%
%ADD14C,3.250000*%
%ADD15R,1.500000X1.500000*%
%ADD16C,1.500000*%
%ADD17C,2.300000*%
%ADD18R,0.450000X1.750000*%
%ADD19O,0.990600X1.803400*%
%ADD20O,0.990600X2.108200*%
%ADD21C,0.762000*%
%ADD22R,0.584200X1.143000*%
%ADD23R,0.304800X1.143000*%
%ADD24RoundRect,0.237500X-0.237500X0.300000X-0.237500X-0.300000X0.237500X-0.300000X0.237500X0.300000X0*%
%ADD25FreePoly0,180.000000*%
%ADD26FreePoly1,180.000000*%
G04 APERTURE END LIST*
D10*
X144444785Y-94455491D02*
X145111452Y-93455491D01*
X145111452Y-94455491D02*
X144444785Y-93455491D01*
X126444785Y-94455491D02*
X127111452Y-93455491D01*
X127111452Y-94455491D02*
X126444785Y-93455491D01*
X142456690Y-118479300D02*
X142456690Y-118812633D01*
X142980499Y-118812633D02*
X141980499Y-118812633D01*
X141980499Y-118336443D01*
X141980499Y-118098348D02*
X141980499Y-117526919D01*
X142980499Y-117812633D02*
X141980499Y-117812633D01*
X142075738Y-117241205D02*
X142028119Y-117193586D01*
X141980499Y-117098348D01*
X141980499Y-116860252D01*
X142028119Y-116765014D01*
X142075738Y-116717395D01*
X142170976Y-116669776D01*
X142266214Y-116669776D01*
X142409071Y-116717395D01*
X142980499Y-117288824D01*
X142980499Y-116669776D01*
X141980499Y-116336443D02*
X141980499Y-115717395D01*
X142361452Y-116050729D01*
X142361452Y-115907872D01*
X142409071Y-115812633D01*
X142456690Y-115765014D01*
X142551928Y-115717395D01*
X142790023Y-115717395D01*
X142885261Y-115765014D01*
X142932880Y-115812633D01*
X142980499Y-115907872D01*
X142980499Y-116193586D01*
X142932880Y-116288824D01*
X142885261Y-116336443D01*
X142075738Y-115336443D02*
X142028119Y-115288824D01*
X141980499Y-115193586D01*
X141980499Y-114955491D01*
X142028119Y-114860252D01*
X142075738Y-114812633D01*
X142170976Y-114765014D01*
X142266214Y-114765014D01*
X142409071Y-114812633D01*
X142980499Y-115384062D01*
X142980499Y-114765014D01*
X142980499Y-113765014D02*
X142504309Y-114098348D01*
X142980499Y-114336443D02*
X141980499Y-114336443D01*
X141980499Y-113955491D01*
X142028119Y-113860252D01*
X142075738Y-113812633D01*
X142170976Y-113765014D01*
X142313833Y-113765014D01*
X142409071Y-113812633D01*
X142456690Y-113860252D01*
X142504309Y-113955491D01*
X142504309Y-114336443D01*
X142980499Y-112860252D02*
X142980499Y-113336443D01*
X141980499Y-113336443D01*
X144492404Y-95705491D02*
X145063833Y-95705491D01*
X144778119Y-94705491D02*
X144778119Y-95705491D01*
X127087642Y-94705491D02*
X126754309Y-95181681D01*
X126516214Y-94705491D02*
X126516214Y-95705491D01*
X126897166Y-95705491D01*
X126992404Y-95657872D01*
X127040023Y-95610252D01*
X127087642Y-95515014D01*
X127087642Y-95372157D01*
X127040023Y-95276919D01*
X126992404Y-95229300D01*
X126897166Y-95181681D01*
X126516214Y-95181681D01*
X139611452Y-110515014D02*
X139563833Y-110562633D01*
X139420976Y-110610252D01*
X139325738Y-110610252D01*
X139182880Y-110562633D01*
X139087642Y-110467395D01*
X139040023Y-110372157D01*
X138992404Y-110181681D01*
X138992404Y-110038824D01*
X139040023Y-109848348D01*
X139087642Y-109753110D01*
X139182880Y-109657872D01*
X139325738Y-109610252D01*
X139420976Y-109610252D01*
X139563833Y-109657872D01*
X139611452Y-109705491D01*
X139944785Y-109610252D02*
X140563833Y-109610252D01*
X140230499Y-109991205D01*
X140373357Y-109991205D01*
X140468595Y-110038824D01*
X140516214Y-110086443D01*
X140563833Y-110181681D01*
X140563833Y-110419776D01*
X140516214Y-110515014D01*
X140468595Y-110562633D01*
X140373357Y-110610252D01*
X140087642Y-110610252D01*
X139992404Y-110562633D01*
X139944785Y-110515014D01*
X131361452Y-122265014D02*
X131313833Y-122312633D01*
X131170976Y-122360252D01*
X131075738Y-122360252D01*
X130932880Y-122312633D01*
X130837642Y-122217395D01*
X130790023Y-122122157D01*
X130742404Y-121931681D01*
X130742404Y-121788824D01*
X130790023Y-121598348D01*
X130837642Y-121503110D01*
X130932880Y-121407872D01*
X131075738Y-121360252D01*
X131170976Y-121360252D01*
X131313833Y-121407872D01*
X131361452Y-121455491D01*
X132218595Y-121693586D02*
X132218595Y-122360252D01*
X131980499Y-121312633D02*
X131742404Y-122026919D01*
X132361452Y-122026919D01*
X135444785Y-107360252D02*
X135444785Y-108074538D01*
X135397166Y-108217395D01*
X135301928Y-108312633D01*
X135159071Y-108360252D01*
X135063833Y-108360252D01*
X135873357Y-107455491D02*
X135920976Y-107407872D01*
X136016214Y-107360252D01*
X136254309Y-107360252D01*
X136349547Y-107407872D01*
X136397166Y-107455491D01*
X136444785Y-107550729D01*
X136444785Y-107645967D01*
X136397166Y-107788824D01*
X135825738Y-108360252D01*
X136444785Y-108360252D01*
X141016214Y-111610252D02*
X141016214Y-112419776D01*
X141063833Y-112515014D01*
X141111452Y-112562633D01*
X141206690Y-112610252D01*
X141397166Y-112610252D01*
X141492404Y-112562633D01*
X141540023Y-112515014D01*
X141587642Y-112419776D01*
X141587642Y-111610252D01*
X142587642Y-112610252D02*
X142016214Y-112610252D01*
X142301928Y-112610252D02*
X142301928Y-111610252D01*
X142206690Y-111753110D01*
X142111452Y-111848348D01*
X142016214Y-111895967D01*
X129444785Y-130110252D02*
X129444785Y-130824538D01*
X129397166Y-130967395D01*
X129301928Y-131062633D01*
X129159071Y-131110252D01*
X129063833Y-131110252D01*
X130444785Y-131110252D02*
X129873357Y-131110252D01*
X130159071Y-131110252D02*
X130159071Y-130110252D01*
X130063833Y-130253110D01*
X129968595Y-130348348D01*
X129873357Y-130395967D01*
X135778119Y-128274884D02*
X135778119Y-128512980D01*
X135540023Y-128417742D02*
X135778119Y-128512980D01*
X136016214Y-128417742D01*
X135635261Y-128703456D02*
X135778119Y-128512980D01*
X135920976Y-128703456D01*
X129857142Y-120166666D02*
X129904761Y-120214285D01*
X129952380Y-120357142D01*
X129952380Y-120452380D01*
X129904761Y-120595238D01*
X129809523Y-120690476D01*
X129714285Y-120738095D01*
X129523809Y-120785714D01*
X129380952Y-120785714D01*
X129190476Y-120738095D01*
X129095238Y-120690476D01*
X129000000Y-120595238D01*
X128952380Y-120452380D01*
X128952380Y-120357142D01*
X129000000Y-120214285D01*
X129047619Y-120166666D01*
X129047619Y-119785714D02*
X129000000Y-119738095D01*
X128952380Y-119642857D01*
X128952380Y-119404761D01*
X129000000Y-119309523D01*
X129047619Y-119261904D01*
X129142857Y-119214285D01*
X129238095Y-119214285D01*
X129380952Y-119261904D01*
X129952380Y-119833333D01*
X129952380Y-119214285D01*
X134944785Y-122610252D02*
X134944785Y-123324538D01*
X134897166Y-123467395D01*
X134801928Y-123562633D01*
X134659071Y-123610252D01*
X134563833Y-123610252D01*
X135420976Y-123610252D02*
X135420976Y-122610252D01*
X135801928Y-122610252D01*
X135897166Y-122657872D01*
X135944785Y-122705491D01*
X135992404Y-122800729D01*
X135992404Y-122943586D01*
X135944785Y-123038824D01*
X135897166Y-123086443D01*
X135801928Y-123134062D01*
X135420976Y-123134062D01*
X136944785Y-123610252D02*
X136373357Y-123610252D01*
X136659071Y-123610252D02*
X136659071Y-122610252D01*
X136563833Y-122753110D01*
X136468595Y-122848348D01*
X136373357Y-122895967D01*
D11*
X137414386Y-109062504D02*
X137121852Y-109062504D01*
X137414386Y-110082504D02*
X137121852Y-110082504D01*
X134414386Y-122332504D02*
X134121852Y-122332504D01*
X134414386Y-121312504D02*
X134121852Y-121312504D01*
X126718119Y-97832872D02*
X127218119Y-98332872D01*
X127218119Y-98332872D02*
X126718119Y-98832872D01*
X127413119Y-90922872D02*
X144143119Y-90922872D01*
X127413119Y-106892872D02*
X144143119Y-106892872D01*
X126718119Y-98832872D02*
X126718119Y-97832872D01*
X127413119Y-106892872D02*
X127413119Y-101332872D01*
X127413119Y-90922872D02*
X127413119Y-98532872D01*
X144143119Y-90922872D02*
X144143119Y-98532872D01*
X144143119Y-106892872D02*
X144143119Y-101332872D01*
D10*
X140528119Y-113247504D02*
X140528119Y-111647504D01*
X141103119Y-113247504D02*
X140528119Y-113247504D01*
X141103119Y-113247504D02*
X141103119Y-118997504D01*
X130453119Y-118997504D02*
X131103119Y-118997504D01*
X130453119Y-113247504D02*
X131103119Y-113247504D01*
X141103119Y-118997504D02*
X140453119Y-118997504D01*
X130453119Y-113247504D02*
X130453119Y-118997504D01*
D12*
X143275941Y-103925694D02*
X139755148Y-103925694D01*
X139755148Y-103925694D02*
X139755148Y-103058070D01*
X139755148Y-103058070D02*
X143275941Y-103058070D01*
X143275941Y-103058070D02*
X143275941Y-103925694D01*
X143275941Y-103925694D02*
X143275941Y-103925694D01*
G36*
X143275941Y-103925694D02*
G01*
X139755148Y-103925694D01*
X139755148Y-103058070D01*
X143275941Y-103058070D01*
X143275941Y-103925694D01*
G37*
X143275941Y-103925694D02*
X139755148Y-103925694D01*
X139755148Y-103058070D01*
X143275941Y-103058070D01*
X143275941Y-103925694D01*
X143652549Y-97972720D02*
X143651930Y-98059803D01*
X143651930Y-98059803D02*
X143200205Y-98518763D01*
X143200205Y-98518763D02*
X142748480Y-98977724D01*
X142748480Y-98977724D02*
X142748151Y-99188343D01*
X142748151Y-99188343D02*
X142747822Y-99398961D01*
X142747822Y-99398961D02*
X142472729Y-99398961D01*
X142472729Y-99398961D02*
X142465641Y-99452402D01*
X142465641Y-99452402D02*
X142462957Y-99476760D01*
X142462957Y-99476760D02*
X142458432Y-99522631D01*
X142458432Y-99522631D02*
X142452310Y-99587277D01*
X142452310Y-99587277D02*
X142444831Y-99667963D01*
X142444831Y-99667963D02*
X142436238Y-99761953D01*
X142436238Y-99761953D02*
X142426773Y-99866509D01*
X142426773Y-99866509D02*
X142416677Y-99978897D01*
X142416677Y-99978897D02*
X142406193Y-100096379D01*
X142406193Y-100096379D02*
X142395563Y-100216220D01*
X142395563Y-100216220D02*
X142385028Y-100335683D01*
X142385028Y-100335683D02*
X142374832Y-100452031D01*
X142374832Y-100452031D02*
X142365214Y-100562529D01*
X142365214Y-100562529D02*
X142356419Y-100664441D01*
X142356419Y-100664441D02*
X142348687Y-100755030D01*
X142348687Y-100755030D02*
X142342261Y-100831559D01*
X142342261Y-100831559D02*
X142337382Y-100891293D01*
X142337382Y-100891293D02*
X142334294Y-100931496D01*
X142334294Y-100931496D02*
X142333236Y-100949431D01*
X142333236Y-100949431D02*
X142333237Y-100949516D01*
X142333237Y-100949516D02*
X142340946Y-100963907D01*
X142340946Y-100963907D02*
X142364100Y-100993620D01*
X142364100Y-100993620D02*
X142403014Y-101039003D01*
X142403014Y-101039003D02*
X142458003Y-101100401D01*
X142458003Y-101100401D02*
X142529383Y-101178160D01*
X142529383Y-101178160D02*
X142617468Y-101272626D01*
X142617468Y-101272626D02*
X142722573Y-101384144D01*
X142722573Y-101384144D02*
X142845014Y-101513060D01*
X142845014Y-101513060D02*
X142879429Y-101549159D01*
X142879429Y-101549159D02*
X143425256Y-102121288D01*
X143425256Y-102121288D02*
X143337000Y-102209308D01*
X143337000Y-102209308D02*
X143265604Y-102131630D01*
X143265604Y-102131630D02*
X143239485Y-102103558D01*
X143239485Y-102103558D02*
X143198685Y-102060146D01*
X143198685Y-102060146D02*
X143145896Y-102004238D01*
X143145896Y-102004238D02*
X143083810Y-101938680D01*
X143083810Y-101938680D02*
X143015119Y-101866313D01*
X143015119Y-101866313D02*
X142942515Y-101789984D01*
X142942515Y-101789984D02*
X142899079Y-101744396D01*
X142899079Y-101744396D02*
X142817535Y-101658991D01*
X142817535Y-101658991D02*
X142751623Y-101590582D01*
X142751623Y-101590582D02*
X142699663Y-101537925D01*
X142699663Y-101537925D02*
X142659974Y-101499777D01*
X142659974Y-101499777D02*
X142630876Y-101474892D01*
X142630876Y-101474892D02*
X142610688Y-101462028D01*
X142610688Y-101462028D02*
X142597729Y-101459940D01*
X142597729Y-101459940D02*
X142590319Y-101467385D01*
X142590319Y-101467385D02*
X142586777Y-101483118D01*
X142586777Y-101483118D02*
X142585422Y-101505895D01*
X142585422Y-101505895D02*
X142585240Y-101512111D01*
X142585240Y-101512111D02*
X142575822Y-101554933D01*
X142575822Y-101554933D02*
X142552616Y-101606691D01*
X142552616Y-101606691D02*
X142520255Y-101659200D01*
X142520255Y-101659200D02*
X142483371Y-101704275D01*
X142483371Y-101704275D02*
X142468612Y-101718200D01*
X142468612Y-101718200D02*
X142392886Y-101766919D01*
X142392886Y-101766919D02*
X142304427Y-101794178D01*
X142304427Y-101794178D02*
X142226219Y-101800645D01*
X142226219Y-101800645D02*
X142137587Y-101788448D01*
X142137587Y-101788448D02*
X142055731Y-101752685D01*
X142055731Y-101752685D02*
X141983283Y-101694594D01*
X141983283Y-101694594D02*
X141969916Y-101680134D01*
X141969916Y-101680134D02*
X141921037Y-101624605D01*
X141921037Y-101624605D02*
X141075445Y-101624605D01*
X141075445Y-101624605D02*
X141075445Y-101800645D01*
X141075445Y-101800645D02*
X140849109Y-101800645D01*
X140849109Y-101800645D02*
X140849109Y-101718403D01*
X140849109Y-101718403D02*
X140846269Y-101662258D01*
X140846269Y-101662258D02*
X140836726Y-101623288D01*
X140836726Y-101623288D02*
X140825128Y-101602091D01*
X140825128Y-101602091D02*
X140816842Y-101586924D01*
X140816842Y-101586924D02*
X140809746Y-101564934D01*
X140809746Y-101564934D02*
X140803371Y-101532859D01*
X140803371Y-101532859D02*
X140797247Y-101487441D01*
X140797247Y-101487441D02*
X140790903Y-101425420D01*
X140790903Y-101425420D02*
X140783869Y-101343534D01*
X140783869Y-101343534D02*
X140779053Y-101282618D01*
X140779053Y-101282618D02*
X140756958Y-100997215D01*
X140756958Y-100997215D02*
X140214554Y-101546677D01*
X140214554Y-101546677D02*
X140116482Y-101646100D01*
X140116482Y-101646100D02*
X140022335Y-101741687D01*
X140022335Y-101741687D02*
X139933834Y-101831682D01*
X139933834Y-101831682D02*
X139852699Y-101914329D01*
X139852699Y-101914329D02*
X139780650Y-101987873D01*
X139780650Y-101987873D02*
X139719407Y-102050556D01*
X139719407Y-102050556D02*
X139670692Y-102100624D01*
X139670692Y-102100624D02*
X139636223Y-102136320D01*
X139636223Y-102136320D02*
X139617740Y-102155867D01*
X139617740Y-102155867D02*
X139587376Y-102186816D01*
X139587376Y-102186816D02*
X139562048Y-102208402D01*
X139562048Y-102208402D02*
X139548424Y-102215595D01*
X139548424Y-102215595D02*
X139531024Y-102207169D01*
X139531024Y-102207169D02*
X139505659Y-102186117D01*
X139505659Y-102186117D02*
X139497061Y-102177543D01*
X139497061Y-102177543D02*
X139460605Y-102139492D01*
X139460605Y-102139492D02*
X139661317Y-101935530D01*
X139661317Y-101935530D02*
X139712523Y-101883571D01*
X139712523Y-101883571D02*
X139778550Y-101816692D01*
X139778550Y-101816692D02*
X139856501Y-101737822D01*
X139856501Y-101737822D02*
X139943481Y-101649886D01*
X139943481Y-101649886D02*
X140036593Y-101555813D01*
X140036593Y-101555813D02*
X140132940Y-101458530D01*
X140132940Y-101458530D02*
X140229627Y-101360965D01*
X140229627Y-101360965D02*
X140298985Y-101291017D01*
X140298985Y-101291017D02*
X140404416Y-101184422D01*
X140404416Y-101184422D02*
X140492990Y-101094179D01*
X140492990Y-101094179D02*
X140565838Y-101019064D01*
X140565838Y-101019064D02*
X140624096Y-100957858D01*
X140624096Y-100957858D02*
X140668894Y-100909338D01*
X140668894Y-100909338D02*
X140691098Y-100884001D01*
X140691098Y-100884001D02*
X140869395Y-100884001D01*
X140869395Y-100884001D02*
X140891718Y-101169427D01*
X140891718Y-101169427D02*
X140898450Y-101253091D01*
X140898450Y-101253091D02*
X140904962Y-101329599D01*
X140904962Y-101329599D02*
X140910885Y-101394953D01*
X140910885Y-101394953D02*
X140915851Y-101445153D01*
X140915851Y-101445153D02*
X140919490Y-101476201D01*
X140919490Y-101476201D02*
X140920661Y-101483145D01*
X140920661Y-101483145D02*
X140927281Y-101511437D01*
X140927281Y-101511437D02*
X141876755Y-101511437D01*
X141876755Y-101511437D02*
X141883093Y-101432478D01*
X141883093Y-101432478D02*
X141902229Y-101339187D01*
X141902229Y-101339187D02*
X141942273Y-101256663D01*
X141942273Y-101256663D02*
X142000701Y-101187910D01*
X142000701Y-101187910D02*
X142074990Y-101135935D01*
X142074990Y-101135935D02*
X142158371Y-101104735D01*
X142158371Y-101104735D02*
X142185421Y-101090100D01*
X142185421Y-101090100D02*
X142198963Y-101058691D01*
X142198963Y-101058691D02*
X142199247Y-101057306D01*
X142199247Y-101057306D02*
X142200872Y-101044046D01*
X142200872Y-101044046D02*
X142198863Y-101030467D01*
X142198863Y-101030467D02*
X142191261Y-101014053D01*
X142191261Y-101014053D02*
X142176103Y-100992283D01*
X142176103Y-100992283D02*
X142151431Y-100962639D01*
X142151431Y-100962639D02*
X142115283Y-100922604D01*
X142115283Y-100922604D02*
X142065699Y-100869657D01*
X142065699Y-100869657D02*
X142000718Y-100801281D01*
X142000718Y-100801281D02*
X141996520Y-100796877D01*
X141996520Y-100796877D02*
X141926626Y-100723483D01*
X141926626Y-100723483D02*
X141852319Y-100645309D01*
X141852319Y-100645309D02*
X141778705Y-100567736D01*
X141778705Y-100567736D02*
X141710890Y-100496147D01*
X141710890Y-100496147D02*
X141653979Y-100435923D01*
X141653979Y-100435923D02*
X141641287Y-100422459D01*
X141641287Y-100422459D02*
X141592632Y-100371692D01*
X141592632Y-100371692D02*
X141549410Y-100328247D01*
X141549410Y-100328247D02*
X141514724Y-100295113D01*
X141514724Y-100295113D02*
X141491675Y-100275277D01*
X141491675Y-100275277D02*
X141483937Y-100270918D01*
X141483937Y-100270918D02*
X141472397Y-100280042D01*
X141472397Y-100280042D02*
X141445409Y-100305072D01*
X141445409Y-100305072D02*
X141405098Y-100343924D01*
X141405098Y-100343924D02*
X141353590Y-100394515D01*
X141353590Y-100394515D02*
X141293010Y-100454760D01*
X141293010Y-100454760D02*
X141225483Y-100522576D01*
X141225483Y-100522576D02*
X141170293Y-100578437D01*
X141170293Y-100578437D02*
X140869395Y-100884001D01*
X140869395Y-100884001D02*
X140691098Y-100884001D01*
X140691098Y-100884001D02*
X140701368Y-100872283D01*
X140701368Y-100872283D02*
X140722648Y-100845471D01*
X140722648Y-100845471D02*
X140733868Y-100827680D01*
X140733868Y-100827680D02*
X140736365Y-100819442D01*
X140736365Y-100819442D02*
X140735419Y-100801462D01*
X140735419Y-100801462D02*
X140732546Y-100760764D01*
X140732546Y-100760764D02*
X140727932Y-100699691D01*
X140727932Y-100699691D02*
X140721761Y-100620585D01*
X140721761Y-100620585D02*
X140714221Y-100525786D01*
X140714221Y-100525786D02*
X140705498Y-100417639D01*
X140705498Y-100417639D02*
X140695776Y-100298484D01*
X140695776Y-100298484D02*
X140685243Y-100170663D01*
X140685243Y-100170663D02*
X140676754Y-100068507D01*
X140676754Y-100068507D02*
X140628723Y-99492546D01*
X140628723Y-99492546D02*
X140752314Y-99492546D01*
X140752314Y-99492546D02*
X140752846Y-99504976D01*
X140752846Y-99504976D02*
X140755350Y-99539982D01*
X140755350Y-99539982D02*
X140759623Y-99595087D01*
X140759623Y-99595087D02*
X140765466Y-99667815D01*
X140765466Y-99667815D02*
X140772676Y-99755686D01*
X140772676Y-99755686D02*
X140781053Y-99856223D01*
X140781053Y-99856223D02*
X140790396Y-99966949D01*
X140790396Y-99966949D02*
X140799361Y-100072077D01*
X140799361Y-100072077D02*
X140809517Y-100191355D01*
X140809517Y-100191355D02*
X140818977Y-100303952D01*
X140818977Y-100303952D02*
X140827523Y-100407177D01*
X140827523Y-100407177D02*
X140834940Y-100498345D01*
X140834940Y-100498345D02*
X140841011Y-100574767D01*
X140841011Y-100574767D02*
X140845518Y-100633755D01*
X140845518Y-100633755D02*
X140848246Y-100672621D01*
X140848246Y-100672621D02*
X140849003Y-100687716D01*
X140849003Y-100687716D02*
X140850184Y-100697110D01*
X140850184Y-100697110D02*
X140854863Y-100700838D01*
X140854863Y-100700838D02*
X140864843Y-100697343D01*
X140864843Y-100697343D02*
X140881929Y-100685071D01*
X140881929Y-100685071D02*
X140907923Y-100662466D01*
X140907923Y-100662466D02*
X140944629Y-100627972D01*
X140944629Y-100627972D02*
X140993852Y-100580034D01*
X140993852Y-100580034D02*
X141057393Y-100517096D01*
X141057393Y-100517096D02*
X141124814Y-100449840D01*
X141124814Y-100449840D02*
X141400518Y-100174349D01*
X141400518Y-100174349D02*
X141398586Y-100172278D01*
X141398586Y-100172278D02*
X141580829Y-100172278D01*
X141580829Y-100172278D02*
X141589135Y-100183652D01*
X141589135Y-100183652D02*
X141612386Y-100210435D01*
X141612386Y-100210435D02*
X141648254Y-100250164D01*
X141648254Y-100250164D02*
X141694406Y-100300379D01*
X141694406Y-100300379D02*
X141748513Y-100358618D01*
X141748513Y-100358618D02*
X141808245Y-100422419D01*
X141808245Y-100422419D02*
X141871271Y-100489321D01*
X141871271Y-100489321D02*
X141935261Y-100556862D01*
X141935261Y-100556862D02*
X141997883Y-100622582D01*
X141997883Y-100622582D02*
X142056809Y-100684018D01*
X142056809Y-100684018D02*
X142109707Y-100738709D01*
X142109707Y-100738709D02*
X142154247Y-100784194D01*
X142154247Y-100784194D02*
X142188099Y-100818010D01*
X142188099Y-100818010D02*
X142208931Y-100837698D01*
X142208931Y-100837698D02*
X142214613Y-100841709D01*
X142214613Y-100841709D02*
X142216485Y-100828763D01*
X142216485Y-100828763D02*
X142220373Y-100793006D01*
X142220373Y-100793006D02*
X142226062Y-100736676D01*
X142226062Y-100736676D02*
X142233338Y-100662012D01*
X142233338Y-100662012D02*
X142241988Y-100571252D01*
X142241988Y-100571252D02*
X142251797Y-100466634D01*
X142251797Y-100466634D02*
X142262553Y-100350398D01*
X142262553Y-100350398D02*
X142274040Y-100224780D01*
X142274040Y-100224780D02*
X142283212Y-100123490D01*
X142283212Y-100123490D02*
X142294945Y-99992151D01*
X142294945Y-99992151D02*
X142305784Y-99868424D01*
X142305784Y-99868424D02*
X142315549Y-99754553D01*
X142315549Y-99754553D02*
X142324056Y-99652783D01*
X142324056Y-99652783D02*
X142331124Y-99565359D01*
X142331124Y-99565359D02*
X142336570Y-99494525D01*
X142336570Y-99494525D02*
X142340211Y-99442525D01*
X142340211Y-99442525D02*
X142341866Y-99411604D01*
X142341866Y-99411604D02*
X142341677Y-99403575D01*
X142341677Y-99403575D02*
X142331785Y-99410726D01*
X142331785Y-99410726D02*
X142306595Y-99433713D01*
X142306595Y-99433713D02*
X142268309Y-99470311D01*
X142268309Y-99470311D02*
X142219130Y-99518294D01*
X142219130Y-99518294D02*
X142161258Y-99575438D01*
X142161258Y-99575438D02*
X142096897Y-99639519D01*
X142096897Y-99639519D02*
X142028248Y-99708310D01*
X142028248Y-99708310D02*
X141957514Y-99779588D01*
X141957514Y-99779588D02*
X141886897Y-99851127D01*
X141886897Y-99851127D02*
X141818599Y-99920702D01*
X141818599Y-99920702D02*
X141754823Y-99986089D01*
X141754823Y-99986089D02*
X141697769Y-100045063D01*
X141697769Y-100045063D02*
X141649641Y-100095399D01*
X141649641Y-100095399D02*
X141612641Y-100134871D01*
X141612641Y-100134871D02*
X141588971Y-100161255D01*
X141588971Y-100161255D02*
X141580829Y-100172278D01*
X141580829Y-100172278D02*
X141398586Y-100172278D01*
X141398586Y-100172278D02*
X141297710Y-100064167D01*
X141297710Y-100064167D02*
X141245351Y-100008249D01*
X141245351Y-100008249D02*
X141186584Y-99945820D01*
X141186584Y-99945820D02*
X141123734Y-99879315D01*
X141123734Y-99879315D02*
X141059124Y-99811170D01*
X141059124Y-99811170D02*
X140995077Y-99743820D01*
X140995077Y-99743820D02*
X140933916Y-99679700D01*
X140933916Y-99679700D02*
X140877966Y-99621244D01*
X140877966Y-99621244D02*
X140829549Y-99570890D01*
X140829549Y-99570890D02*
X140790989Y-99531070D01*
X140790989Y-99531070D02*
X140764610Y-99504222D01*
X140764610Y-99504222D02*
X140752735Y-99492780D01*
X140752735Y-99492780D02*
X140752314Y-99492546D01*
X140752314Y-99492546D02*
X140628723Y-99492546D01*
X140628723Y-99492546D02*
X140616718Y-99348598D01*
X140616718Y-99348598D02*
X140016181Y-98717030D01*
X140016181Y-98717030D02*
X139415644Y-98085461D01*
X139415644Y-98085461D02*
X139416085Y-97997187D01*
X139416085Y-97997187D02*
X139416527Y-97908912D01*
X139416527Y-97908912D02*
X139513536Y-98012538D01*
X139513536Y-98012538D02*
X139567828Y-98070335D01*
X139567828Y-98070335D02*
X139631927Y-98138240D01*
X139631927Y-98138240D02*
X139704103Y-98214444D01*
X139704103Y-98214444D02*
X139782627Y-98297141D01*
X139782627Y-98297141D02*
X139865770Y-98384525D01*
X139865770Y-98384525D02*
X139951800Y-98474787D01*
X139951800Y-98474787D02*
X140038989Y-98566122D01*
X140038989Y-98566122D02*
X140125606Y-98656721D01*
X140125606Y-98656721D02*
X140209922Y-98744779D01*
X140209922Y-98744779D02*
X140290207Y-98828487D01*
X140290207Y-98828487D02*
X140364732Y-98906039D01*
X140364732Y-98906039D02*
X140431765Y-98975629D01*
X140431765Y-98975629D02*
X140489578Y-99035448D01*
X140489578Y-99035448D02*
X140536440Y-99083690D01*
X140536440Y-99083690D02*
X140570623Y-99118548D01*
X140570623Y-99118548D02*
X140590395Y-99138215D01*
X140590395Y-99138215D02*
X140594729Y-99141988D01*
X140594729Y-99141988D02*
X140595027Y-99128864D01*
X140595027Y-99128864D02*
X140593388Y-99095261D01*
X140593388Y-99095261D02*
X140590096Y-99045752D01*
X140590096Y-99045752D02*
X140585437Y-98984909D01*
X140585437Y-98984909D02*
X140583437Y-98960604D01*
X140583437Y-98960604D02*
X140568542Y-98782823D01*
X140568542Y-98782823D02*
X140685164Y-98782823D01*
X140685164Y-98782823D02*
X140691185Y-98811115D01*
X140691185Y-98811115D02*
X140694256Y-98833490D01*
X140694256Y-98833490D02*
X140698571Y-98875589D01*
X140698571Y-98875589D02*
X140703631Y-98932050D01*
X140703631Y-98932050D02*
X140708938Y-98997507D01*
X140708938Y-98997507D02*
X140710775Y-99021734D01*
X140710775Y-99021734D02*
X140716192Y-99091293D01*
X140716192Y-99091293D02*
X140721660Y-99155890D01*
X140721660Y-99155890D02*
X140726631Y-99209420D01*
X140726631Y-99209420D02*
X140730558Y-99245782D01*
X140730558Y-99245782D02*
X140731444Y-99252381D01*
X140731444Y-99252381D02*
X140734785Y-99265928D01*
X140734785Y-99265928D02*
X140742018Y-99281786D01*
X140742018Y-99281786D02*
X140754679Y-99301733D01*
X140754679Y-99301733D02*
X140774308Y-99327545D01*
X140774308Y-99327545D02*
X140802441Y-99361001D01*
X140802441Y-99361001D02*
X140840617Y-99403879D01*
X140840617Y-99403879D02*
X140890373Y-99457955D01*
X140890373Y-99457955D02*
X140953248Y-99525008D01*
X140953248Y-99525008D02*
X141030778Y-99606815D01*
X141030778Y-99606815D02*
X141109868Y-99689822D01*
X141109868Y-99689822D02*
X141188555Y-99771966D01*
X141188555Y-99771966D02*
X141262007Y-99848041D01*
X141262007Y-99848041D02*
X141328395Y-99916197D01*
X141328395Y-99916197D02*
X141385892Y-99974584D01*
X141385892Y-99974584D02*
X141432668Y-100021353D01*
X141432668Y-100021353D02*
X141466895Y-100054654D01*
X141466895Y-100054654D02*
X141486746Y-100072639D01*
X141486746Y-100072639D02*
X141490979Y-100075314D01*
X141490979Y-100075314D02*
X141502116Y-100065613D01*
X141502116Y-100065613D02*
X141528148Y-100040313D01*
X141528148Y-100040313D02*
X141566549Y-100001954D01*
X141566549Y-100001954D02*
X141614791Y-99953072D01*
X141614791Y-99953072D02*
X141670349Y-99896206D01*
X141670349Y-99896206D02*
X141710527Y-99854778D01*
X141710527Y-99854778D02*
X141920288Y-99637872D01*
X141920288Y-99637872D02*
X141301782Y-99637872D01*
X141301782Y-99637872D02*
X141301782Y-99398961D01*
X141301782Y-99398961D02*
X142056238Y-99398961D01*
X142056238Y-99398961D02*
X142056238Y-99505414D01*
X142056238Y-99505414D02*
X142194554Y-99367526D01*
X142194554Y-99367526D02*
X142292672Y-99269712D01*
X142292672Y-99269712D02*
X142483762Y-99269712D01*
X142483762Y-99269712D02*
X142485590Y-99285142D01*
X142485590Y-99285142D02*
X142494842Y-99293739D01*
X142494842Y-99293739D02*
X142517169Y-99297485D01*
X142517169Y-99297485D02*
X142558224Y-99298361D01*
X142558224Y-99298361D02*
X142565495Y-99298367D01*
X142565495Y-99298367D02*
X142647228Y-99298367D01*
X142647228Y-99298367D02*
X142647228Y-99079044D01*
X142647228Y-99079044D02*
X142565495Y-99160051D01*
X142565495Y-99160051D02*
X142519389Y-99209300D01*
X142519389Y-99209300D02*
X142491813Y-99247031D01*
X142491813Y-99247031D02*
X142483762Y-99269712D01*
X142483762Y-99269712D02*
X142292672Y-99269712D01*
X142292672Y-99269712D02*
X142332871Y-99229638D01*
X142332871Y-99229638D02*
X142332871Y-99106824D01*
X142332871Y-99106824D02*
X142333256Y-99050322D01*
X142333256Y-99050322D02*
X142335019Y-99014377D01*
X142335019Y-99014377D02*
X142339069Y-98994402D01*
X142339069Y-98994402D02*
X142346318Y-98985809D01*
X142346318Y-98985809D02*
X142357249Y-98984011D01*
X142357249Y-98984011D02*
X142369407Y-98981370D01*
X142369407Y-98981370D02*
X142378392Y-98970784D01*
X142378392Y-98970784D02*
X142385293Y-98948253D01*
X142385293Y-98948253D02*
X142391195Y-98909781D01*
X142391195Y-98909781D02*
X142397184Y-98851370D01*
X142397184Y-98851370D02*
X142399106Y-98829976D01*
X142399106Y-98829976D02*
X142403267Y-98782823D01*
X142403267Y-98782823D02*
X140685164Y-98782823D01*
X140685164Y-98782823D02*
X140568542Y-98782823D01*
X140568542Y-98782823D02*
X140409010Y-98782823D01*
X140409010Y-98782823D02*
X140409010Y-98669654D01*
X140409010Y-98669654D02*
X140476805Y-98669654D01*
X140476805Y-98669654D02*
X140516457Y-98668568D01*
X140516457Y-98668568D02*
X140538003Y-98663326D01*
X140538003Y-98663326D02*
X140540639Y-98660206D01*
X140540639Y-98660206D02*
X140679503Y-98660206D01*
X140679503Y-98660206D02*
X140686811Y-98667334D01*
X140686811Y-98667334D02*
X140712126Y-98669534D01*
X140712126Y-98669534D02*
X140729211Y-98669654D01*
X140729211Y-98669654D02*
X140786238Y-98669654D01*
X140786238Y-98669654D02*
X140998898Y-98669654D01*
X140998898Y-98669654D02*
X142413421Y-98669654D01*
X142413421Y-98669654D02*
X142365577Y-98620658D01*
X142365577Y-98620658D02*
X142291269Y-98560196D01*
X142291269Y-98560196D02*
X142199303Y-98513563D01*
X142199303Y-98513563D02*
X142088121Y-98480121D01*
X142088121Y-98480121D02*
X141977648Y-98461625D01*
X141977648Y-98461625D02*
X141905346Y-98452994D01*
X141905346Y-98452994D02*
X141905346Y-98543912D01*
X141905346Y-98543912D02*
X141326931Y-98543912D01*
X141326931Y-98543912D02*
X141326931Y-98440765D01*
X141326931Y-98440765D02*
X141242054Y-98449368D01*
X141242054Y-98449368D02*
X141182751Y-98456628D01*
X141182751Y-98456628D02*
X141119568Y-98466251D01*
X141119568Y-98466251D02*
X141081733Y-98473124D01*
X141081733Y-98473124D02*
X141006287Y-98488279D01*
X141006287Y-98488279D02*
X141002593Y-98578967D01*
X141002593Y-98578967D02*
X140998898Y-98669654D01*
X140998898Y-98669654D02*
X140786238Y-98669654D01*
X140786238Y-98669654D02*
X140786238Y-98619357D01*
X140786238Y-98619357D02*
X140784575Y-98587848D01*
X140784575Y-98587848D02*
X140780422Y-98570335D01*
X140780422Y-98570335D02*
X140778748Y-98569060D01*
X140778748Y-98569060D02*
X140760132Y-98577126D01*
X140760132Y-98577126D02*
X140732936Y-98596692D01*
X140732936Y-98596692D02*
X140705671Y-98620816D01*
X140705671Y-98620816D02*
X140686852Y-98642554D01*
X140686852Y-98642554D02*
X140685176Y-98645380D01*
X140685176Y-98645380D02*
X140679503Y-98660206D01*
X140679503Y-98660206D02*
X140540639Y-98660206D01*
X140540639Y-98660206D02*
X140548457Y-98650953D01*
X140548457Y-98650953D02*
X140552677Y-98637476D01*
X140552677Y-98637476D02*
X140569900Y-98602499D01*
X140569900Y-98602499D02*
X140602981Y-98560451D01*
X140602981Y-98560451D02*
X140646226Y-98517228D01*
X140646226Y-98517228D02*
X140693945Y-98478726D01*
X140693945Y-98478726D02*
X140725289Y-98458673D01*
X140725289Y-98458673D02*
X140760996Y-98436723D01*
X140760996Y-98436723D02*
X140779300Y-98418283D01*
X140779300Y-98418283D02*
X140785731Y-98396540D01*
X140785731Y-98396540D02*
X140786225Y-98383590D01*
X140786225Y-98383590D02*
X140786225Y-98380447D01*
X140786225Y-98380447D02*
X141427525Y-98380447D01*
X141427525Y-98380447D02*
X141427525Y-98443318D01*
X141427525Y-98443318D02*
X141804752Y-98443318D01*
X141804752Y-98443318D02*
X141804752Y-98380447D01*
X141804752Y-98380447D02*
X141427525Y-98380447D01*
X141427525Y-98380447D02*
X140786225Y-98380447D01*
X140786225Y-98380447D02*
X140786238Y-98342724D01*
X140786238Y-98342724D02*
X140892071Y-98342724D01*
X140892071Y-98342724D02*
X140940764Y-98343901D01*
X140940764Y-98343901D02*
X140978714Y-98347037D01*
X140978714Y-98347037D02*
X140999811Y-98351543D01*
X140999811Y-98351543D02*
X141002096Y-98353367D01*
X141002096Y-98353367D02*
X141015478Y-98356167D01*
X141015478Y-98356167D02*
X141048045Y-98355020D01*
X141048045Y-98355020D02*
X141094203Y-98350265D01*
X141094203Y-98350265D02*
X141125743Y-98345875D01*
X141125743Y-98345875D02*
X141182931Y-98337250D01*
X141182931Y-98337250D02*
X141235233Y-98329463D01*
X141235233Y-98329463D02*
X141274537Y-98323719D01*
X141274537Y-98323719D02*
X141286064Y-98322087D01*
X141286064Y-98322087D02*
X141316182Y-98312760D01*
X141316182Y-98312760D02*
X141326931Y-98298144D01*
X141326931Y-98298144D02*
X141330199Y-98292192D01*
X141330199Y-98292192D02*
X141341889Y-98287650D01*
X141341889Y-98287650D02*
X141364831Y-98284342D01*
X141364831Y-98284342D02*
X141401854Y-98282087D01*
X141401854Y-98282087D02*
X141455787Y-98280706D01*
X141455787Y-98280706D02*
X141529459Y-98280022D01*
X141529459Y-98280022D02*
X141616139Y-98279852D01*
X141616139Y-98279852D02*
X141708648Y-98279949D01*
X141708648Y-98279949D02*
X141779025Y-98280402D01*
X141779025Y-98280402D02*
X141830283Y-98281462D01*
X141830283Y-98281462D02*
X141865439Y-98283375D01*
X141865439Y-98283375D02*
X141887508Y-98286391D01*
X141887508Y-98286391D02*
X141899504Y-98290757D01*
X141899504Y-98290757D02*
X141904443Y-98296721D01*
X141904443Y-98296721D02*
X141905346Y-98303656D01*
X141905346Y-98303656D02*
X141913040Y-98325667D01*
X141913040Y-98325667D02*
X141938240Y-98338193D01*
X141938240Y-98338193D02*
X141984128Y-98342660D01*
X141984128Y-98342660D02*
X141992383Y-98342724D01*
X141992383Y-98342724D02*
X142070092Y-98350740D01*
X142070092Y-98350740D02*
X142158352Y-98372808D01*
X142158352Y-98372808D02*
X142249204Y-98405956D01*
X142249204Y-98405956D02*
X142334689Y-98447211D01*
X142334689Y-98447211D02*
X142406845Y-98493603D01*
X142406845Y-98493603D02*
X142416191Y-98500954D01*
X142416191Y-98500954D02*
X142446652Y-98524870D01*
X142446652Y-98524870D02*
X142464691Y-98534448D01*
X142464691Y-98534448D02*
X142477288Y-98531352D01*
X142477288Y-98531352D02*
X142490219Y-98518576D01*
X142490219Y-98518576D02*
X142528412Y-98493550D01*
X142528412Y-98493550D02*
X142578117Y-98483943D01*
X142578117Y-98483943D02*
X142631643Y-98488939D01*
X142631643Y-98488939D02*
X142681297Y-98507723D01*
X142681297Y-98507723D02*
X142719386Y-98539478D01*
X142719386Y-98539478D02*
X142722144Y-98543169D01*
X142722144Y-98543169D02*
X142750645Y-98602447D01*
X142750645Y-98602447D02*
X142755947Y-98663806D01*
X142755947Y-98663806D02*
X142738637Y-98722299D01*
X142738637Y-98722299D02*
X142699299Y-98772976D01*
X142699299Y-98772976D02*
X142694489Y-98777161D01*
X142694489Y-98777161D02*
X142666559Y-98797039D01*
X142666559Y-98797039D02*
X142638221Y-98805793D01*
X142638221Y-98805793D02*
X142598382Y-98806425D01*
X142598382Y-98806425D02*
X142588430Y-98805864D01*
X142588430Y-98805864D02*
X142549451Y-98804434D01*
X142549451Y-98804434D02*
X142529373Y-98807711D01*
X142529373Y-98807711D02*
X142522104Y-98817600D01*
X142522104Y-98817600D02*
X142521359Y-98826833D01*
X142521359Y-98826833D02*
X142519835Y-98853616D01*
X142519835Y-98853616D02*
X142516054Y-98893897D01*
X142516054Y-98893897D02*
X142513337Y-98917996D01*
X142513337Y-98917996D02*
X142509396Y-98956273D01*
X142509396Y-98956273D02*
X142511035Y-98975868D01*
X142511035Y-98975868D02*
X142520540Y-98983030D01*
X142520540Y-98983030D02*
X142537470Y-98984011D01*
X142537470Y-98984011D02*
X142547511Y-98980773D01*
X142547511Y-98980773D02*
X142563709Y-98970292D01*
X142563709Y-98970292D02*
X142587264Y-98951420D01*
X142587264Y-98951420D02*
X142619376Y-98923007D01*
X142619376Y-98923007D02*
X142661247Y-98883907D01*
X142661247Y-98883907D02*
X142714076Y-98832969D01*
X142714076Y-98832969D02*
X142779064Y-98769045D01*
X142779064Y-98769045D02*
X142857410Y-98690986D01*
X142857410Y-98690986D02*
X142950316Y-98597644D01*
X142950316Y-98597644D02*
X143058982Y-98487870D01*
X143058982Y-98487870D02*
X143111350Y-98434824D01*
X143111350Y-98434824D02*
X143653168Y-97885639D01*
X143653168Y-97885639D02*
X143652549Y-97972720D01*
X143652549Y-97972720D02*
X143652549Y-97972720D01*
G36*
X140722648Y-100845471D02*
G01*
X140733868Y-100827680D01*
X140736365Y-100819442D01*
X140735419Y-100801462D01*
X140732546Y-100760764D01*
X140727932Y-100699691D01*
X140721761Y-100620585D01*
X140714221Y-100525786D01*
X140705498Y-100417639D01*
X140695776Y-100298484D01*
X140685243Y-100170663D01*
X140676754Y-100068507D01*
X140628723Y-99492546D01*
X140752314Y-99492546D01*
X140752846Y-99504976D01*
X140755350Y-99539982D01*
X140759623Y-99595087D01*
X140765466Y-99667815D01*
X140772676Y-99755686D01*
X140781053Y-99856223D01*
X140790396Y-99966949D01*
X140799361Y-100072077D01*
X140809517Y-100191355D01*
X140818977Y-100303952D01*
X140827523Y-100407177D01*
X140834940Y-100498345D01*
X140841011Y-100574767D01*
X140845518Y-100633755D01*
X140848246Y-100672621D01*
X140849003Y-100687716D01*
X140850184Y-100697110D01*
X140854863Y-100700838D01*
X140864843Y-100697343D01*
X140881929Y-100685071D01*
X140907923Y-100662466D01*
X140944629Y-100627972D01*
X140993852Y-100580034D01*
X141057393Y-100517096D01*
X141124814Y-100449840D01*
X141400518Y-100174349D01*
X141398586Y-100172278D01*
X141580829Y-100172278D01*
X141589135Y-100183652D01*
X141612386Y-100210435D01*
X141648254Y-100250164D01*
X141694406Y-100300379D01*
X141748513Y-100358618D01*
X141808245Y-100422419D01*
X141871271Y-100489321D01*
X141935261Y-100556862D01*
X141997883Y-100622582D01*
X142056809Y-100684018D01*
X142109707Y-100738709D01*
X142154247Y-100784194D01*
X142188099Y-100818010D01*
X142208931Y-100837698D01*
X142214613Y-100841709D01*
X142216485Y-100828763D01*
X142220373Y-100793006D01*
X142226062Y-100736676D01*
X142233338Y-100662012D01*
X142241988Y-100571252D01*
X142251797Y-100466634D01*
X142262553Y-100350398D01*
X142274040Y-100224780D01*
X142283212Y-100123490D01*
X142294945Y-99992151D01*
X142305784Y-99868424D01*
X142315549Y-99754553D01*
X142324056Y-99652783D01*
X142331124Y-99565359D01*
X142336570Y-99494525D01*
X142340211Y-99442525D01*
X142341866Y-99411604D01*
X142341677Y-99403575D01*
X142331785Y-99410726D01*
X142306595Y-99433713D01*
X142268309Y-99470311D01*
X142219130Y-99518294D01*
X142161258Y-99575438D01*
X142096897Y-99639519D01*
X142028248Y-99708310D01*
X141957514Y-99779588D01*
X141886897Y-99851127D01*
X141818599Y-99920702D01*
X141754823Y-99986089D01*
X141697769Y-100045063D01*
X141649641Y-100095399D01*
X141612641Y-100134871D01*
X141588971Y-100161255D01*
X141580829Y-100172278D01*
X141398586Y-100172278D01*
X141297710Y-100064167D01*
X141245351Y-100008249D01*
X141186584Y-99945820D01*
X141123734Y-99879315D01*
X141059124Y-99811170D01*
X140995077Y-99743820D01*
X140933916Y-99679700D01*
X140877966Y-99621244D01*
X140829549Y-99570890D01*
X140790989Y-99531070D01*
X140764610Y-99504222D01*
X140752735Y-99492780D01*
X140752314Y-99492546D01*
X140628723Y-99492546D01*
X140616718Y-99348598D01*
X140016181Y-98717030D01*
X139415644Y-98085461D01*
X139416085Y-97997187D01*
X139416527Y-97908912D01*
X139513536Y-98012538D01*
X139567828Y-98070335D01*
X139631927Y-98138240D01*
X139704103Y-98214444D01*
X139782627Y-98297141D01*
X139865770Y-98384525D01*
X139951800Y-98474787D01*
X140038989Y-98566122D01*
X140125606Y-98656721D01*
X140209922Y-98744779D01*
X140290207Y-98828487D01*
X140364732Y-98906039D01*
X140431765Y-98975629D01*
X140489578Y-99035448D01*
X140536440Y-99083690D01*
X140570623Y-99118548D01*
X140590395Y-99138215D01*
X140594729Y-99141988D01*
X140595027Y-99128864D01*
X140593388Y-99095261D01*
X140590096Y-99045752D01*
X140585437Y-98984909D01*
X140583437Y-98960604D01*
X140568542Y-98782823D01*
X140685164Y-98782823D01*
X140691185Y-98811115D01*
X140694256Y-98833490D01*
X140698571Y-98875589D01*
X140703631Y-98932050D01*
X140708938Y-98997507D01*
X140710775Y-99021734D01*
X140716192Y-99091293D01*
X140721660Y-99155890D01*
X140726631Y-99209420D01*
X140730558Y-99245782D01*
X140731444Y-99252381D01*
X140734785Y-99265928D01*
X140742018Y-99281786D01*
X140754679Y-99301733D01*
X140774308Y-99327545D01*
X140802441Y-99361001D01*
X140840617Y-99403879D01*
X140890373Y-99457955D01*
X140953248Y-99525008D01*
X141030778Y-99606815D01*
X141109868Y-99689822D01*
X141188555Y-99771966D01*
X141262007Y-99848041D01*
X141328395Y-99916197D01*
X141385892Y-99974584D01*
X141432668Y-100021353D01*
X141466895Y-100054654D01*
X141486746Y-100072639D01*
X141490979Y-100075314D01*
X141502116Y-100065613D01*
X141528148Y-100040313D01*
X141566549Y-100001954D01*
X141614791Y-99953072D01*
X141670349Y-99896206D01*
X141710527Y-99854778D01*
X141920288Y-99637872D01*
X141301782Y-99637872D01*
X141301782Y-99398961D01*
X142056238Y-99398961D01*
X142056238Y-99505414D01*
X142194554Y-99367526D01*
X142292672Y-99269712D01*
X142483762Y-99269712D01*
X142485590Y-99285142D01*
X142494842Y-99293739D01*
X142517169Y-99297485D01*
X142558224Y-99298361D01*
X142565495Y-99298367D01*
X142647228Y-99298367D01*
X142647228Y-99079044D01*
X142565495Y-99160051D01*
X142519389Y-99209300D01*
X142491813Y-99247031D01*
X142483762Y-99269712D01*
X142292672Y-99269712D01*
X142332871Y-99229638D01*
X142332871Y-99106824D01*
X142333256Y-99050322D01*
X142335019Y-99014377D01*
X142339069Y-98994402D01*
X142346318Y-98985809D01*
X142357249Y-98984011D01*
X142369407Y-98981370D01*
X142378392Y-98970784D01*
X142385293Y-98948253D01*
X142391195Y-98909781D01*
X142397184Y-98851370D01*
X142399106Y-98829976D01*
X142403267Y-98782823D01*
X140685164Y-98782823D01*
X140568542Y-98782823D01*
X140409010Y-98782823D01*
X140409010Y-98669654D01*
X140476805Y-98669654D01*
X140516457Y-98668568D01*
X140538003Y-98663326D01*
X140540639Y-98660206D01*
X140679503Y-98660206D01*
X140686811Y-98667334D01*
X140712126Y-98669534D01*
X140729211Y-98669654D01*
X140786238Y-98669654D01*
X140998898Y-98669654D01*
X142413421Y-98669654D01*
X142365577Y-98620658D01*
X142291269Y-98560196D01*
X142199303Y-98513563D01*
X142088121Y-98480121D01*
X141977648Y-98461625D01*
X141905346Y-98452994D01*
X141905346Y-98543912D01*
X141326931Y-98543912D01*
X141326931Y-98443318D01*
X141427525Y-98443318D01*
X141804752Y-98443318D01*
X141804752Y-98380447D01*
X141427525Y-98380447D01*
X141427525Y-98443318D01*
X141326931Y-98443318D01*
X141326931Y-98440765D01*
X141242054Y-98449368D01*
X141182751Y-98456628D01*
X141119568Y-98466251D01*
X141081733Y-98473124D01*
X141006287Y-98488279D01*
X141002593Y-98578967D01*
X140998898Y-98669654D01*
X140786238Y-98669654D01*
X140786238Y-98619357D01*
X140784575Y-98587848D01*
X140780422Y-98570335D01*
X140778748Y-98569060D01*
X140760132Y-98577126D01*
X140732936Y-98596692D01*
X140705671Y-98620816D01*
X140686852Y-98642554D01*
X140685176Y-98645380D01*
X140679503Y-98660206D01*
X140540639Y-98660206D01*
X140548457Y-98650953D01*
X140552677Y-98637476D01*
X140569900Y-98602499D01*
X140602981Y-98560451D01*
X140646226Y-98517228D01*
X140693945Y-98478726D01*
X140725289Y-98458673D01*
X140760996Y-98436723D01*
X140779300Y-98418283D01*
X140785731Y-98396540D01*
X140786225Y-98383590D01*
X140786225Y-98380447D01*
X140786238Y-98342724D01*
X140892071Y-98342724D01*
X140940764Y-98343901D01*
X140978714Y-98347037D01*
X140999811Y-98351543D01*
X141002096Y-98353367D01*
X141015478Y-98356167D01*
X141048045Y-98355020D01*
X141094203Y-98350265D01*
X141125743Y-98345875D01*
X141182931Y-98337250D01*
X141235233Y-98329463D01*
X141274537Y-98323719D01*
X141286064Y-98322087D01*
X141316182Y-98312760D01*
X141326931Y-98298144D01*
X141330199Y-98292192D01*
X141341889Y-98287650D01*
X141364831Y-98284342D01*
X141401854Y-98282087D01*
X141455787Y-98280706D01*
X141529459Y-98280022D01*
X141616139Y-98279852D01*
X141708648Y-98279949D01*
X141779025Y-98280402D01*
X141830283Y-98281462D01*
X141865439Y-98283375D01*
X141887508Y-98286391D01*
X141899504Y-98290757D01*
X141904443Y-98296721D01*
X141905346Y-98303656D01*
X141913040Y-98325667D01*
X141938240Y-98338193D01*
X141984128Y-98342660D01*
X141992383Y-98342724D01*
X142070092Y-98350740D01*
X142158352Y-98372808D01*
X142249204Y-98405956D01*
X142334689Y-98447211D01*
X142406845Y-98493603D01*
X142416191Y-98500954D01*
X142446652Y-98524870D01*
X142464691Y-98534448D01*
X142477288Y-98531352D01*
X142490219Y-98518576D01*
X142528412Y-98493550D01*
X142578117Y-98483943D01*
X142631643Y-98488939D01*
X142681297Y-98507723D01*
X142719386Y-98539478D01*
X142722144Y-98543169D01*
X142750645Y-98602447D01*
X142755947Y-98663806D01*
X142738637Y-98722299D01*
X142699299Y-98772976D01*
X142694489Y-98777161D01*
X142666559Y-98797039D01*
X142638221Y-98805793D01*
X142598382Y-98806425D01*
X142588430Y-98805864D01*
X142549451Y-98804434D01*
X142529373Y-98807711D01*
X142522104Y-98817600D01*
X142521359Y-98826833D01*
X142519835Y-98853616D01*
X142516054Y-98893897D01*
X142513337Y-98917996D01*
X142509396Y-98956273D01*
X142511035Y-98975868D01*
X142520540Y-98983030D01*
X142537470Y-98984011D01*
X142547511Y-98980773D01*
X142563709Y-98970292D01*
X142587264Y-98951420D01*
X142619376Y-98923007D01*
X142661247Y-98883907D01*
X142714076Y-98832969D01*
X142779064Y-98769045D01*
X142857410Y-98690986D01*
X142950316Y-98597644D01*
X143058982Y-98487870D01*
X143111350Y-98434824D01*
X143653168Y-97885639D01*
X143652549Y-97972720D01*
X143651930Y-98059803D01*
X143200205Y-98518763D01*
X142748480Y-98977724D01*
X142748151Y-99188343D01*
X142747822Y-99398961D01*
X142472729Y-99398961D01*
X142465641Y-99452402D01*
X142462957Y-99476760D01*
X142458432Y-99522631D01*
X142452310Y-99587277D01*
X142444831Y-99667963D01*
X142436238Y-99761953D01*
X142426773Y-99866509D01*
X142416677Y-99978897D01*
X142406193Y-100096379D01*
X142395563Y-100216220D01*
X142385028Y-100335683D01*
X142374832Y-100452031D01*
X142365214Y-100562529D01*
X142356419Y-100664441D01*
X142348687Y-100755030D01*
X142342261Y-100831559D01*
X142337382Y-100891293D01*
X142334294Y-100931496D01*
X142333236Y-100949431D01*
X142333237Y-100949516D01*
X142340946Y-100963907D01*
X142364100Y-100993620D01*
X142403014Y-101039003D01*
X142458003Y-101100401D01*
X142529383Y-101178160D01*
X142617468Y-101272626D01*
X142722573Y-101384144D01*
X142845014Y-101513060D01*
X142879429Y-101549159D01*
X143425256Y-102121288D01*
X143337000Y-102209308D01*
X143265604Y-102131630D01*
X143239485Y-102103558D01*
X143198685Y-102060146D01*
X143145896Y-102004238D01*
X143083810Y-101938680D01*
X143015119Y-101866313D01*
X142942515Y-101789984D01*
X142899079Y-101744396D01*
X142817535Y-101658991D01*
X142751623Y-101590582D01*
X142699663Y-101537925D01*
X142659974Y-101499777D01*
X142630876Y-101474892D01*
X142610688Y-101462028D01*
X142597729Y-101459940D01*
X142590319Y-101467385D01*
X142586777Y-101483118D01*
X142585422Y-101505895D01*
X142585240Y-101512111D01*
X142575822Y-101554933D01*
X142552616Y-101606691D01*
X142520255Y-101659200D01*
X142483371Y-101704275D01*
X142468612Y-101718200D01*
X142392886Y-101766919D01*
X142304427Y-101794178D01*
X142226219Y-101800645D01*
X142137587Y-101788448D01*
X142055731Y-101752685D01*
X141983283Y-101694594D01*
X141969916Y-101680134D01*
X141921037Y-101624605D01*
X141075445Y-101624605D01*
X141075445Y-101800645D01*
X140849109Y-101800645D01*
X140849109Y-101718403D01*
X140846269Y-101662258D01*
X140836726Y-101623288D01*
X140825128Y-101602091D01*
X140816842Y-101586924D01*
X140809746Y-101564934D01*
X140803371Y-101532859D01*
X140797247Y-101487441D01*
X140790903Y-101425420D01*
X140783869Y-101343534D01*
X140779053Y-101282618D01*
X140756958Y-100997215D01*
X140214554Y-101546677D01*
X140116482Y-101646100D01*
X140022335Y-101741687D01*
X139933834Y-101831682D01*
X139852699Y-101914329D01*
X139780650Y-101987873D01*
X139719407Y-102050556D01*
X139670692Y-102100624D01*
X139636223Y-102136320D01*
X139617740Y-102155867D01*
X139587376Y-102186816D01*
X139562048Y-102208402D01*
X139548424Y-102215595D01*
X139531024Y-102207169D01*
X139505659Y-102186117D01*
X139497061Y-102177543D01*
X139460605Y-102139492D01*
X139661317Y-101935530D01*
X139712523Y-101883571D01*
X139778550Y-101816692D01*
X139856501Y-101737822D01*
X139943481Y-101649886D01*
X140036593Y-101555813D01*
X140132940Y-101458530D01*
X140229627Y-101360965D01*
X140298985Y-101291017D01*
X140404416Y-101184422D01*
X140492990Y-101094179D01*
X140565838Y-101019064D01*
X140624096Y-100957858D01*
X140668894Y-100909338D01*
X140691098Y-100884001D01*
X140869395Y-100884001D01*
X140891718Y-101169427D01*
X140898450Y-101253091D01*
X140904962Y-101329599D01*
X140910885Y-101394953D01*
X140915851Y-101445153D01*
X140919490Y-101476201D01*
X140920661Y-101483145D01*
X140927281Y-101511437D01*
X141876755Y-101511437D01*
X141883093Y-101432478D01*
X141902229Y-101339187D01*
X141942273Y-101256663D01*
X142000701Y-101187910D01*
X142074990Y-101135935D01*
X142158371Y-101104735D01*
X142185421Y-101090100D01*
X142198963Y-101058691D01*
X142199247Y-101057306D01*
X142200872Y-101044046D01*
X142198863Y-101030467D01*
X142191261Y-101014053D01*
X142176103Y-100992283D01*
X142151431Y-100962639D01*
X142115283Y-100922604D01*
X142065699Y-100869657D01*
X142000718Y-100801281D01*
X141996520Y-100796877D01*
X141926626Y-100723483D01*
X141852319Y-100645309D01*
X141778705Y-100567736D01*
X141710890Y-100496147D01*
X141653979Y-100435923D01*
X141641287Y-100422459D01*
X141592632Y-100371692D01*
X141549410Y-100328247D01*
X141514724Y-100295113D01*
X141491675Y-100275277D01*
X141483937Y-100270918D01*
X141472397Y-100280042D01*
X141445409Y-100305072D01*
X141405098Y-100343924D01*
X141353590Y-100394515D01*
X141293010Y-100454760D01*
X141225483Y-100522576D01*
X141170293Y-100578437D01*
X140869395Y-100884001D01*
X140691098Y-100884001D01*
X140701368Y-100872283D01*
X140722648Y-100845471D01*
G37*
X140722648Y-100845471D02*
X140733868Y-100827680D01*
X140736365Y-100819442D01*
X140735419Y-100801462D01*
X140732546Y-100760764D01*
X140727932Y-100699691D01*
X140721761Y-100620585D01*
X140714221Y-100525786D01*
X140705498Y-100417639D01*
X140695776Y-100298484D01*
X140685243Y-100170663D01*
X140676754Y-100068507D01*
X140628723Y-99492546D01*
X140752314Y-99492546D01*
X140752846Y-99504976D01*
X140755350Y-99539982D01*
X140759623Y-99595087D01*
X140765466Y-99667815D01*
X140772676Y-99755686D01*
X140781053Y-99856223D01*
X140790396Y-99966949D01*
X140799361Y-100072077D01*
X140809517Y-100191355D01*
X140818977Y-100303952D01*
X140827523Y-100407177D01*
X140834940Y-100498345D01*
X140841011Y-100574767D01*
X140845518Y-100633755D01*
X140848246Y-100672621D01*
X140849003Y-100687716D01*
X140850184Y-100697110D01*
X140854863Y-100700838D01*
X140864843Y-100697343D01*
X140881929Y-100685071D01*
X140907923Y-100662466D01*
X140944629Y-100627972D01*
X140993852Y-100580034D01*
X141057393Y-100517096D01*
X141124814Y-100449840D01*
X141400518Y-100174349D01*
X141398586Y-100172278D01*
X141580829Y-100172278D01*
X141589135Y-100183652D01*
X141612386Y-100210435D01*
X141648254Y-100250164D01*
X141694406Y-100300379D01*
X141748513Y-100358618D01*
X141808245Y-100422419D01*
X141871271Y-100489321D01*
X141935261Y-100556862D01*
X141997883Y-100622582D01*
X142056809Y-100684018D01*
X142109707Y-100738709D01*
X142154247Y-100784194D01*
X142188099Y-100818010D01*
X142208931Y-100837698D01*
X142214613Y-100841709D01*
X142216485Y-100828763D01*
X142220373Y-100793006D01*
X142226062Y-100736676D01*
X142233338Y-100662012D01*
X142241988Y-100571252D01*
X142251797Y-100466634D01*
X142262553Y-100350398D01*
X142274040Y-100224780D01*
X142283212Y-100123490D01*
X142294945Y-99992151D01*
X142305784Y-99868424D01*
X142315549Y-99754553D01*
X142324056Y-99652783D01*
X142331124Y-99565359D01*
X142336570Y-99494525D01*
X142340211Y-99442525D01*
X142341866Y-99411604D01*
X142341677Y-99403575D01*
X142331785Y-99410726D01*
X142306595Y-99433713D01*
X142268309Y-99470311D01*
X142219130Y-99518294D01*
X142161258Y-99575438D01*
X142096897Y-99639519D01*
X142028248Y-99708310D01*
X141957514Y-99779588D01*
X141886897Y-99851127D01*
X141818599Y-99920702D01*
X141754823Y-99986089D01*
X141697769Y-100045063D01*
X141649641Y-100095399D01*
X141612641Y-100134871D01*
X141588971Y-100161255D01*
X141580829Y-100172278D01*
X141398586Y-100172278D01*
X141297710Y-100064167D01*
X141245351Y-100008249D01*
X141186584Y-99945820D01*
X141123734Y-99879315D01*
X141059124Y-99811170D01*
X140995077Y-99743820D01*
X140933916Y-99679700D01*
X140877966Y-99621244D01*
X140829549Y-99570890D01*
X140790989Y-99531070D01*
X140764610Y-99504222D01*
X140752735Y-99492780D01*
X140752314Y-99492546D01*
X140628723Y-99492546D01*
X140616718Y-99348598D01*
X140016181Y-98717030D01*
X139415644Y-98085461D01*
X139416085Y-97997187D01*
X139416527Y-97908912D01*
X139513536Y-98012538D01*
X139567828Y-98070335D01*
X139631927Y-98138240D01*
X139704103Y-98214444D01*
X139782627Y-98297141D01*
X139865770Y-98384525D01*
X139951800Y-98474787D01*
X140038989Y-98566122D01*
X140125606Y-98656721D01*
X140209922Y-98744779D01*
X140290207Y-98828487D01*
X140364732Y-98906039D01*
X140431765Y-98975629D01*
X140489578Y-99035448D01*
X140536440Y-99083690D01*
X140570623Y-99118548D01*
X140590395Y-99138215D01*
X140594729Y-99141988D01*
X140595027Y-99128864D01*
X140593388Y-99095261D01*
X140590096Y-99045752D01*
X140585437Y-98984909D01*
X140583437Y-98960604D01*
X140568542Y-98782823D01*
X140685164Y-98782823D01*
X140691185Y-98811115D01*
X140694256Y-98833490D01*
X140698571Y-98875589D01*
X140703631Y-98932050D01*
X140708938Y-98997507D01*
X140710775Y-99021734D01*
X140716192Y-99091293D01*
X140721660Y-99155890D01*
X140726631Y-99209420D01*
X140730558Y-99245782D01*
X140731444Y-99252381D01*
X140734785Y-99265928D01*
X140742018Y-99281786D01*
X140754679Y-99301733D01*
X140774308Y-99327545D01*
X140802441Y-99361001D01*
X140840617Y-99403879D01*
X140890373Y-99457955D01*
X140953248Y-99525008D01*
X141030778Y-99606815D01*
X141109868Y-99689822D01*
X141188555Y-99771966D01*
X141262007Y-99848041D01*
X141328395Y-99916197D01*
X141385892Y-99974584D01*
X141432668Y-100021353D01*
X141466895Y-100054654D01*
X141486746Y-100072639D01*
X141490979Y-100075314D01*
X141502116Y-100065613D01*
X141528148Y-100040313D01*
X141566549Y-100001954D01*
X141614791Y-99953072D01*
X141670349Y-99896206D01*
X141710527Y-99854778D01*
X141920288Y-99637872D01*
X141301782Y-99637872D01*
X141301782Y-99398961D01*
X142056238Y-99398961D01*
X142056238Y-99505414D01*
X142194554Y-99367526D01*
X142292672Y-99269712D01*
X142483762Y-99269712D01*
X142485590Y-99285142D01*
X142494842Y-99293739D01*
X142517169Y-99297485D01*
X142558224Y-99298361D01*
X142565495Y-99298367D01*
X142647228Y-99298367D01*
X142647228Y-99079044D01*
X142565495Y-99160051D01*
X142519389Y-99209300D01*
X142491813Y-99247031D01*
X142483762Y-99269712D01*
X142292672Y-99269712D01*
X142332871Y-99229638D01*
X142332871Y-99106824D01*
X142333256Y-99050322D01*
X142335019Y-99014377D01*
X142339069Y-98994402D01*
X142346318Y-98985809D01*
X142357249Y-98984011D01*
X142369407Y-98981370D01*
X142378392Y-98970784D01*
X142385293Y-98948253D01*
X142391195Y-98909781D01*
X142397184Y-98851370D01*
X142399106Y-98829976D01*
X142403267Y-98782823D01*
X140685164Y-98782823D01*
X140568542Y-98782823D01*
X140409010Y-98782823D01*
X140409010Y-98669654D01*
X140476805Y-98669654D01*
X140516457Y-98668568D01*
X140538003Y-98663326D01*
X140540639Y-98660206D01*
X140679503Y-98660206D01*
X140686811Y-98667334D01*
X140712126Y-98669534D01*
X140729211Y-98669654D01*
X140786238Y-98669654D01*
X140998898Y-98669654D01*
X142413421Y-98669654D01*
X142365577Y-98620658D01*
X142291269Y-98560196D01*
X142199303Y-98513563D01*
X142088121Y-98480121D01*
X141977648Y-98461625D01*
X141905346Y-98452994D01*
X141905346Y-98543912D01*
X141326931Y-98543912D01*
X141326931Y-98443318D01*
X141427525Y-98443318D01*
X141804752Y-98443318D01*
X141804752Y-98380447D01*
X141427525Y-98380447D01*
X141427525Y-98443318D01*
X141326931Y-98443318D01*
X141326931Y-98440765D01*
X141242054Y-98449368D01*
X141182751Y-98456628D01*
X141119568Y-98466251D01*
X141081733Y-98473124D01*
X141006287Y-98488279D01*
X141002593Y-98578967D01*
X140998898Y-98669654D01*
X140786238Y-98669654D01*
X140786238Y-98619357D01*
X140784575Y-98587848D01*
X140780422Y-98570335D01*
X140778748Y-98569060D01*
X140760132Y-98577126D01*
X140732936Y-98596692D01*
X140705671Y-98620816D01*
X140686852Y-98642554D01*
X140685176Y-98645380D01*
X140679503Y-98660206D01*
X140540639Y-98660206D01*
X140548457Y-98650953D01*
X140552677Y-98637476D01*
X140569900Y-98602499D01*
X140602981Y-98560451D01*
X140646226Y-98517228D01*
X140693945Y-98478726D01*
X140725289Y-98458673D01*
X140760996Y-98436723D01*
X140779300Y-98418283D01*
X140785731Y-98396540D01*
X140786225Y-98383590D01*
X140786225Y-98380447D01*
X140786238Y-98342724D01*
X140892071Y-98342724D01*
X140940764Y-98343901D01*
X140978714Y-98347037D01*
X140999811Y-98351543D01*
X141002096Y-98353367D01*
X141015478Y-98356167D01*
X141048045Y-98355020D01*
X141094203Y-98350265D01*
X141125743Y-98345875D01*
X141182931Y-98337250D01*
X141235233Y-98329463D01*
X141274537Y-98323719D01*
X141286064Y-98322087D01*
X141316182Y-98312760D01*
X141326931Y-98298144D01*
X141330199Y-98292192D01*
X141341889Y-98287650D01*
X141364831Y-98284342D01*
X141401854Y-98282087D01*
X141455787Y-98280706D01*
X141529459Y-98280022D01*
X141616139Y-98279852D01*
X141708648Y-98279949D01*
X141779025Y-98280402D01*
X141830283Y-98281462D01*
X141865439Y-98283375D01*
X141887508Y-98286391D01*
X141899504Y-98290757D01*
X141904443Y-98296721D01*
X141905346Y-98303656D01*
X141913040Y-98325667D01*
X141938240Y-98338193D01*
X141984128Y-98342660D01*
X141992383Y-98342724D01*
X142070092Y-98350740D01*
X142158352Y-98372808D01*
X142249204Y-98405956D01*
X142334689Y-98447211D01*
X142406845Y-98493603D01*
X142416191Y-98500954D01*
X142446652Y-98524870D01*
X142464691Y-98534448D01*
X142477288Y-98531352D01*
X142490219Y-98518576D01*
X142528412Y-98493550D01*
X142578117Y-98483943D01*
X142631643Y-98488939D01*
X142681297Y-98507723D01*
X142719386Y-98539478D01*
X142722144Y-98543169D01*
X142750645Y-98602447D01*
X142755947Y-98663806D01*
X142738637Y-98722299D01*
X142699299Y-98772976D01*
X142694489Y-98777161D01*
X142666559Y-98797039D01*
X142638221Y-98805793D01*
X142598382Y-98806425D01*
X142588430Y-98805864D01*
X142549451Y-98804434D01*
X142529373Y-98807711D01*
X142522104Y-98817600D01*
X142521359Y-98826833D01*
X142519835Y-98853616D01*
X142516054Y-98893897D01*
X142513337Y-98917996D01*
X142509396Y-98956273D01*
X142511035Y-98975868D01*
X142520540Y-98983030D01*
X142537470Y-98984011D01*
X142547511Y-98980773D01*
X142563709Y-98970292D01*
X142587264Y-98951420D01*
X142619376Y-98923007D01*
X142661247Y-98883907D01*
X142714076Y-98832969D01*
X142779064Y-98769045D01*
X142857410Y-98690986D01*
X142950316Y-98597644D01*
X143058982Y-98487870D01*
X143111350Y-98434824D01*
X143653168Y-97885639D01*
X143652549Y-97972720D01*
X143651930Y-98059803D01*
X143200205Y-98518763D01*
X142748480Y-98977724D01*
X142748151Y-99188343D01*
X142747822Y-99398961D01*
X142472729Y-99398961D01*
X142465641Y-99452402D01*
X142462957Y-99476760D01*
X142458432Y-99522631D01*
X142452310Y-99587277D01*
X142444831Y-99667963D01*
X142436238Y-99761953D01*
X142426773Y-99866509D01*
X142416677Y-99978897D01*
X142406193Y-100096379D01*
X142395563Y-100216220D01*
X142385028Y-100335683D01*
X142374832Y-100452031D01*
X142365214Y-100562529D01*
X142356419Y-100664441D01*
X142348687Y-100755030D01*
X142342261Y-100831559D01*
X142337382Y-100891293D01*
X142334294Y-100931496D01*
X142333236Y-100949431D01*
X142333237Y-100949516D01*
X142340946Y-100963907D01*
X142364100Y-100993620D01*
X142403014Y-101039003D01*
X142458003Y-101100401D01*
X142529383Y-101178160D01*
X142617468Y-101272626D01*
X142722573Y-101384144D01*
X142845014Y-101513060D01*
X142879429Y-101549159D01*
X143425256Y-102121288D01*
X143337000Y-102209308D01*
X143265604Y-102131630D01*
X143239485Y-102103558D01*
X143198685Y-102060146D01*
X143145896Y-102004238D01*
X143083810Y-101938680D01*
X143015119Y-101866313D01*
X142942515Y-101789984D01*
X142899079Y-101744396D01*
X142817535Y-101658991D01*
X142751623Y-101590582D01*
X142699663Y-101537925D01*
X142659974Y-101499777D01*
X142630876Y-101474892D01*
X142610688Y-101462028D01*
X142597729Y-101459940D01*
X142590319Y-101467385D01*
X142586777Y-101483118D01*
X142585422Y-101505895D01*
X142585240Y-101512111D01*
X142575822Y-101554933D01*
X142552616Y-101606691D01*
X142520255Y-101659200D01*
X142483371Y-101704275D01*
X142468612Y-101718200D01*
X142392886Y-101766919D01*
X142304427Y-101794178D01*
X142226219Y-101800645D01*
X142137587Y-101788448D01*
X142055731Y-101752685D01*
X141983283Y-101694594D01*
X141969916Y-101680134D01*
X141921037Y-101624605D01*
X141075445Y-101624605D01*
X141075445Y-101800645D01*
X140849109Y-101800645D01*
X140849109Y-101718403D01*
X140846269Y-101662258D01*
X140836726Y-101623288D01*
X140825128Y-101602091D01*
X140816842Y-101586924D01*
X140809746Y-101564934D01*
X140803371Y-101532859D01*
X140797247Y-101487441D01*
X140790903Y-101425420D01*
X140783869Y-101343534D01*
X140779053Y-101282618D01*
X140756958Y-100997215D01*
X140214554Y-101546677D01*
X140116482Y-101646100D01*
X140022335Y-101741687D01*
X139933834Y-101831682D01*
X139852699Y-101914329D01*
X139780650Y-101987873D01*
X139719407Y-102050556D01*
X139670692Y-102100624D01*
X139636223Y-102136320D01*
X139617740Y-102155867D01*
X139587376Y-102186816D01*
X139562048Y-102208402D01*
X139548424Y-102215595D01*
X139531024Y-102207169D01*
X139505659Y-102186117D01*
X139497061Y-102177543D01*
X139460605Y-102139492D01*
X139661317Y-101935530D01*
X139712523Y-101883571D01*
X139778550Y-101816692D01*
X139856501Y-101737822D01*
X139943481Y-101649886D01*
X140036593Y-101555813D01*
X140132940Y-101458530D01*
X140229627Y-101360965D01*
X140298985Y-101291017D01*
X140404416Y-101184422D01*
X140492990Y-101094179D01*
X140565838Y-101019064D01*
X140624096Y-100957858D01*
X140668894Y-100909338D01*
X140691098Y-100884001D01*
X140869395Y-100884001D01*
X140891718Y-101169427D01*
X140898450Y-101253091D01*
X140904962Y-101329599D01*
X140910885Y-101394953D01*
X140915851Y-101445153D01*
X140919490Y-101476201D01*
X140920661Y-101483145D01*
X140927281Y-101511437D01*
X141876755Y-101511437D01*
X141883093Y-101432478D01*
X141902229Y-101339187D01*
X141942273Y-101256663D01*
X142000701Y-101187910D01*
X142074990Y-101135935D01*
X142158371Y-101104735D01*
X142185421Y-101090100D01*
X142198963Y-101058691D01*
X142199247Y-101057306D01*
X142200872Y-101044046D01*
X142198863Y-101030467D01*
X142191261Y-101014053D01*
X142176103Y-100992283D01*
X142151431Y-100962639D01*
X142115283Y-100922604D01*
X142065699Y-100869657D01*
X142000718Y-100801281D01*
X141996520Y-100796877D01*
X141926626Y-100723483D01*
X141852319Y-100645309D01*
X141778705Y-100567736D01*
X141710890Y-100496147D01*
X141653979Y-100435923D01*
X141641287Y-100422459D01*
X141592632Y-100371692D01*
X141549410Y-100328247D01*
X141514724Y-100295113D01*
X141491675Y-100275277D01*
X141483937Y-100270918D01*
X141472397Y-100280042D01*
X141445409Y-100305072D01*
X141405098Y-100343924D01*
X141353590Y-100394515D01*
X141293010Y-100454760D01*
X141225483Y-100522576D01*
X141170293Y-100578437D01*
X140869395Y-100884001D01*
X140691098Y-100884001D01*
X140701368Y-100872283D01*
X140722648Y-100845471D01*
D11*
X140693019Y-129109330D02*
X140693019Y-127046478D01*
X130863219Y-127046478D02*
X130863219Y-129109330D01*
X130863219Y-131074078D02*
X130863219Y-132810304D01*
X130863219Y-132810304D02*
X140693019Y-132810304D01*
X140693019Y-132810304D02*
X140693019Y-131074078D01*
X130010000Y-117261605D02*
X130010000Y-117554139D01*
X128990000Y-117261605D02*
X128990000Y-117554139D01*
X140178119Y-122857872D02*
X140178119Y-123457872D01*
X138078119Y-122157872D02*
X139478119Y-122157872D01*
X137378119Y-123457872D02*
X137378119Y-122857872D01*
X139478119Y-124157872D02*
X138078119Y-124157872D01*
X138078119Y-122157872D02*
G75*
G03*
X137378119Y-122857872I-1J-699999D01*
G01*
X139478119Y-124157872D02*
G75*
G03*
X140178119Y-123457872I1J699999D01*
G01*
X140178119Y-122857872D02*
G75*
G03*
X139478119Y-122157872I-699999J1D01*
G01*
X137378119Y-123457872D02*
G75*
G03*
X138078119Y-124157872I699999J-1D01*
G01*
%LPC*%
D13*
X138130619Y-109572504D03*
X136405619Y-109572504D03*
X135130619Y-121822504D03*
X133405619Y-121822504D03*
D14*
X129428119Y-96492872D03*
X142128119Y-96492872D03*
D15*
X132218119Y-99032872D03*
D16*
X133234119Y-100812872D03*
X134250119Y-99032872D03*
X135266119Y-100812872D03*
X136282119Y-99032872D03*
X137298119Y-100812872D03*
X138314119Y-99032872D03*
X139330119Y-100812872D03*
X128918119Y-105632872D03*
X131208119Y-105632872D03*
X140348119Y-105632872D03*
X142638119Y-105632872D03*
D17*
X143908119Y-99922872D03*
X127648119Y-99922872D03*
D18*
X140003119Y-112522504D03*
X139353119Y-112522504D03*
X138703119Y-112522504D03*
X138053119Y-112522504D03*
X137403119Y-112522504D03*
X136753119Y-112522504D03*
X136103119Y-112522504D03*
X135453119Y-112522504D03*
X134803119Y-112522504D03*
X134153119Y-112522504D03*
X133503119Y-112522504D03*
X132853119Y-112522504D03*
X132203119Y-112522504D03*
X131553119Y-112522504D03*
X131553119Y-119722504D03*
X132203119Y-119722504D03*
X132853119Y-119722504D03*
X133503119Y-119722504D03*
X134153119Y-119722504D03*
X134803119Y-119722504D03*
X135453119Y-119722504D03*
X136103119Y-119722504D03*
X136753119Y-119722504D03*
X137403119Y-119722504D03*
X138053119Y-119722504D03*
X138703119Y-119722504D03*
X139353119Y-119722504D03*
X140003119Y-119722504D03*
D19*
X131458117Y-130091704D03*
X140098121Y-130091704D03*
D20*
X131458117Y-125911704D03*
X140098121Y-125911704D03*
D21*
X132888120Y-126411703D03*
X138668118Y-126411703D03*
D22*
X132578119Y-125336704D03*
X133378118Y-125336704D03*
D23*
X134528119Y-125336704D03*
X135528119Y-125336704D03*
X136028119Y-125336704D03*
X137028119Y-125336704D03*
D22*
X138978119Y-125336704D03*
X138178120Y-125336704D03*
D23*
X137528118Y-125336704D03*
X136528120Y-125336704D03*
X135028118Y-125336704D03*
X134028120Y-125336704D03*
D24*
X129500000Y-116545372D03*
X129500000Y-118270372D03*
D25*
X139428119Y-123157872D03*
D26*
X138128119Y-123157872D03*
M02*
