G04 #@! TF.GenerationSoftware,KiCad,Pcbnew,(6.0.0)*
G04 #@! TF.CreationDate,2022-05-28T20:38:17-06:00*
G04 #@! TF.ProjectId,usb_to_serial,7573625f-746f-45f7-9365-7269616c2e6b,2*
G04 #@! TF.SameCoordinates,Original*
G04 #@! TF.FileFunction,Paste,Top*
G04 #@! TF.FilePolarity,Positive*
%FSLAX46Y46*%
G04 Gerber Fmt 4.6, Leading zero omitted, Abs format (unit mm)*
G04 Created by KiCad (PCBNEW (6.0.0)) date 2022-05-28 20:38:17*
%MOMM*%
%LPD*%
G01*
G04 APERTURE LIST*
G04 Aperture macros list*
%AMRoundRect*
0 Rectangle with rounded corners*
0 $1 Rounding radius*
0 $2 $3 $4 $5 $6 $7 $8 $9 X,Y pos of 4 corners*
0 Add a 4 corners polygon primitive as box body*
4,1,4,$2,$3,$4,$5,$6,$7,$8,$9,$2,$3,0*
0 Add four circle primitives for the rounded corners*
1,1,$1+$1,$2,$3*
1,1,$1+$1,$4,$5*
1,1,$1+$1,$6,$7*
1,1,$1+$1,$8,$9*
0 Add four rect primitives between the rounded corners*
20,1,$1+$1,$2,$3,$4,$5,0*
20,1,$1+$1,$4,$5,$6,$7,0*
20,1,$1+$1,$6,$7,$8,$9,0*
20,1,$1+$1,$8,$9,$2,$3,0*%
G04 Aperture macros list end*
%ADD10RoundRect,0.237500X0.300000X0.237500X-0.300000X0.237500X-0.300000X-0.237500X0.300000X-0.237500X0*%
%ADD11R,0.450000X1.750000*%
%ADD12R,0.584200X1.143000*%
%ADD13R,0.304800X1.143000*%
%ADD14RoundRect,0.237500X-0.237500X0.300000X-0.237500X-0.300000X0.237500X-0.300000X0.237500X0.300000X0*%
G04 APERTURE END LIST*
D10*
X138130619Y-109572504D03*
X136405619Y-109572504D03*
X135130619Y-121822504D03*
X133405619Y-121822504D03*
D11*
X140003119Y-112522504D03*
X139353119Y-112522504D03*
X138703119Y-112522504D03*
X138053119Y-112522504D03*
X137403119Y-112522504D03*
X136753119Y-112522504D03*
X136103119Y-112522504D03*
X135453119Y-112522504D03*
X134803119Y-112522504D03*
X134153119Y-112522504D03*
X133503119Y-112522504D03*
X132853119Y-112522504D03*
X132203119Y-112522504D03*
X131553119Y-112522504D03*
X131553119Y-119722504D03*
X132203119Y-119722504D03*
X132853119Y-119722504D03*
X133503119Y-119722504D03*
X134153119Y-119722504D03*
X134803119Y-119722504D03*
X135453119Y-119722504D03*
X136103119Y-119722504D03*
X136753119Y-119722504D03*
X137403119Y-119722504D03*
X138053119Y-119722504D03*
X138703119Y-119722504D03*
X139353119Y-119722504D03*
X140003119Y-119722504D03*
D12*
X132578119Y-125336704D03*
X133378118Y-125336704D03*
D13*
X134528119Y-125336704D03*
X135528119Y-125336704D03*
X136028119Y-125336704D03*
X137028119Y-125336704D03*
D12*
X138978119Y-125336704D03*
X138178120Y-125336704D03*
D13*
X137528118Y-125336704D03*
X136528120Y-125336704D03*
X135028118Y-125336704D03*
X134028120Y-125336704D03*
D14*
X129500000Y-116545372D03*
X129500000Y-118270372D03*
M02*
