G04 #@! TF.GenerationSoftware,KiCad,Pcbnew,(6.0.0)*
G04 #@! TF.CreationDate,2022-05-28T20:38:17-06:00*
G04 #@! TF.ProjectId,usb_to_serial,7573625f-746f-45f7-9365-7269616c2e6b,2*
G04 #@! TF.SameCoordinates,Original*
G04 #@! TF.FileFunction,Paste,Bot*
G04 #@! TF.FilePolarity,Positive*
%FSLAX46Y46*%
G04 Gerber Fmt 4.6, Leading zero omitted, Abs format (unit mm)*
G04 Created by KiCad (PCBNEW (6.0.0)) date 2022-05-28 20:38:17*
%MOMM*%
%LPD*%
G01*
G04 APERTURE LIST*
G04 Aperture macros list*
%AMRoundRect*
0 Rectangle with rounded corners*
0 $1 Rounding radius*
0 $2 $3 $4 $5 $6 $7 $8 $9 X,Y pos of 4 corners*
0 Add a 4 corners polygon primitive as box body*
4,1,4,$2,$3,$4,$5,$6,$7,$8,$9,$2,$3,0*
0 Add four circle primitives for the rounded corners*
1,1,$1+$1,$2,$3*
1,1,$1+$1,$4,$5*
1,1,$1+$1,$6,$7*
1,1,$1+$1,$8,$9*
0 Add four rect primitives between the rounded corners*
20,1,$1+$1,$2,$3,$4,$5,0*
20,1,$1+$1,$4,$5,$6,$7,0*
20,1,$1+$1,$6,$7,$8,$9,0*
20,1,$1+$1,$8,$9,$2,$3,0*%
G04 Aperture macros list end*
%ADD10RoundRect,0.237500X-0.237500X0.250000X-0.237500X-0.250000X0.237500X-0.250000X0.237500X0.250000X0*%
%ADD11RoundRect,0.237500X-0.300000X-0.237500X0.300000X-0.237500X0.300000X0.237500X-0.300000X0.237500X0*%
%ADD12RoundRect,0.250000X0.412500X0.650000X-0.412500X0.650000X-0.412500X-0.650000X0.412500X-0.650000X0*%
%ADD13RoundRect,0.237500X0.300000X0.237500X-0.300000X0.237500X-0.300000X-0.237500X0.300000X-0.237500X0*%
%ADD14RoundRect,0.250000X-0.325000X-0.450000X0.325000X-0.450000X0.325000X0.450000X-0.325000X0.450000X0*%
%ADD15R,0.450000X1.750000*%
%ADD16RoundRect,0.237500X0.237500X-0.300000X0.237500X0.300000X-0.237500X0.300000X-0.237500X-0.300000X0*%
G04 APERTURE END LIST*
D10*
X133028119Y-127495372D03*
X133028119Y-129320372D03*
D11*
X132405619Y-108072504D03*
X134130619Y-108072504D03*
D12*
X137340619Y-125907872D03*
X134215619Y-125907872D03*
D13*
X136640619Y-127907872D03*
X134915619Y-127907872D03*
D11*
X132405619Y-109822504D03*
X134130619Y-109822504D03*
D14*
X137753119Y-122907872D03*
X139803119Y-122907872D03*
D13*
X132880619Y-121822504D03*
X131155619Y-121822504D03*
D11*
X131155619Y-123322504D03*
X132880619Y-123322504D03*
D13*
X136140619Y-122907872D03*
X134415619Y-122907872D03*
D15*
X131543119Y-112472504D03*
X132193119Y-112472504D03*
X132843119Y-112472504D03*
X133493119Y-112472504D03*
X134143119Y-112472504D03*
X134793119Y-112472504D03*
X135443119Y-112472504D03*
X136093119Y-112472504D03*
X136743119Y-112472504D03*
X137393119Y-112472504D03*
X138043119Y-112472504D03*
X138693119Y-112472504D03*
X139343119Y-112472504D03*
X139993119Y-112472504D03*
X139993119Y-119672504D03*
X139343119Y-119672504D03*
X138693119Y-119672504D03*
X138043119Y-119672504D03*
X137393119Y-119672504D03*
X136743119Y-119672504D03*
X136093119Y-119672504D03*
X135443119Y-119672504D03*
X134793119Y-119672504D03*
X134143119Y-119672504D03*
X133493119Y-119672504D03*
X132843119Y-119672504D03*
X132193119Y-119672504D03*
X131543119Y-119672504D03*
D10*
X138528119Y-127495372D03*
X138528119Y-129320372D03*
D16*
X129500000Y-118270372D03*
X129500000Y-116545372D03*
M02*
