G04 #@! TF.GenerationSoftware,KiCad,Pcbnew,(6.0.0)*
G04 #@! TF.CreationDate,2022-05-28T20:38:17-06:00*
G04 #@! TF.ProjectId,usb_to_serial,7573625f-746f-45f7-9365-7269616c2e6b,2*
G04 #@! TF.SameCoordinates,Original*
G04 #@! TF.FileFunction,Copper,L4,Bot*
G04 #@! TF.FilePolarity,Positive*
%FSLAX46Y46*%
G04 Gerber Fmt 4.6, Leading zero omitted, Abs format (unit mm)*
G04 Created by KiCad (PCBNEW (6.0.0)) date 2022-05-28 20:38:17*
%MOMM*%
%LPD*%
G01*
G04 APERTURE LIST*
G04 Aperture macros list*
%AMRoundRect*
0 Rectangle with rounded corners*
0 $1 Rounding radius*
0 $2 $3 $4 $5 $6 $7 $8 $9 X,Y pos of 4 corners*
0 Add a 4 corners polygon primitive as box body*
4,1,4,$2,$3,$4,$5,$6,$7,$8,$9,$2,$3,0*
0 Add four circle primitives for the rounded corners*
1,1,$1+$1,$2,$3*
1,1,$1+$1,$4,$5*
1,1,$1+$1,$6,$7*
1,1,$1+$1,$8,$9*
0 Add four rect primitives between the rounded corners*
20,1,$1+$1,$2,$3,$4,$5,0*
20,1,$1+$1,$4,$5,$6,$7,0*
20,1,$1+$1,$6,$7,$8,$9,0*
20,1,$1+$1,$8,$9,$2,$3,0*%
%AMFreePoly0*
4,1,22,0.500000,-0.750000,0.000000,-0.750000,0.000000,-0.745033,-0.079941,-0.743568,-0.215256,-0.701293,-0.333266,-0.622738,-0.424486,-0.514219,-0.481581,-0.384460,-0.499164,-0.250000,-0.500000,-0.250000,-0.500000,0.250000,-0.499164,0.250000,-0.499963,0.256109,-0.478152,0.396186,-0.417904,0.524511,-0.324060,0.630769,-0.204165,0.706417,-0.067858,0.745374,0.000000,0.744959,0.000000,0.750000,
0.500000,0.750000,0.500000,-0.750000,0.500000,-0.750000,$1*%
%AMFreePoly1*
4,1,20,0.000000,0.744959,0.073905,0.744508,0.209726,0.703889,0.328688,0.626782,0.421226,0.519385,0.479903,0.390333,0.500000,0.250000,0.500000,-0.250000,0.499851,-0.262216,0.476331,-0.402017,0.414519,-0.529596,0.319384,-0.634700,0.198574,-0.708877,0.061801,-0.746166,0.000000,-0.745033,0.000000,-0.750000,-0.500000,-0.750000,-0.500000,0.750000,0.000000,0.750000,0.000000,0.744959,
0.000000,0.744959,$1*%
G04 Aperture macros list end*
G04 #@! TA.AperFunction,ComponentPad*
%ADD10R,1.500000X1.500000*%
G04 #@! TD*
G04 #@! TA.AperFunction,ComponentPad*
%ADD11C,1.500000*%
G04 #@! TD*
G04 #@! TA.AperFunction,ComponentPad*
%ADD12C,2.300000*%
G04 #@! TD*
G04 #@! TA.AperFunction,ComponentPad*
%ADD13O,0.990600X1.803400*%
G04 #@! TD*
G04 #@! TA.AperFunction,ComponentPad*
%ADD14O,0.990600X2.108200*%
G04 #@! TD*
G04 #@! TA.AperFunction,ComponentPad*
%ADD15C,0.762000*%
G04 #@! TD*
G04 #@! TA.AperFunction,SMDPad,CuDef*
%ADD16FreePoly0,0.000000*%
G04 #@! TD*
G04 #@! TA.AperFunction,SMDPad,CuDef*
%ADD17FreePoly1,0.000000*%
G04 #@! TD*
G04 #@! TA.AperFunction,SMDPad,CuDef*
%ADD18RoundRect,0.237500X-0.237500X0.250000X-0.237500X-0.250000X0.237500X-0.250000X0.237500X0.250000X0*%
G04 #@! TD*
G04 #@! TA.AperFunction,SMDPad,CuDef*
%ADD19RoundRect,0.237500X-0.300000X-0.237500X0.300000X-0.237500X0.300000X0.237500X-0.300000X0.237500X0*%
G04 #@! TD*
G04 #@! TA.AperFunction,SMDPad,CuDef*
%ADD20RoundRect,0.250000X0.412500X0.650000X-0.412500X0.650000X-0.412500X-0.650000X0.412500X-0.650000X0*%
G04 #@! TD*
G04 #@! TA.AperFunction,SMDPad,CuDef*
%ADD21RoundRect,0.237500X0.300000X0.237500X-0.300000X0.237500X-0.300000X-0.237500X0.300000X-0.237500X0*%
G04 #@! TD*
G04 #@! TA.AperFunction,SMDPad,CuDef*
%ADD22RoundRect,0.250000X-0.325000X-0.450000X0.325000X-0.450000X0.325000X0.450000X-0.325000X0.450000X0*%
G04 #@! TD*
G04 #@! TA.AperFunction,SMDPad,CuDef*
%ADD23FreePoly0,180.000000*%
G04 #@! TD*
G04 #@! TA.AperFunction,SMDPad,CuDef*
%ADD24FreePoly1,180.000000*%
G04 #@! TD*
G04 #@! TA.AperFunction,SMDPad,CuDef*
%ADD25FreePoly0,90.000000*%
G04 #@! TD*
G04 #@! TA.AperFunction,SMDPad,CuDef*
%ADD26FreePoly1,90.000000*%
G04 #@! TD*
G04 #@! TA.AperFunction,SMDPad,CuDef*
%ADD27R,0.450000X1.750000*%
G04 #@! TD*
G04 #@! TA.AperFunction,SMDPad,CuDef*
%ADD28RoundRect,0.237500X0.237500X-0.300000X0.237500X0.300000X-0.237500X0.300000X-0.237500X-0.300000X0*%
G04 #@! TD*
G04 #@! TA.AperFunction,ViaPad*
%ADD29C,0.685800*%
G04 #@! TD*
G04 #@! TA.AperFunction,ViaPad*
%ADD30C,0.508000*%
G04 #@! TD*
G04 #@! TA.AperFunction,ViaPad*
%ADD31C,3.302000*%
G04 #@! TD*
G04 #@! TA.AperFunction,ViaPad*
%ADD32C,2.159000*%
G04 #@! TD*
G04 #@! TA.AperFunction,Conductor*
%ADD33C,0.200000*%
G04 #@! TD*
G04 #@! TA.AperFunction,Conductor*
%ADD34C,0.381000*%
G04 #@! TD*
G04 #@! TA.AperFunction,Conductor*
%ADD35C,0.508000*%
G04 #@! TD*
G04 #@! TA.AperFunction,Conductor*
%ADD36C,0.254000*%
G04 #@! TD*
G04 #@! TA.AperFunction,Conductor*
%ADD37C,0.762000*%
G04 #@! TD*
G04 APERTURE END LIST*
D10*
X132218119Y-99032872D03*
D11*
X133234119Y-100812872D03*
X134250119Y-99032872D03*
X135266119Y-100812872D03*
X136282119Y-99032872D03*
X137298119Y-100812872D03*
X138314119Y-99032872D03*
X139330119Y-100812872D03*
X128918119Y-105632872D03*
X131208119Y-105632872D03*
X140348119Y-105632872D03*
X142638119Y-105632872D03*
D12*
X143908119Y-99922872D03*
X127648119Y-99922872D03*
D13*
X131458117Y-130091704D03*
X140098121Y-130091704D03*
D14*
X131458117Y-125911704D03*
X140098121Y-125911704D03*
D15*
X132888120Y-126411703D03*
X138668118Y-126411703D03*
D16*
X138868119Y-117572504D03*
D17*
X140168119Y-117572504D03*
D18*
X133028119Y-127495372D03*
X133028119Y-129320372D03*
D19*
X132405619Y-108072504D03*
X134130619Y-108072504D03*
D20*
X137340619Y-125907872D03*
X134215619Y-125907872D03*
D21*
X136640619Y-127907872D03*
X134915619Y-127907872D03*
D19*
X132405619Y-109822504D03*
X134130619Y-109822504D03*
D22*
X137753119Y-122907872D03*
X139803119Y-122907872D03*
D23*
X135668119Y-117322504D03*
D24*
X134368119Y-117322504D03*
D25*
X131518119Y-115972504D03*
D26*
X131518119Y-114672504D03*
D25*
X138018119Y-109807872D03*
D26*
X138018119Y-108507872D03*
D23*
X139668119Y-114822504D03*
D24*
X138368119Y-114822504D03*
D21*
X132880619Y-121822504D03*
X131155619Y-121822504D03*
D19*
X131155619Y-123322504D03*
X132880619Y-123322504D03*
D21*
X136140619Y-122907872D03*
X134415619Y-122907872D03*
D27*
X131543119Y-112472504D03*
X132193119Y-112472504D03*
X132843119Y-112472504D03*
X133493119Y-112472504D03*
X134143119Y-112472504D03*
X134793119Y-112472504D03*
X135443119Y-112472504D03*
X136093119Y-112472504D03*
X136743119Y-112472504D03*
X137393119Y-112472504D03*
X138043119Y-112472504D03*
X138693119Y-112472504D03*
X139343119Y-112472504D03*
X139993119Y-112472504D03*
X139993119Y-119672504D03*
X139343119Y-119672504D03*
X138693119Y-119672504D03*
X138043119Y-119672504D03*
X137393119Y-119672504D03*
X136743119Y-119672504D03*
X136093119Y-119672504D03*
X135443119Y-119672504D03*
X134793119Y-119672504D03*
X134143119Y-119672504D03*
X133493119Y-119672504D03*
X132843119Y-119672504D03*
X132193119Y-119672504D03*
X131543119Y-119672504D03*
D18*
X138528119Y-127495372D03*
X138528119Y-129320372D03*
D28*
X129500000Y-118270372D03*
X129500000Y-116545372D03*
D23*
X135711867Y-114987136D03*
D24*
X134411867Y-114987136D03*
D29*
X137060125Y-107641869D03*
D30*
X138053119Y-110882872D03*
D29*
X136799167Y-121752672D03*
X135778119Y-128907872D03*
X130768119Y-117322504D03*
X141528119Y-124657872D03*
X140528119Y-121907872D03*
X136328332Y-126669504D03*
X140778119Y-123907872D03*
X141278119Y-121157872D03*
X135278119Y-126917304D03*
D31*
X129278119Y-109157872D03*
D29*
X139016488Y-121079549D03*
X136808319Y-114341707D03*
D31*
X142278119Y-108907872D03*
D29*
X138018119Y-121072504D03*
D32*
X142278119Y-122657872D03*
D29*
X136768119Y-117729624D03*
D32*
X129278119Y-122657872D03*
D29*
X134528119Y-105157872D03*
X128432165Y-116530071D03*
D30*
X133504222Y-121028906D03*
D29*
X133028119Y-116407872D03*
X134933319Y-108907872D03*
X129778119Y-115157872D03*
X131778119Y-117157872D03*
X135893696Y-110877937D03*
D30*
X134414830Y-124039334D03*
D29*
X139778119Y-104157872D03*
X140778119Y-116157872D03*
X137278119Y-102657872D03*
X140895697Y-119360461D03*
X137327672Y-123998564D03*
D30*
X134028119Y-127407872D03*
X135278119Y-123976484D03*
X136538451Y-124071031D03*
X137526350Y-127404131D03*
X133500000Y-110895071D03*
X137518119Y-115566604D03*
X138768119Y-107572504D03*
X136278119Y-121157872D03*
X136836106Y-105991844D03*
X140022408Y-111163583D03*
X140518119Y-113822504D03*
X138837219Y-110910360D03*
X137502429Y-118338194D03*
X136908399Y-116932225D03*
X137768119Y-117076493D03*
D33*
X138436878Y-127404131D02*
X138528119Y-127495372D01*
X137526350Y-127404131D02*
X138436878Y-127404131D01*
X132843119Y-111262314D02*
X132843119Y-112472504D01*
X132278119Y-110697314D02*
X132843119Y-111262314D01*
X132278119Y-109950004D02*
X132278119Y-110697314D01*
X132405619Y-109822504D02*
X132278119Y-109950004D01*
D34*
X136640619Y-127907872D02*
X136640619Y-126357217D01*
X130768119Y-117322504D02*
X131518119Y-118072504D01*
X132268119Y-118072504D02*
X132843119Y-118647504D01*
D35*
X139803119Y-122932872D02*
X139803119Y-122907872D01*
X139803119Y-122632872D02*
X139803119Y-122907872D01*
X141528119Y-124657872D02*
X139803119Y-122932872D01*
D34*
X136640619Y-126357217D02*
X137089964Y-125907872D01*
X137340619Y-125907872D02*
X137340619Y-125370372D01*
X136640619Y-127907872D02*
X136640619Y-128045372D01*
D35*
X141278119Y-121157872D02*
X139803119Y-122632872D01*
D34*
X137089964Y-125907872D02*
X136328332Y-126669504D01*
X132843119Y-118647504D02*
X132843119Y-119672504D01*
X137340619Y-125907872D02*
X137089964Y-125907872D01*
X132843119Y-119672504D02*
X132843119Y-121785004D01*
X132843119Y-121785004D02*
X132880619Y-121822504D01*
X136640619Y-128045372D02*
X135778119Y-128907872D01*
X131518119Y-118072504D02*
X132268119Y-118072504D01*
D35*
X137340619Y-125370372D02*
X139803119Y-122907872D01*
D34*
X129778119Y-115157872D02*
X129778119Y-116545372D01*
X134130619Y-109822504D02*
X134130619Y-109710572D01*
X131458117Y-125911704D02*
X131748339Y-125621482D01*
D35*
X134415619Y-124038545D02*
X134414830Y-124039334D01*
D36*
X133504222Y-121028906D02*
X133504222Y-119683607D01*
D34*
X133493119Y-118423180D02*
X133493119Y-119672504D01*
D35*
X134415619Y-124040123D02*
X134415619Y-125707872D01*
D34*
X135278119Y-126917304D02*
X135278119Y-127545372D01*
X133929229Y-125621482D02*
X134215619Y-125907872D01*
D35*
X132256787Y-130091704D02*
X131458117Y-130091704D01*
X131748339Y-125621482D02*
X131961949Y-125407872D01*
X133028119Y-129320372D02*
X132256787Y-130091704D01*
D36*
X133504222Y-119683607D02*
X133493119Y-119672504D01*
D37*
X131961949Y-125407872D02*
X133715619Y-125407872D01*
D34*
X132227811Y-117157872D02*
X133493119Y-118423180D01*
D36*
X134215619Y-126095372D02*
X134215619Y-125907872D01*
D35*
X133715619Y-125407872D02*
X133929229Y-125621482D01*
X138528119Y-129320372D02*
X139299451Y-130091704D01*
X139299451Y-130091704D02*
X140098121Y-130091704D01*
D34*
X135037551Y-126917304D02*
X134215619Y-126095372D01*
X135278119Y-127545372D02*
X134915619Y-127907872D01*
D36*
X134415619Y-125707872D02*
X134215619Y-125907872D01*
D34*
X135278119Y-126917304D02*
X135037551Y-126917304D01*
D35*
X134415619Y-122907872D02*
X134415619Y-124038545D01*
D34*
X134130619Y-109710572D02*
X134933319Y-108907872D01*
D35*
X134414830Y-124039334D02*
X134415619Y-124040123D01*
D34*
X131778119Y-117157872D02*
X132227811Y-117157872D01*
D33*
X131543119Y-112472504D02*
X131543119Y-111172872D01*
X131176199Y-109301924D02*
X132405619Y-108072504D01*
X131176199Y-110805952D02*
X131176199Y-109301924D01*
X131543119Y-111172872D02*
X131176199Y-110805952D01*
X131528119Y-109470360D02*
X132090607Y-108907872D01*
X133295251Y-108907872D02*
X134130619Y-108072504D01*
X132193119Y-111110004D02*
X131528119Y-110445004D01*
X132090607Y-108907872D02*
X133295251Y-108907872D01*
X132193119Y-112472504D02*
X132193119Y-111110004D01*
X131528119Y-110445004D02*
X131528119Y-109470360D01*
D35*
X136140619Y-122907872D02*
X137753119Y-122907872D01*
D34*
X137327672Y-123998564D02*
X137327672Y-123333319D01*
X137327672Y-123333319D02*
X137753119Y-122907872D01*
D33*
X131945039Y-122533084D02*
X131945039Y-121382280D01*
X131155619Y-123322504D02*
X131945039Y-122533084D01*
X131945039Y-121382280D02*
X131543119Y-120980360D01*
X131543119Y-120980360D02*
X131543119Y-119672504D01*
X132880619Y-123133496D02*
X132880619Y-123322504D01*
X134143119Y-121870996D02*
X132880619Y-123133496D01*
X134143119Y-119672504D02*
X134143119Y-121870996D01*
X132193119Y-118718682D02*
X132020030Y-118545593D01*
X129863487Y-118185004D02*
X129778119Y-118270372D01*
X132020030Y-118545593D02*
X131241208Y-118545593D01*
X132193119Y-119672504D02*
X132193119Y-118718682D01*
X130880619Y-118185004D02*
X129863487Y-118185004D01*
X131241208Y-118545593D02*
X130880619Y-118185004D01*
X133115619Y-127407872D02*
X133028119Y-127495372D01*
X134028119Y-127407872D02*
X133115619Y-127407872D01*
X135278119Y-123976484D02*
X135372666Y-124071031D01*
X135372666Y-124071031D02*
X136538451Y-124071031D01*
X134368119Y-116747872D02*
X134130039Y-116509792D01*
X134143119Y-113426326D02*
X134143119Y-112472504D01*
X133741208Y-113599415D02*
X133970030Y-113599415D01*
X132028119Y-101407872D02*
X132778119Y-102157872D01*
X135528119Y-109654648D02*
X134143119Y-111039648D01*
X133264288Y-115650611D02*
X133264288Y-114076335D01*
X134130039Y-116509792D02*
X134123469Y-116509792D01*
X135278119Y-108157872D02*
X135528119Y-108407872D01*
X135528119Y-108407872D02*
X135528119Y-109654648D01*
X132028119Y-99222872D02*
X132028119Y-101407872D01*
X133778119Y-102157872D02*
X135278119Y-103657872D01*
X134368119Y-117322504D02*
X134368119Y-116747872D01*
X133970030Y-113599415D02*
X134143119Y-113426326D01*
X132778119Y-102157872D02*
X133778119Y-102157872D01*
X134143119Y-111039648D02*
X134143119Y-112472504D01*
X134123469Y-116509792D02*
X133264288Y-115650611D01*
X132218119Y-99032872D02*
X132028119Y-99222872D01*
X133264288Y-114076335D02*
X133741208Y-113599415D01*
X135278119Y-103657872D02*
X135278119Y-108157872D01*
X133493119Y-112472504D02*
X133493119Y-110901952D01*
X133493119Y-110901952D02*
X133500000Y-110895071D01*
X133018119Y-113822504D02*
X133493119Y-113347504D01*
X131518119Y-114672504D02*
X131518119Y-114447504D01*
X132143119Y-113822504D02*
X133018119Y-113822504D01*
X133493119Y-113347504D02*
X133493119Y-112472504D01*
X131518119Y-114447504D02*
X132143119Y-113822504D01*
X137518119Y-115566604D02*
X138260389Y-114824334D01*
X138368119Y-114824334D02*
X138043119Y-114499334D01*
X138043119Y-114499334D02*
X138043119Y-112472504D01*
X138260389Y-114824334D02*
X138368119Y-114824334D01*
X134389288Y-113951335D02*
X134793119Y-113547504D01*
X133925924Y-113951335D02*
X134389288Y-113951335D01*
X133616208Y-114261051D02*
X133925924Y-113951335D01*
X136278119Y-116157872D02*
X134269239Y-116157872D01*
X136544671Y-116424424D02*
X136278119Y-116157872D01*
X134793119Y-111137338D02*
X136028119Y-109902338D01*
X140168119Y-117266236D02*
X139326307Y-116424424D01*
X134793119Y-113547504D02*
X134793119Y-112472504D01*
X135784030Y-103663783D02*
X135778119Y-103657872D01*
X135784030Y-108038783D02*
X135784030Y-103663783D01*
X135778119Y-103657872D02*
X135778119Y-103356872D01*
X134269239Y-116157872D02*
X133616208Y-115504841D01*
X136028119Y-109902338D02*
X136028119Y-108282872D01*
X140168119Y-117572504D02*
X140168119Y-117266236D01*
X133616208Y-115504841D02*
X133616208Y-114261051D01*
X136028119Y-108282872D02*
X135784030Y-108038783D01*
X139326307Y-116424424D02*
X136544671Y-116424424D01*
X134793119Y-112472504D02*
X134793119Y-111137338D01*
X135778119Y-103356872D02*
X133234119Y-100812872D01*
X136518119Y-113822504D02*
X136743119Y-113597504D01*
X134411867Y-114678756D02*
X135268119Y-113822504D01*
X136743119Y-110620562D02*
X136743119Y-112472504D01*
X136543689Y-108173442D02*
X136543689Y-110421132D01*
X136278119Y-107907872D02*
X136543689Y-108173442D01*
X136543689Y-110421132D02*
X136743119Y-110620562D01*
X137298119Y-101062872D02*
X136278119Y-102082872D01*
X136278119Y-102082872D02*
X136278119Y-107907872D01*
X134411867Y-114987136D02*
X134411867Y-114678756D01*
X136743119Y-113597504D02*
X136743119Y-112472504D01*
X135268119Y-113822504D02*
X136518119Y-113822504D01*
X137711851Y-108507872D02*
X138018119Y-108507872D01*
X138768119Y-108172504D02*
X138768119Y-107572504D01*
X137393119Y-110772872D02*
X137016199Y-110395952D01*
X137393119Y-112472504D02*
X137393119Y-110772872D01*
X137016199Y-110395952D02*
X137016199Y-109203524D01*
X138620039Y-108320584D02*
X138768119Y-108172504D01*
X137016199Y-109203524D02*
X137711851Y-108507872D01*
X138270039Y-108320584D02*
X138620039Y-108320584D01*
X139278119Y-108407872D02*
X139274030Y-108403783D01*
X138112091Y-105991844D02*
X136836106Y-105991844D01*
X137145207Y-121157872D02*
X137661695Y-121674360D01*
X137661695Y-121674360D02*
X139761631Y-121674360D01*
X139274030Y-107153783D02*
X138112091Y-105991844D01*
X136278119Y-121157872D02*
X137145207Y-121157872D01*
X139274030Y-108403783D02*
X139274030Y-107153783D01*
X139761631Y-121674360D02*
X141518119Y-119917872D01*
X141518119Y-111822504D02*
X139278119Y-109582504D01*
X139278119Y-109582504D02*
X139278119Y-108407872D01*
X141518119Y-119917872D02*
X141518119Y-111822504D01*
X140022408Y-111163583D02*
X141018119Y-112159294D01*
X141024030Y-113612948D02*
X141024030Y-114782060D01*
X141018119Y-113607037D02*
X141024030Y-113612948D01*
X140022408Y-111163583D02*
X139993119Y-111192872D01*
X136918119Y-116072504D02*
X135668119Y-114822504D01*
X139733586Y-116072504D02*
X136918119Y-116072504D01*
X141018119Y-112159294D02*
X141018119Y-113607037D01*
X139993119Y-111192872D02*
X139993119Y-112472504D01*
X141024030Y-114782060D02*
X139733586Y-116072504D01*
X140518119Y-113822504D02*
X139739297Y-113822504D01*
X139343119Y-110700793D02*
X139343119Y-112472504D01*
X139739297Y-113822504D02*
X139343119Y-113426326D01*
X138614830Y-109972504D02*
X139343119Y-110700793D01*
X138018119Y-109972504D02*
X138614830Y-109972504D01*
X139343119Y-113426326D02*
X139343119Y-112472504D01*
D36*
X138693119Y-113497504D02*
X139668119Y-114472504D01*
X138693119Y-112472504D02*
X138693119Y-113497504D01*
X138693119Y-111054460D02*
X138693119Y-112472504D01*
X139668119Y-114472504D02*
X139668119Y-114824334D01*
X138837219Y-110910360D02*
X138693119Y-111054460D01*
D33*
X137455619Y-118385004D02*
X137205619Y-118385004D01*
X134020039Y-118324424D02*
X137145039Y-118324424D01*
X137205619Y-118385004D02*
X137393119Y-118572504D01*
X137145039Y-118324424D02*
X137205619Y-118385004D01*
X137393119Y-118572504D02*
X137393119Y-119672504D01*
X131518119Y-115972504D02*
X131668119Y-115972504D01*
X131668119Y-115972504D02*
X134020039Y-118324424D01*
X137502429Y-118338194D02*
X137455619Y-118385004D01*
X136908399Y-116932225D02*
X136898687Y-116922513D01*
X136908399Y-116932225D02*
X136908399Y-117028713D01*
X138043119Y-118163433D02*
X138043119Y-119672504D01*
X136898687Y-116922513D02*
X136068110Y-116922513D01*
X136068110Y-116922513D02*
X135668119Y-117322504D01*
X136908399Y-117028713D02*
X138043119Y-118163433D01*
X138693119Y-119672504D02*
X138693119Y-117747504D01*
X138264130Y-117572504D02*
X137768119Y-117076493D01*
X138868119Y-117572504D02*
X138264130Y-117572504D01*
X138693119Y-117747504D02*
X138868119Y-117572504D01*
G04 #@! TA.AperFunction,Conductor*
G36*
X145219639Y-93178430D02*
G01*
X145266183Y-93232041D01*
X145277619Y-93284492D01*
X145277619Y-98860392D01*
X145257617Y-98928513D01*
X145240714Y-98949487D01*
X142938663Y-101251538D01*
X142931270Y-101265076D01*
X142935839Y-101271607D01*
X143148855Y-101402143D01*
X143157649Y-101406624D01*
X143389611Y-101502706D01*
X143398996Y-101505755D01*
X143643136Y-101564368D01*
X143652883Y-101565911D01*
X143903189Y-101585611D01*
X143913049Y-101585611D01*
X144163355Y-101565911D01*
X144173102Y-101564368D01*
X144417242Y-101505755D01*
X144426627Y-101502706D01*
X144658589Y-101406624D01*
X144667383Y-101402143D01*
X144881467Y-101270952D01*
X144889440Y-101265160D01*
X145007603Y-101164238D01*
X145072393Y-101135207D01*
X145142593Y-101145812D01*
X145195915Y-101192686D01*
X145215431Y-101260948D01*
X145215103Y-101269170D01*
X143036137Y-131290493D01*
X143011257Y-131356987D01*
X142954376Y-131399474D01*
X142910468Y-131407372D01*
X140913459Y-131407372D01*
X140845338Y-131387370D01*
X140798845Y-131333714D01*
X140788741Y-131263440D01*
X140818235Y-131198860D01*
X140826886Y-131189823D01*
X140856897Y-131161443D01*
X140865194Y-131151831D01*
X140974776Y-130995331D01*
X140980976Y-130984237D01*
X141056853Y-130808896D01*
X141060695Y-130796784D01*
X141100081Y-130608254D01*
X141101323Y-130598687D01*
X141101334Y-130598489D01*
X141101421Y-130595156D01*
X141101421Y-130363819D01*
X141096946Y-130348580D01*
X141095556Y-130347375D01*
X141087873Y-130345704D01*
X139970121Y-130345704D01*
X139902000Y-130325702D01*
X139855507Y-130272046D01*
X139844121Y-130219704D01*
X139844121Y-129819589D01*
X140352121Y-129819589D01*
X140356596Y-129834828D01*
X140357986Y-129836033D01*
X140365669Y-129837704D01*
X141083306Y-129837704D01*
X141098545Y-129833229D01*
X141099750Y-129831839D01*
X141101421Y-129824156D01*
X141101421Y-129637563D01*
X141101098Y-129631188D01*
X141086642Y-129488871D01*
X141084088Y-129476431D01*
X141026956Y-129294123D01*
X141021947Y-129282435D01*
X140929322Y-129115334D01*
X140922078Y-129104911D01*
X140797735Y-128959839D01*
X140788541Y-128951084D01*
X140637576Y-128833984D01*
X140626803Y-128827251D01*
X140455376Y-128742898D01*
X140443469Y-128738470D01*
X140369652Y-128719242D01*
X140355557Y-128719676D01*
X140352121Y-128727857D01*
X140352121Y-129819589D01*
X139844121Y-129819589D01*
X139844121Y-128727806D01*
X139840148Y-128714275D01*
X139834046Y-128713398D01*
X139662021Y-128776692D01*
X139650613Y-128782256D01*
X139622191Y-128799878D01*
X139553755Y-128818776D01*
X139485967Y-128797674D01*
X139446174Y-128751448D01*
X139445316Y-128751979D01*
X139441952Y-128746543D01*
X139441693Y-128746242D01*
X139441466Y-128745757D01*
X139357693Y-128610380D01*
X139348659Y-128598982D01*
X139235990Y-128486509D01*
X139224579Y-128477497D01*
X139089056Y-128393960D01*
X139075879Y-128387816D01*
X138931350Y-128339878D01*
X138872990Y-128299448D01*
X138845753Y-128233883D01*
X138858286Y-128164002D01*
X138906611Y-128111990D01*
X138913815Y-128108018D01*
X138915735Y-128107039D01*
X138997951Y-128065149D01*
X139085396Y-127977704D01*
X139114161Y-127921249D01*
X139137037Y-127876353D01*
X139137039Y-127876348D01*
X139141539Y-127867516D01*
X139156019Y-127776094D01*
X139156019Y-127253676D01*
X139176021Y-127185555D01*
X139229677Y-127139062D01*
X139299951Y-127128958D01*
X139364531Y-127158452D01*
X139377687Y-127171678D01*
X139398507Y-127195969D01*
X139407701Y-127204724D01*
X139558666Y-127321824D01*
X139569439Y-127328557D01*
X139740866Y-127412910D01*
X139752773Y-127417338D01*
X139826590Y-127436566D01*
X139840685Y-127436132D01*
X139844100Y-127428002D01*
X140352121Y-127428002D01*
X140356094Y-127441533D01*
X140362196Y-127442410D01*
X140534221Y-127379116D01*
X140545627Y-127373554D01*
X140708014Y-127272870D01*
X140718075Y-127265122D01*
X140856892Y-127133849D01*
X140865194Y-127124231D01*
X140974776Y-126967731D01*
X140980976Y-126956637D01*
X141056853Y-126781296D01*
X141060695Y-126769184D01*
X141100081Y-126580654D01*
X141101323Y-126571087D01*
X141101334Y-126570889D01*
X141101421Y-126567556D01*
X141101421Y-126183819D01*
X141096946Y-126168580D01*
X141095556Y-126167375D01*
X141087873Y-126165704D01*
X140370236Y-126165704D01*
X140354997Y-126170179D01*
X140353792Y-126171569D01*
X140352121Y-126179252D01*
X140352121Y-127428002D01*
X139844100Y-127428002D01*
X139844121Y-127427951D01*
X139844121Y-124395406D01*
X139840148Y-124381875D01*
X139834046Y-124380998D01*
X139662021Y-124444292D01*
X139650615Y-124449854D01*
X139488228Y-124550538D01*
X139478167Y-124558286D01*
X139339350Y-124689559D01*
X139331048Y-124699177D01*
X139221466Y-124855677D01*
X139215266Y-124866771D01*
X139139389Y-125042112D01*
X139135547Y-125054224D01*
X139096161Y-125242754D01*
X139094919Y-125252321D01*
X139094908Y-125252519D01*
X139094821Y-125255852D01*
X139094821Y-125749684D01*
X139074819Y-125817805D01*
X139021163Y-125864298D01*
X138950889Y-125874402D01*
X138920603Y-125866093D01*
X138832562Y-125829625D01*
X138832559Y-125829624D01*
X138824932Y-125826465D01*
X138759153Y-125817805D01*
X138711574Y-125811541D01*
X138711573Y-125811541D01*
X138707487Y-125811003D01*
X138628749Y-125811003D01*
X138624663Y-125811541D01*
X138624662Y-125811541D01*
X138577083Y-125817805D01*
X138511304Y-125826465D01*
X138365177Y-125886993D01*
X138358625Y-125892020D01*
X138351472Y-125896150D01*
X138350811Y-125895004D01*
X138292499Y-125917545D01*
X138222950Y-125903278D01*
X138172156Y-125853676D01*
X138156019Y-125791982D01*
X138156019Y-125226164D01*
X138155245Y-125221276D01*
X138155244Y-125221266D01*
X138152971Y-125206918D01*
X138162069Y-125136507D01*
X138188324Y-125098110D01*
X139488757Y-123797677D01*
X139551069Y-123763651D01*
X139577852Y-123760772D01*
X140003386Y-123760772D01*
X140071507Y-123780774D01*
X140092481Y-123797677D01*
X140259112Y-123964308D01*
X140293138Y-124026620D01*
X140294124Y-124032293D01*
X140294509Y-124033672D01*
X140295673Y-124042573D01*
X140352871Y-124172566D01*
X140358646Y-124179436D01*
X140358649Y-124179441D01*
X140378290Y-124202807D01*
X140406811Y-124267823D01*
X140395655Y-124337938D01*
X140357476Y-124382708D01*
X140352121Y-124395457D01*
X140352121Y-125639589D01*
X140356596Y-125654828D01*
X140357986Y-125656033D01*
X140365669Y-125657704D01*
X141083306Y-125657704D01*
X141098545Y-125653229D01*
X141099750Y-125651839D01*
X141101421Y-125644156D01*
X141101421Y-125305163D01*
X141101098Y-125298788D01*
X141092167Y-125210863D01*
X141105183Y-125141070D01*
X141153865Y-125089393D01*
X141222758Y-125072239D01*
X141287341Y-125093243D01*
X141305004Y-125105001D01*
X141305006Y-125105002D01*
X141312477Y-125109975D01*
X141321041Y-125112651D01*
X141321044Y-125112652D01*
X141439468Y-125149651D01*
X141439472Y-125149652D01*
X141448035Y-125152327D01*
X141516572Y-125153583D01*
X141581055Y-125154765D01*
X141581058Y-125154765D01*
X141590031Y-125154929D01*
X141632257Y-125143417D01*
X141718388Y-125119935D01*
X141718391Y-125119934D01*
X141727050Y-125117573D01*
X141739453Y-125109958D01*
X141840425Y-125047961D01*
X141848077Y-125043263D01*
X141858925Y-125031279D01*
X141937354Y-124944631D01*
X141937355Y-124944630D01*
X141943382Y-124937971D01*
X141977107Y-124868364D01*
X142001391Y-124818241D01*
X142001391Y-124818240D01*
X142005305Y-124810162D01*
X142028867Y-124670110D01*
X142029017Y-124657872D01*
X142015561Y-124563909D01*
X142010157Y-124526173D01*
X142010156Y-124526170D01*
X142008884Y-124517287D01*
X142002274Y-124502749D01*
X141953819Y-124396177D01*
X141953817Y-124396174D01*
X141950102Y-124388003D01*
X141857397Y-124280414D01*
X141785259Y-124233656D01*
X141745756Y-124208051D01*
X141745754Y-124208050D01*
X141738222Y-124203168D01*
X141641222Y-124174160D01*
X141588228Y-124142538D01*
X141296237Y-123850546D01*
X141262212Y-123788234D01*
X141260610Y-123779337D01*
X141258884Y-123767287D01*
X141255170Y-123759118D01*
X141203819Y-123646177D01*
X141203817Y-123646174D01*
X141200102Y-123638003D01*
X141107397Y-123530414D01*
X141035677Y-123483927D01*
X140995753Y-123458049D01*
X140995751Y-123458048D01*
X140988222Y-123453168D01*
X140979625Y-123450597D01*
X140979623Y-123450596D01*
X140896870Y-123425848D01*
X140891221Y-123424159D01*
X140838229Y-123392538D01*
X140567924Y-123122234D01*
X140533899Y-123059921D01*
X140531019Y-123033138D01*
X140531019Y-122532605D01*
X140551021Y-122464484D01*
X140567924Y-122443510D01*
X140589015Y-122422419D01*
X140644967Y-122389951D01*
X140682272Y-122379781D01*
X140718388Y-122369935D01*
X140718391Y-122369934D01*
X140727050Y-122367573D01*
X140743274Y-122357612D01*
X140840425Y-122297961D01*
X140848077Y-122293263D01*
X140860108Y-122279972D01*
X140937354Y-122194631D01*
X140937355Y-122194630D01*
X140943382Y-122187971D01*
X140967563Y-122138063D01*
X141001391Y-122068241D01*
X141001391Y-122068240D01*
X141005305Y-122060162D01*
X141009553Y-122034912D01*
X141044712Y-121966722D01*
X141339015Y-121672419D01*
X141394967Y-121639951D01*
X141420012Y-121633123D01*
X141468388Y-121619935D01*
X141468391Y-121619934D01*
X141477050Y-121617573D01*
X141503603Y-121601270D01*
X141553134Y-121570858D01*
X141598077Y-121543263D01*
X141635255Y-121502190D01*
X141687354Y-121444631D01*
X141687355Y-121444630D01*
X141693382Y-121437971D01*
X141702777Y-121418581D01*
X141751391Y-121318241D01*
X141751391Y-121318240D01*
X141755305Y-121310162D01*
X141770388Y-121220510D01*
X141778060Y-121174908D01*
X141778060Y-121174905D01*
X141778867Y-121170110D01*
X141779017Y-121157872D01*
X141761585Y-121036147D01*
X141760157Y-121026173D01*
X141760156Y-121026170D01*
X141758884Y-121017287D01*
X141744594Y-120985857D01*
X141703819Y-120896177D01*
X141703817Y-120896174D01*
X141700102Y-120888003D01*
X141607397Y-120780414D01*
X141529327Y-120729811D01*
X141495753Y-120708049D01*
X141495751Y-120708048D01*
X141488222Y-120703168D01*
X141479625Y-120700597D01*
X141479623Y-120700596D01*
X141384348Y-120672103D01*
X141324814Y-120633421D01*
X141295644Y-120568694D01*
X141306099Y-120498471D01*
X141331355Y-120462291D01*
X141670556Y-120123090D01*
X141689649Y-120107420D01*
X141690134Y-120107096D01*
X141700450Y-120100203D01*
X141756346Y-120016549D01*
X141771019Y-119942783D01*
X141775974Y-119917872D01*
X141773440Y-119905131D01*
X141771019Y-119880551D01*
X141771019Y-111859825D01*
X141773440Y-111835243D01*
X141773553Y-111834675D01*
X141775974Y-111822504D01*
X141756346Y-111723827D01*
X141749452Y-111713509D01*
X141749451Y-111713507D01*
X141733489Y-111689619D01*
X141714561Y-111661291D01*
X141714560Y-111661290D01*
X141700450Y-111640173D01*
X141689649Y-111632956D01*
X141670556Y-111617286D01*
X139567924Y-109514654D01*
X139533898Y-109452342D01*
X139531019Y-109425559D01*
X139531019Y-108445193D01*
X139533440Y-108420613D01*
X139533553Y-108420045D01*
X139533553Y-108420043D01*
X139535974Y-108407872D01*
X139529351Y-108374575D01*
X139526930Y-108349994D01*
X139526930Y-107191104D01*
X139529351Y-107166524D01*
X139529464Y-107165956D01*
X139529464Y-107165954D01*
X139531885Y-107153783D01*
X139512257Y-107055106D01*
X139470472Y-106992571D01*
X139456361Y-106971452D01*
X139445557Y-106964233D01*
X139426464Y-106948563D01*
X138317309Y-105839407D01*
X138301639Y-105820314D01*
X138301315Y-105819829D01*
X138294422Y-105809513D01*
X138273305Y-105795403D01*
X138273304Y-105795402D01*
X138221085Y-105760510D01*
X138221083Y-105760509D01*
X138210768Y-105753617D01*
X138198601Y-105751197D01*
X138198599Y-105751196D01*
X138191041Y-105749693D01*
X138137002Y-105738944D01*
X138112091Y-105733989D01*
X138099920Y-105736410D01*
X138099918Y-105736410D01*
X138099350Y-105736523D01*
X138074770Y-105738944D01*
X137229875Y-105738944D01*
X137161754Y-105718942D01*
X137140780Y-105702039D01*
X137086267Y-105647526D01*
X137057507Y-105632872D01*
X139440246Y-105632872D01*
X139440936Y-105639437D01*
X139458812Y-105809513D01*
X139460085Y-105821629D01*
X139518736Y-106002137D01*
X139613634Y-106166506D01*
X139740633Y-106307553D01*
X139745975Y-106311434D01*
X139745977Y-106311436D01*
X139888840Y-106415232D01*
X139894182Y-106419113D01*
X139900210Y-106421797D01*
X139900212Y-106421798D01*
X140061540Y-106493626D01*
X140067571Y-106496311D01*
X140141434Y-106512011D01*
X140246763Y-106534400D01*
X140246767Y-106534400D01*
X140253220Y-106535772D01*
X140443018Y-106535772D01*
X140449471Y-106534400D01*
X140449475Y-106534400D01*
X140554804Y-106512011D01*
X140628667Y-106496311D01*
X140634698Y-106493626D01*
X140796026Y-106421798D01*
X140796028Y-106421797D01*
X140802056Y-106419113D01*
X140807398Y-106415232D01*
X140950261Y-106311436D01*
X140950263Y-106311434D01*
X140955605Y-106307553D01*
X141082604Y-106166506D01*
X141177502Y-106002137D01*
X141236153Y-105821629D01*
X141237427Y-105809513D01*
X141255302Y-105639437D01*
X141255992Y-105632872D01*
X141730246Y-105632872D01*
X141730936Y-105639437D01*
X141748812Y-105809513D01*
X141750085Y-105821629D01*
X141808736Y-106002137D01*
X141903634Y-106166506D01*
X142030633Y-106307553D01*
X142035975Y-106311434D01*
X142035977Y-106311436D01*
X142178840Y-106415232D01*
X142184182Y-106419113D01*
X142190210Y-106421797D01*
X142190212Y-106421798D01*
X142351540Y-106493626D01*
X142357571Y-106496311D01*
X142431434Y-106512011D01*
X142536763Y-106534400D01*
X142536767Y-106534400D01*
X142543220Y-106535772D01*
X142733018Y-106535772D01*
X142739471Y-106534400D01*
X142739475Y-106534400D01*
X142844804Y-106512011D01*
X142918667Y-106496311D01*
X142924698Y-106493626D01*
X143086026Y-106421798D01*
X143086028Y-106421797D01*
X143092056Y-106419113D01*
X143097398Y-106415232D01*
X143240261Y-106311436D01*
X143240263Y-106311434D01*
X143245605Y-106307553D01*
X143372604Y-106166506D01*
X143467502Y-106002137D01*
X143526153Y-105821629D01*
X143527427Y-105809513D01*
X143545302Y-105639437D01*
X143545992Y-105632872D01*
X143541645Y-105591510D01*
X143526843Y-105450678D01*
X143526843Y-105450676D01*
X143526153Y-105444115D01*
X143467502Y-105263607D01*
X143372604Y-105099238D01*
X143245605Y-104958191D01*
X143092056Y-104846631D01*
X143086028Y-104843947D01*
X143086026Y-104843946D01*
X142924698Y-104772118D01*
X142924696Y-104772118D01*
X142918667Y-104769433D01*
X142825843Y-104749703D01*
X142739475Y-104731344D01*
X142739471Y-104731344D01*
X142733018Y-104729972D01*
X142543220Y-104729972D01*
X142536767Y-104731344D01*
X142536763Y-104731344D01*
X142450396Y-104749702D01*
X142357571Y-104769433D01*
X142351542Y-104772117D01*
X142351540Y-104772118D01*
X142190213Y-104843946D01*
X142190211Y-104843947D01*
X142184183Y-104846631D01*
X142178842Y-104850511D01*
X142178841Y-104850512D01*
X142035977Y-104954308D01*
X142035975Y-104954310D01*
X142030633Y-104958191D01*
X141903634Y-105099238D01*
X141808736Y-105263607D01*
X141750085Y-105444115D01*
X141749395Y-105450676D01*
X141749395Y-105450678D01*
X141734593Y-105591510D01*
X141730246Y-105632872D01*
X141255992Y-105632872D01*
X141251645Y-105591510D01*
X141236843Y-105450678D01*
X141236843Y-105450676D01*
X141236153Y-105444115D01*
X141177502Y-105263607D01*
X141082604Y-105099238D01*
X140955605Y-104958191D01*
X140802056Y-104846631D01*
X140796028Y-104843947D01*
X140796026Y-104843946D01*
X140634698Y-104772118D01*
X140634696Y-104772118D01*
X140628667Y-104769433D01*
X140535843Y-104749703D01*
X140449475Y-104731344D01*
X140449471Y-104731344D01*
X140443018Y-104729972D01*
X140253220Y-104729972D01*
X140246767Y-104731344D01*
X140246763Y-104731344D01*
X140160396Y-104749702D01*
X140067571Y-104769433D01*
X140061542Y-104772117D01*
X140061540Y-104772118D01*
X139900213Y-104843946D01*
X139900211Y-104843947D01*
X139894183Y-104846631D01*
X139888842Y-104850511D01*
X139888841Y-104850512D01*
X139745977Y-104954308D01*
X139745975Y-104954310D01*
X139740633Y-104958191D01*
X139613634Y-105099238D01*
X139518736Y-105263607D01*
X139460085Y-105444115D01*
X139459395Y-105450676D01*
X139459395Y-105450678D01*
X139444593Y-105591510D01*
X139440246Y-105632872D01*
X137057507Y-105632872D01*
X136997520Y-105602307D01*
X136976458Y-105591575D01*
X136976457Y-105591575D01*
X136967624Y-105587074D01*
X136836106Y-105566244D01*
X136704588Y-105587074D01*
X136695878Y-105591512D01*
X136624988Y-105593538D01*
X136564190Y-105556875D01*
X136532864Y-105493163D01*
X136531019Y-105471677D01*
X136531019Y-102239818D01*
X136551021Y-102171697D01*
X136567923Y-102150723D01*
X136989617Y-101729028D01*
X137051930Y-101695003D01*
X137104909Y-101694876D01*
X137183569Y-101711595D01*
X137203220Y-101715772D01*
X137393018Y-101715772D01*
X137399471Y-101714400D01*
X137399475Y-101714400D01*
X137491326Y-101694876D01*
X137578667Y-101676311D01*
X137584698Y-101673626D01*
X137746026Y-101601798D01*
X137746028Y-101601797D01*
X137752056Y-101599113D01*
X137770640Y-101585611D01*
X137900261Y-101491436D01*
X137900263Y-101491434D01*
X137905605Y-101487553D01*
X138032604Y-101346506D01*
X138091664Y-101244210D01*
X138124198Y-101187860D01*
X138124199Y-101187859D01*
X138127502Y-101182137D01*
X138186153Y-101001629D01*
X138188809Y-100976358D01*
X138215822Y-100910702D01*
X138274044Y-100870072D01*
X138344989Y-100867369D01*
X138406133Y-100903451D01*
X138438063Y-100966862D01*
X138439429Y-100976356D01*
X138442085Y-101001629D01*
X138500736Y-101182137D01*
X138504039Y-101187859D01*
X138504040Y-101187860D01*
X138536574Y-101244210D01*
X138595634Y-101346506D01*
X138722633Y-101487553D01*
X138727975Y-101491434D01*
X138727977Y-101491436D01*
X138857598Y-101585611D01*
X138876182Y-101599113D01*
X138882210Y-101601797D01*
X138882212Y-101601798D01*
X139043540Y-101673626D01*
X139049571Y-101676311D01*
X139136912Y-101694876D01*
X139228763Y-101714400D01*
X139228767Y-101714400D01*
X139235220Y-101715772D01*
X139425018Y-101715772D01*
X139431471Y-101714400D01*
X139431475Y-101714400D01*
X139523326Y-101694876D01*
X139610667Y-101676311D01*
X139616698Y-101673626D01*
X139778026Y-101601798D01*
X139778028Y-101601797D01*
X139784056Y-101599113D01*
X139802640Y-101585611D01*
X139932261Y-101491436D01*
X139932263Y-101491434D01*
X139937605Y-101487553D01*
X140064604Y-101346506D01*
X140123664Y-101244210D01*
X140156198Y-101187860D01*
X140156199Y-101187859D01*
X140159502Y-101182137D01*
X140218153Y-101001629D01*
X140237992Y-100812872D01*
X140218153Y-100624115D01*
X140159502Y-100443607D01*
X140138938Y-100407988D01*
X140084669Y-100313992D01*
X140064604Y-100279238D01*
X139981059Y-100186451D01*
X139942027Y-100143102D01*
X139942026Y-100143101D01*
X139937605Y-100138191D01*
X139882201Y-100097937D01*
X139789398Y-100030512D01*
X139789397Y-100030511D01*
X139784056Y-100026631D01*
X139778028Y-100023947D01*
X139778026Y-100023946D01*
X139616698Y-99952118D01*
X139616696Y-99952118D01*
X139610667Y-99949433D01*
X139516048Y-99929321D01*
X139508902Y-99927802D01*
X142245380Y-99927802D01*
X142265080Y-100178108D01*
X142266623Y-100187855D01*
X142325236Y-100431995D01*
X142328285Y-100441380D01*
X142424367Y-100673342D01*
X142428848Y-100682136D01*
X142558523Y-100893747D01*
X142567789Y-100899794D01*
X142577994Y-100893787D01*
X143536097Y-99935684D01*
X143543711Y-99921740D01*
X143543580Y-99919907D01*
X143539329Y-99913292D01*
X142579453Y-98953416D01*
X142565915Y-98946023D01*
X142559384Y-98950592D01*
X142428848Y-99163608D01*
X142424367Y-99172402D01*
X142328285Y-99404364D01*
X142325236Y-99413749D01*
X142266623Y-99657889D01*
X142265080Y-99667636D01*
X142245380Y-99917942D01*
X142245380Y-99927802D01*
X139508902Y-99927802D01*
X139431475Y-99911344D01*
X139431471Y-99911344D01*
X139425018Y-99909972D01*
X139235220Y-99909972D01*
X139228767Y-99911344D01*
X139228763Y-99911344D01*
X139144190Y-99929321D01*
X139049571Y-99949433D01*
X139043542Y-99952117D01*
X139043540Y-99952118D01*
X138954421Y-99991797D01*
X138884054Y-100001231D01*
X138861762Y-99990793D01*
X138861620Y-100005702D01*
X138822669Y-100065060D01*
X138815131Y-100070988D01*
X138803135Y-100079703D01*
X138727977Y-100134308D01*
X138727975Y-100134310D01*
X138722633Y-100138191D01*
X138718212Y-100143101D01*
X138718211Y-100143102D01*
X138679180Y-100186451D01*
X138595634Y-100279238D01*
X138575569Y-100313992D01*
X138521301Y-100407988D01*
X138500736Y-100443607D01*
X138442085Y-100624115D01*
X138441396Y-100630674D01*
X138441395Y-100630677D01*
X138439429Y-100649386D01*
X138412416Y-100715042D01*
X138354194Y-100755672D01*
X138283249Y-100758375D01*
X138222105Y-100722293D01*
X138190175Y-100658882D01*
X138188809Y-100649386D01*
X138186843Y-100630677D01*
X138186842Y-100630674D01*
X138186153Y-100624115D01*
X138127502Y-100443607D01*
X138106938Y-100407988D01*
X138052669Y-100313992D01*
X138032604Y-100279238D01*
X137949059Y-100186451D01*
X137910027Y-100143102D01*
X137910026Y-100143101D01*
X137905605Y-100138191D01*
X137813111Y-100070990D01*
X137769758Y-100014769D01*
X137767753Y-99991424D01*
X137753604Y-99999414D01*
X137682723Y-99995361D01*
X137673816Y-99991796D01*
X137584698Y-99952118D01*
X137584696Y-99952118D01*
X137578667Y-99949433D01*
X137414431Y-99914523D01*
X137351959Y-99880796D01*
X137317637Y-99818646D01*
X137322365Y-99747807D01*
X137337415Y-99719007D01*
X137372590Y-99668771D01*
X137378063Y-99659293D01*
X137394890Y-99623207D01*
X137441808Y-99569922D01*
X137510085Y-99550461D01*
X137578045Y-99571003D01*
X137602721Y-99592147D01*
X137702211Y-99702642D01*
X137706633Y-99707553D01*
X137711975Y-99711434D01*
X137711977Y-99711436D01*
X137799126Y-99774753D01*
X137842480Y-99830975D01*
X137844485Y-99854320D01*
X137858634Y-99846330D01*
X137929515Y-99850383D01*
X137938422Y-99853948D01*
X138003202Y-99882790D01*
X138033571Y-99896311D01*
X138104296Y-99911344D01*
X138212763Y-99934400D01*
X138212767Y-99934400D01*
X138219220Y-99935772D01*
X138409018Y-99935772D01*
X138415471Y-99934400D01*
X138415475Y-99934400D01*
X138523942Y-99911344D01*
X138594667Y-99896311D01*
X138689818Y-99853947D01*
X138760185Y-99844513D01*
X138782477Y-99854951D01*
X138782619Y-99840043D01*
X138821569Y-99780685D01*
X138829111Y-99774754D01*
X138916261Y-99711436D01*
X138916263Y-99711434D01*
X138921605Y-99707553D01*
X138926027Y-99702642D01*
X139044185Y-99571414D01*
X139044186Y-99571413D01*
X139048604Y-99566506D01*
X139143502Y-99402137D01*
X139202153Y-99221629D01*
X139221992Y-99032872D01*
X139206708Y-98887450D01*
X139202843Y-98850678D01*
X139202843Y-98850676D01*
X139202153Y-98844115D01*
X139143502Y-98663607D01*
X139096699Y-98582542D01*
X142931197Y-98582542D01*
X142937204Y-98592747D01*
X143895307Y-99550850D01*
X143909251Y-99558464D01*
X143911084Y-99558333D01*
X143917699Y-99554082D01*
X144877575Y-98594206D01*
X144884968Y-98580668D01*
X144880399Y-98574137D01*
X144667383Y-98443601D01*
X144658589Y-98439120D01*
X144426627Y-98343038D01*
X144417242Y-98339989D01*
X144173102Y-98281376D01*
X144163355Y-98279833D01*
X143913049Y-98260133D01*
X143903189Y-98260133D01*
X143652883Y-98279833D01*
X143643136Y-98281376D01*
X143398996Y-98339989D01*
X143389611Y-98343038D01*
X143157649Y-98439120D01*
X143148855Y-98443601D01*
X142937244Y-98573276D01*
X142931197Y-98582542D01*
X139096699Y-98582542D01*
X139048604Y-98499238D01*
X138930624Y-98368207D01*
X138926027Y-98363102D01*
X138926026Y-98363101D01*
X138921605Y-98358191D01*
X138915419Y-98353696D01*
X138773398Y-98250512D01*
X138773397Y-98250511D01*
X138768056Y-98246631D01*
X138762028Y-98243947D01*
X138762026Y-98243946D01*
X138600698Y-98172118D01*
X138600696Y-98172118D01*
X138594667Y-98169433D01*
X138501842Y-98149702D01*
X138415475Y-98131344D01*
X138415471Y-98131344D01*
X138409018Y-98129972D01*
X138219220Y-98129972D01*
X138212767Y-98131344D01*
X138212763Y-98131344D01*
X138126395Y-98149703D01*
X138033571Y-98169433D01*
X138027542Y-98172117D01*
X138027540Y-98172118D01*
X137866213Y-98243946D01*
X137866211Y-98243947D01*
X137860183Y-98246631D01*
X137854842Y-98250511D01*
X137854841Y-98250512D01*
X137711977Y-98354308D01*
X137711975Y-98354310D01*
X137706633Y-98358191D01*
X137702212Y-98363101D01*
X137702211Y-98363102D01*
X137602721Y-98473597D01*
X137542275Y-98510837D01*
X137471291Y-98509485D01*
X137412307Y-98469972D01*
X137394890Y-98442537D01*
X137378065Y-98406455D01*
X137372585Y-98396965D01*
X137343708Y-98355723D01*
X137333232Y-98347349D01*
X137319785Y-98354417D01*
X136641329Y-99032872D01*
X136371214Y-99302988D01*
X136308902Y-99337013D01*
X136238086Y-99331948D01*
X136193024Y-99302987D01*
X135922909Y-99032872D01*
X135243732Y-98353696D01*
X135231958Y-98347266D01*
X135219943Y-98356562D01*
X135191653Y-98396965D01*
X135186173Y-98406455D01*
X135169348Y-98442537D01*
X135122430Y-98495822D01*
X135054153Y-98515283D01*
X134986193Y-98494741D01*
X134961517Y-98473597D01*
X134862027Y-98363102D01*
X134862026Y-98363101D01*
X134857605Y-98358191D01*
X134851419Y-98353696D01*
X134709398Y-98250512D01*
X134709397Y-98250511D01*
X134704056Y-98246631D01*
X134698028Y-98243947D01*
X134698026Y-98243946D01*
X134536698Y-98172118D01*
X134536696Y-98172118D01*
X134530667Y-98169433D01*
X134437842Y-98149702D01*
X134351475Y-98131344D01*
X134351471Y-98131344D01*
X134345018Y-98129972D01*
X134155220Y-98129972D01*
X134148767Y-98131344D01*
X134148763Y-98131344D01*
X134062395Y-98149703D01*
X133969571Y-98169433D01*
X133963542Y-98172117D01*
X133963540Y-98172118D01*
X133802213Y-98243946D01*
X133802211Y-98243947D01*
X133796183Y-98246631D01*
X133790842Y-98250511D01*
X133790841Y-98250512D01*
X133647977Y-98354308D01*
X133647975Y-98354310D01*
X133642633Y-98358191D01*
X133638212Y-98363101D01*
X133638211Y-98363102D01*
X133633615Y-98368207D01*
X133515634Y-98499238D01*
X133420736Y-98663607D01*
X133366851Y-98829447D01*
X133326777Y-98888052D01*
X133261380Y-98915689D01*
X133191424Y-98903582D01*
X133139118Y-98855576D01*
X133121018Y-98790510D01*
X133121018Y-98267816D01*
X133117576Y-98250512D01*
X133114569Y-98235389D01*
X133114567Y-98235383D01*
X133112147Y-98223214D01*
X133078353Y-98172638D01*
X133038098Y-98145740D01*
X133038094Y-98145737D01*
X133038091Y-98145736D01*
X133027777Y-98138844D01*
X133015610Y-98136424D01*
X133015608Y-98136423D01*
X132990073Y-98131344D01*
X132983176Y-98129972D01*
X132218243Y-98129972D01*
X131453063Y-98129973D01*
X131436409Y-98133285D01*
X131420636Y-98136422D01*
X131420634Y-98136423D01*
X131408461Y-98138844D01*
X131357885Y-98172638D01*
X131350992Y-98182954D01*
X131330984Y-98212897D01*
X131330983Y-98212900D01*
X131324091Y-98223214D01*
X131315219Y-98267815D01*
X131315220Y-99797928D01*
X131316428Y-99804000D01*
X131319434Y-99819113D01*
X131324091Y-99842530D01*
X131330986Y-99852850D01*
X131330987Y-99852851D01*
X131331720Y-99853948D01*
X131357885Y-99893106D01*
X131368201Y-99899999D01*
X131398144Y-99920007D01*
X131398147Y-99920008D01*
X131408461Y-99926900D01*
X131420628Y-99929320D01*
X131420630Y-99929321D01*
X131430178Y-99931220D01*
X131453062Y-99935772D01*
X131649219Y-99935772D01*
X131717340Y-99955774D01*
X131763833Y-100009430D01*
X131775219Y-100061772D01*
X131775219Y-101370551D01*
X131772798Y-101395131D01*
X131772716Y-101395546D01*
X131770264Y-101407872D01*
X131775219Y-101432783D01*
X131789892Y-101506549D01*
X131845788Y-101590203D01*
X131856104Y-101597096D01*
X131856589Y-101597420D01*
X131875682Y-101613090D01*
X132572901Y-102310309D01*
X132588567Y-102329396D01*
X132595788Y-102340203D01*
X132606104Y-102347096D01*
X132616905Y-102354313D01*
X132616906Y-102354314D01*
X132669122Y-102389204D01*
X132669124Y-102389205D01*
X132679442Y-102396099D01*
X132778119Y-102415727D01*
X132790290Y-102413306D01*
X132790292Y-102413306D01*
X132790860Y-102413193D01*
X132815440Y-102410772D01*
X133621174Y-102410772D01*
X133689295Y-102430774D01*
X133710269Y-102447677D01*
X134988314Y-103725722D01*
X135022340Y-103788034D01*
X135025219Y-103814817D01*
X135025219Y-107617216D01*
X135005217Y-107685337D01*
X134951561Y-107731830D01*
X134881287Y-107741934D01*
X134816707Y-107712440D01*
X134786952Y-107674418D01*
X134772850Y-107646741D01*
X134750396Y-107602672D01*
X134662951Y-107515227D01*
X134606496Y-107486462D01*
X134561600Y-107463586D01*
X134561597Y-107463585D01*
X134552763Y-107459084D01*
X134461341Y-107444604D01*
X133799897Y-107444604D01*
X133708475Y-107459084D01*
X133699641Y-107463585D01*
X133699638Y-107463586D01*
X133654742Y-107486462D01*
X133598287Y-107515227D01*
X133510842Y-107602672D01*
X133488388Y-107646741D01*
X133459201Y-107704023D01*
X133459200Y-107704026D01*
X133454699Y-107712860D01*
X133440219Y-107804282D01*
X133440219Y-108340726D01*
X133440578Y-108342994D01*
X133426136Y-108411751D01*
X133404214Y-108441254D01*
X133290544Y-108554924D01*
X133228232Y-108588950D01*
X133157417Y-108583885D01*
X133100581Y-108541338D01*
X133075770Y-108474818D01*
X133080798Y-108433603D01*
X133081539Y-108432148D01*
X133096019Y-108340726D01*
X133096019Y-107804282D01*
X133081539Y-107712860D01*
X133077038Y-107704026D01*
X133077037Y-107704023D01*
X133047850Y-107646741D01*
X133025396Y-107602672D01*
X132937951Y-107515227D01*
X132881496Y-107486462D01*
X132836600Y-107463586D01*
X132836597Y-107463585D01*
X132827763Y-107459084D01*
X132736341Y-107444604D01*
X132074897Y-107444604D01*
X131983475Y-107459084D01*
X131974641Y-107463585D01*
X131974638Y-107463586D01*
X131929742Y-107486462D01*
X131873287Y-107515227D01*
X131785842Y-107602672D01*
X131763388Y-107646741D01*
X131734201Y-107704023D01*
X131734200Y-107704026D01*
X131729699Y-107712860D01*
X131715219Y-107804282D01*
X131715219Y-108340726D01*
X131715578Y-108342994D01*
X131701136Y-108411751D01*
X131679214Y-108441254D01*
X131023762Y-109096706D01*
X131004669Y-109112376D01*
X130993868Y-109119593D01*
X130986975Y-109129909D01*
X130979758Y-109140710D01*
X130979757Y-109140711D01*
X130961823Y-109167552D01*
X130961820Y-109167554D01*
X130961821Y-109167555D01*
X130937972Y-109203247D01*
X130929028Y-109248214D01*
X130918344Y-109301924D01*
X130920765Y-109314095D01*
X130920765Y-109314097D01*
X130920878Y-109314665D01*
X130923299Y-109339245D01*
X130923299Y-110768631D01*
X130920878Y-110793211D01*
X130918344Y-110805952D01*
X130920765Y-110818123D01*
X130932762Y-110878434D01*
X130937972Y-110904629D01*
X130944866Y-110914946D01*
X130944867Y-110914949D01*
X130971763Y-110955201D01*
X130971765Y-110955203D01*
X130993868Y-110988283D01*
X131004184Y-110995176D01*
X131004669Y-110995500D01*
X131023762Y-111011170D01*
X131253314Y-111240722D01*
X131287340Y-111303034D01*
X131290219Y-111329817D01*
X131290219Y-111364908D01*
X131270217Y-111433029D01*
X131234220Y-111469673D01*
X131218203Y-111480375D01*
X131218201Y-111480377D01*
X131207885Y-111487270D01*
X131200992Y-111497586D01*
X131180984Y-111527529D01*
X131180983Y-111527532D01*
X131174091Y-111537846D01*
X131165219Y-111582447D01*
X131165220Y-113362560D01*
X131166428Y-113368632D01*
X131171624Y-113394758D01*
X131174091Y-113407162D01*
X131207885Y-113457738D01*
X131218201Y-113464631D01*
X131248144Y-113484639D01*
X131248147Y-113484640D01*
X131258461Y-113491532D01*
X131270628Y-113493952D01*
X131270630Y-113493953D01*
X131287372Y-113497283D01*
X131303062Y-113500404D01*
X131543099Y-113500404D01*
X131783175Y-113500403D01*
X131789246Y-113499196D01*
X131793231Y-113498803D01*
X131862985Y-113512031D01*
X131914513Y-113560871D01*
X131931457Y-113629816D01*
X131908436Y-113696977D01*
X131894677Y-113713291D01*
X131628264Y-113979704D01*
X131565952Y-114013730D01*
X131539169Y-114016609D01*
X131333673Y-114016609D01*
X131312768Y-114014863D01*
X131306325Y-114013779D01*
X131303902Y-114013562D01*
X131303897Y-114013561D01*
X131294346Y-114012704D01*
X131282368Y-114011630D01*
X131279944Y-114011600D01*
X131279937Y-114011600D01*
X131276661Y-114011560D01*
X131270026Y-114011479D01*
X131264355Y-114011848D01*
X131248458Y-114012882D01*
X131248450Y-114012883D01*
X131246019Y-114013041D01*
X131243599Y-114013388D01*
X131243595Y-114013388D01*
X131108687Y-114032708D01*
X131108681Y-114032709D01*
X131104242Y-114033345D01*
X131099936Y-114034604D01*
X131099932Y-114034605D01*
X131066119Y-114044493D01*
X131061817Y-114045751D01*
X130931438Y-114105031D01*
X130894201Y-114128845D01*
X130785700Y-114222335D01*
X130782755Y-114225711D01*
X130782753Y-114225713D01*
X130778045Y-114231110D01*
X130756643Y-114255644D01*
X130678743Y-114375829D01*
X130660203Y-114415954D01*
X130619167Y-114553172D01*
X130618505Y-114557604D01*
X130618504Y-114557607D01*
X130614996Y-114581080D01*
X130612634Y-114596887D01*
X130612462Y-114625115D01*
X130611836Y-114727571D01*
X130611759Y-114740108D01*
X130612099Y-114742588D01*
X130612224Y-114746449D01*
X130612224Y-115172504D01*
X130624091Y-115232162D01*
X130637683Y-115252503D01*
X130658897Y-115320254D01*
X130637683Y-115392505D01*
X130624091Y-115412846D01*
X130612224Y-115472504D01*
X130612224Y-115799078D01*
X130592222Y-115867199D01*
X130538566Y-115913692D01*
X130468292Y-115923796D01*
X130403712Y-115894302D01*
X130379079Y-115865381D01*
X130329571Y-115785376D01*
X130320540Y-115773982D01*
X130207871Y-115661509D01*
X130196460Y-115652497D01*
X130060937Y-115568960D01*
X130047759Y-115562816D01*
X129896234Y-115512557D01*
X129882868Y-115509691D01*
X129790230Y-115500200D01*
X129783815Y-115499872D01*
X129772115Y-115499872D01*
X129756876Y-115504347D01*
X129755671Y-115505737D01*
X129754000Y-115513420D01*
X129754000Y-116273257D01*
X129758475Y-116288496D01*
X129759865Y-116289701D01*
X129767548Y-116291372D01*
X130464885Y-116291372D01*
X130480124Y-116286897D01*
X130490904Y-116274457D01*
X130550630Y-116236074D01*
X130621627Y-116236074D01*
X130681353Y-116274458D01*
X130692687Y-116289731D01*
X130751589Y-116383085D01*
X130780238Y-116416746D01*
X130783593Y-116419709D01*
X130783594Y-116419710D01*
X130884231Y-116508589D01*
X130884236Y-116508593D01*
X130887589Y-116511554D01*
X130924531Y-116535821D01*
X131054176Y-116596690D01*
X131058463Y-116598001D01*
X131058464Y-116598001D01*
X131092167Y-116608305D01*
X131092170Y-116608306D01*
X131096446Y-116609613D01*
X131100867Y-116610301D01*
X131100870Y-116610302D01*
X131233543Y-116630959D01*
X131233548Y-116630959D01*
X131237964Y-116631647D01*
X131242430Y-116631702D01*
X131242435Y-116631702D01*
X131261979Y-116631940D01*
X131282161Y-116632187D01*
X131286603Y-116631606D01*
X131286606Y-116631606D01*
X131302993Y-116629463D01*
X131319330Y-116628399D01*
X131707354Y-116628399D01*
X131726738Y-116629899D01*
X131733544Y-116630959D01*
X131733549Y-116630959D01*
X131737965Y-116631647D01*
X131742431Y-116631702D01*
X131742436Y-116631702D01*
X131761987Y-116631941D01*
X131782161Y-116632187D01*
X131786603Y-116631606D01*
X131786606Y-116631606D01*
X131886865Y-116618496D01*
X131957005Y-116629497D01*
X131992297Y-116654337D01*
X133412370Y-118074410D01*
X133446396Y-118136722D01*
X133441331Y-118207537D01*
X133398784Y-118264373D01*
X133332264Y-118289184D01*
X133323275Y-118289505D01*
X133223450Y-118289505D01*
X133216629Y-118289875D01*
X133165767Y-118295399D01*
X133150512Y-118299026D01*
X133102658Y-118316965D01*
X133031850Y-118322148D01*
X132969334Y-118288078D01*
X132525430Y-117844174D01*
X132518003Y-117836070D01*
X132499341Y-117813829D01*
X132499340Y-117813828D01*
X132492257Y-117805387D01*
X132457574Y-117785362D01*
X132448313Y-117779462D01*
X132424515Y-117762799D01*
X132424512Y-117762798D01*
X132415485Y-117756477D01*
X132404842Y-117753625D01*
X132400960Y-117751815D01*
X132396923Y-117750346D01*
X132387380Y-117744836D01*
X132376530Y-117742923D01*
X132376528Y-117742922D01*
X132355522Y-117739218D01*
X132347928Y-117737879D01*
X132337213Y-117735504D01*
X132298510Y-117725134D01*
X132287536Y-117726094D01*
X132287534Y-117726094D01*
X132258609Y-117728625D01*
X132247627Y-117729104D01*
X131712550Y-117729104D01*
X131644429Y-117709102D01*
X131623455Y-117692199D01*
X131301249Y-117369993D01*
X131267223Y-117307681D01*
X131265617Y-117298760D01*
X131250157Y-117190805D01*
X131250156Y-117190802D01*
X131248884Y-117181919D01*
X131238294Y-117158627D01*
X131193819Y-117060809D01*
X131193817Y-117060806D01*
X131190102Y-117052635D01*
X131097397Y-116945046D01*
X131025052Y-116898154D01*
X130985753Y-116872681D01*
X130985751Y-116872680D01*
X130978222Y-116867800D01*
X130969625Y-116865229D01*
X130969623Y-116865228D01*
X130889251Y-116841192D01*
X130842156Y-116827108D01*
X130833180Y-116827053D01*
X130833179Y-116827053D01*
X130773870Y-116826691D01*
X130700139Y-116826240D01*
X130619898Y-116849173D01*
X130548904Y-116848661D01*
X130502762Y-116823249D01*
X130477135Y-116801043D01*
X130469452Y-116799372D01*
X128535115Y-116799372D01*
X128519876Y-116803847D01*
X128518671Y-116805237D01*
X128517000Y-116812920D01*
X128517000Y-116891638D01*
X128517337Y-116898154D01*
X128527075Y-116992004D01*
X128529968Y-117005400D01*
X128580488Y-117156825D01*
X128586653Y-117169987D01*
X128670426Y-117305364D01*
X128679460Y-117316762D01*
X128792129Y-117429235D01*
X128803540Y-117438247D01*
X128939423Y-117522006D01*
X128986916Y-117574778D01*
X128998340Y-117644850D01*
X128970066Y-117709973D01*
X128962402Y-117718361D01*
X128942723Y-117738040D01*
X128918059Y-117786447D01*
X128891082Y-117839391D01*
X128891081Y-117839394D01*
X128886580Y-117848228D01*
X128872100Y-117939650D01*
X128872100Y-118601094D01*
X128886580Y-118692516D01*
X128891081Y-118701350D01*
X128891082Y-118701353D01*
X128913958Y-118746249D01*
X128942723Y-118802704D01*
X129030168Y-118890149D01*
X129086623Y-118918914D01*
X129131519Y-118941790D01*
X129131522Y-118941791D01*
X129140356Y-118946292D01*
X129231778Y-118960772D01*
X129768222Y-118960772D01*
X129859644Y-118946292D01*
X129868478Y-118941791D01*
X129868481Y-118941790D01*
X129913377Y-118918914D01*
X129969832Y-118890149D01*
X130057277Y-118802704D01*
X130086042Y-118746249D01*
X130108918Y-118701353D01*
X130108919Y-118701350D01*
X130113420Y-118692516D01*
X130127900Y-118601094D01*
X130127900Y-118563904D01*
X130147902Y-118495783D01*
X130201558Y-118449290D01*
X130253900Y-118437904D01*
X130723673Y-118437904D01*
X130791794Y-118457906D01*
X130812768Y-118474808D01*
X131035990Y-118698029D01*
X131051660Y-118717123D01*
X131058877Y-118727924D01*
X131069193Y-118734817D01*
X131099152Y-118754835D01*
X131109221Y-118761563D01*
X131154749Y-118816040D01*
X131165219Y-118866328D01*
X131165220Y-120562560D01*
X131174091Y-120607162D01*
X131207885Y-120657738D01*
X131218201Y-120664631D01*
X131218203Y-120664633D01*
X131234220Y-120675335D01*
X131279748Y-120729811D01*
X131290219Y-120780100D01*
X131290219Y-120943039D01*
X131287798Y-120967619D01*
X131285264Y-120980360D01*
X131290219Y-121005271D01*
X131304892Y-121079037D01*
X131360788Y-121162691D01*
X131371104Y-121169584D01*
X131372714Y-121171194D01*
X131406740Y-121233506D01*
X131409619Y-121260289D01*
X131409619Y-121950504D01*
X131389617Y-122018625D01*
X131335961Y-122065118D01*
X131283619Y-122076504D01*
X130128234Y-122076504D01*
X130112995Y-122080979D01*
X130111790Y-122082369D01*
X130110119Y-122090052D01*
X130110119Y-122106270D01*
X130110456Y-122112786D01*
X130120194Y-122206636D01*
X130123087Y-122220032D01*
X130173607Y-122371457D01*
X130179772Y-122384619D01*
X130263545Y-122519996D01*
X130272579Y-122531394D01*
X130385248Y-122643867D01*
X130396659Y-122652879D01*
X130481155Y-122704963D01*
X130528648Y-122757735D01*
X130540072Y-122827807D01*
X130527306Y-122869425D01*
X130484201Y-122954023D01*
X130484200Y-122954026D01*
X130479699Y-122962860D01*
X130465219Y-123054282D01*
X130465219Y-123590726D01*
X130479699Y-123682148D01*
X130484200Y-123690982D01*
X130484201Y-123690985D01*
X130500614Y-123723196D01*
X130535842Y-123792336D01*
X130623287Y-123879781D01*
X130645055Y-123890872D01*
X130724638Y-123931422D01*
X130724641Y-123931423D01*
X130733475Y-123935924D01*
X130824897Y-123950404D01*
X131486341Y-123950404D01*
X131577763Y-123935924D01*
X131586597Y-123931423D01*
X131586600Y-123931422D01*
X131666183Y-123890872D01*
X131687951Y-123879781D01*
X131775396Y-123792336D01*
X131810624Y-123723196D01*
X131827037Y-123690985D01*
X131827038Y-123690982D01*
X131831539Y-123682148D01*
X131846019Y-123590726D01*
X131846019Y-123054282D01*
X131845660Y-123052014D01*
X131860102Y-122983257D01*
X131882024Y-122953754D01*
X131995694Y-122840084D01*
X132058006Y-122806058D01*
X132128821Y-122811123D01*
X132185657Y-122853670D01*
X132210468Y-122920190D01*
X132205440Y-122961405D01*
X132204699Y-122962860D01*
X132190219Y-123054282D01*
X132190219Y-123590726D01*
X132204699Y-123682148D01*
X132209200Y-123690982D01*
X132209201Y-123690985D01*
X132225614Y-123723196D01*
X132260842Y-123792336D01*
X132348287Y-123879781D01*
X132370055Y-123890872D01*
X132449638Y-123931422D01*
X132449641Y-123931423D01*
X132458475Y-123935924D01*
X132549897Y-123950404D01*
X133211341Y-123950404D01*
X133302763Y-123935924D01*
X133311597Y-123931423D01*
X133311600Y-123931422D01*
X133391183Y-123890872D01*
X133412951Y-123879781D01*
X133500396Y-123792336D01*
X133504898Y-123783501D01*
X133505909Y-123782109D01*
X133562132Y-123738755D01*
X133632868Y-123732681D01*
X133673960Y-123748911D01*
X133792182Y-123821784D01*
X133805360Y-123827928D01*
X133956885Y-123878187D01*
X133970251Y-123881053D01*
X134062889Y-123890544D01*
X134069304Y-123890872D01*
X134143504Y-123890872D01*
X134158743Y-123886397D01*
X134159948Y-123885007D01*
X134161619Y-123877324D01*
X134161619Y-122779872D01*
X134181621Y-122711751D01*
X134235277Y-122665258D01*
X134287619Y-122653872D01*
X134543619Y-122653872D01*
X134611740Y-122673874D01*
X134658233Y-122727530D01*
X134669619Y-122779872D01*
X134669619Y-123872757D01*
X134674094Y-123887996D01*
X134675484Y-123889201D01*
X134683167Y-123890872D01*
X134731345Y-123890872D01*
X134799466Y-123910874D01*
X134845959Y-123964530D01*
X134855794Y-123997162D01*
X134873349Y-124108002D01*
X134877850Y-124116835D01*
X134877850Y-124116836D01*
X134888582Y-124137898D01*
X134933801Y-124226645D01*
X135027958Y-124320802D01*
X135146601Y-124381254D01*
X135278119Y-124402084D01*
X135409637Y-124381254D01*
X135427856Y-124371971D01*
X135495187Y-124337664D01*
X135552390Y-124323931D01*
X136144682Y-124323931D01*
X136212803Y-124343933D01*
X136233777Y-124360836D01*
X136288290Y-124415349D01*
X136406933Y-124475801D01*
X136538451Y-124496631D01*
X136669969Y-124475801D01*
X136788612Y-124415349D01*
X136825023Y-124378938D01*
X136887335Y-124344912D01*
X136958150Y-124349977D01*
X136993020Y-124371035D01*
X136993807Y-124371971D01*
X137030171Y-124396177D01*
X137104557Y-124445693D01*
X137104559Y-124445694D01*
X137112030Y-124450667D01*
X137120594Y-124453343D01*
X137120597Y-124453344D01*
X137239021Y-124490343D01*
X137239025Y-124490344D01*
X137247588Y-124493019D01*
X137332823Y-124494581D01*
X137338994Y-124494694D01*
X137406736Y-124515941D01*
X137452238Y-124570439D01*
X137461053Y-124640887D01*
X137425780Y-124709768D01*
X137317481Y-124818067D01*
X137255169Y-124852093D01*
X137228386Y-124854972D01*
X136896411Y-124854972D01*
X136839471Y-124863990D01*
X136811855Y-124868364D01*
X136811853Y-124868365D01*
X136802064Y-124869915D01*
X136688348Y-124927856D01*
X136598103Y-125018101D01*
X136540162Y-125131817D01*
X136538612Y-125141606D01*
X136538611Y-125141608D01*
X136536527Y-125154765D01*
X136525219Y-125226164D01*
X136525219Y-125934786D01*
X136505217Y-126002907D01*
X136488314Y-126023881D01*
X136456958Y-126055237D01*
X136456956Y-126055238D01*
X136412287Y-126099908D01*
X136404183Y-126107336D01*
X136373502Y-126133079D01*
X136373277Y-126132811D01*
X136320841Y-126167696D01*
X136282663Y-126173376D01*
X136271187Y-126173306D01*
X136260352Y-126173240D01*
X136239317Y-126179252D01*
X136132431Y-126209800D01*
X136132430Y-126209801D01*
X136123800Y-126212267D01*
X136003690Y-126288051D01*
X135909678Y-126394500D01*
X135849321Y-126523056D01*
X135847941Y-126531921D01*
X135847940Y-126531923D01*
X135840353Y-126580654D01*
X135827471Y-126663385D01*
X135828635Y-126672286D01*
X135828635Y-126672290D01*
X135834174Y-126714644D01*
X135845886Y-126804205D01*
X135903084Y-126934198D01*
X135961004Y-127003102D01*
X135974314Y-127018936D01*
X135978136Y-127027648D01*
X135988717Y-127036070D01*
X135994467Y-127042911D01*
X136112690Y-127121607D01*
X136115582Y-127122511D01*
X136166227Y-127167893D01*
X136185092Y-127236337D01*
X136163958Y-127304115D01*
X136124434Y-127339282D01*
X136125147Y-127340264D01*
X136117128Y-127346091D01*
X136108287Y-127350595D01*
X136088710Y-127370172D01*
X136026398Y-127404198D01*
X135955583Y-127399133D01*
X135898747Y-127356586D01*
X135892471Y-127347380D01*
X135807692Y-127210378D01*
X135806064Y-127208324D01*
X135805389Y-127206657D01*
X135803841Y-127204155D01*
X135804269Y-127203890D01*
X135803002Y-127200759D01*
X135788845Y-127189185D01*
X135685990Y-127086509D01*
X135674579Y-127077497D01*
X135539056Y-126993960D01*
X135525881Y-126987817D01*
X135427699Y-126955251D01*
X135369340Y-126914820D01*
X135342103Y-126849256D01*
X135347774Y-126795991D01*
X135373256Y-126719165D01*
X135376124Y-126705786D01*
X135385791Y-126611434D01*
X135386119Y-126605018D01*
X135386119Y-126179987D01*
X135381644Y-126164748D01*
X135380254Y-126163543D01*
X135372571Y-126161872D01*
X134087619Y-126161872D01*
X134019498Y-126141870D01*
X133973005Y-126088214D01*
X133961619Y-126035872D01*
X133961619Y-125635757D01*
X134469619Y-125635757D01*
X134474094Y-125650996D01*
X134475484Y-125652201D01*
X134483167Y-125653872D01*
X135368003Y-125653872D01*
X135383242Y-125649397D01*
X135384447Y-125648007D01*
X135386118Y-125640324D01*
X135386118Y-125210777D01*
X135385781Y-125204258D01*
X135375862Y-125108666D01*
X135372970Y-125095272D01*
X135321531Y-124941088D01*
X135315358Y-124927910D01*
X135230056Y-124790065D01*
X135221020Y-124778664D01*
X135106290Y-124664133D01*
X135094879Y-124655121D01*
X134956876Y-124570056D01*
X134943695Y-124563909D01*
X134789409Y-124512734D01*
X134776033Y-124509867D01*
X134681681Y-124500200D01*
X134675264Y-124499872D01*
X134487734Y-124499872D01*
X134472495Y-124504347D01*
X134471290Y-124505737D01*
X134469619Y-124513420D01*
X134469619Y-125635757D01*
X133961619Y-125635757D01*
X133961619Y-124517988D01*
X133957144Y-124502749D01*
X133955754Y-124501544D01*
X133948071Y-124499873D01*
X133756024Y-124499873D01*
X133749505Y-124500210D01*
X133653913Y-124510129D01*
X133640519Y-124513021D01*
X133486335Y-124564460D01*
X133473157Y-124570633D01*
X133335312Y-124655935D01*
X133323911Y-124664971D01*
X133209380Y-124779701D01*
X133200368Y-124791112D01*
X133115303Y-124929115D01*
X133109156Y-124942296D01*
X133057981Y-125096582D01*
X133055114Y-125109958D01*
X133045447Y-125204310D01*
X133045119Y-125210727D01*
X133045119Y-125685003D01*
X133025117Y-125753124D01*
X132971461Y-125799617D01*
X132919119Y-125811003D01*
X132848751Y-125811003D01*
X132844665Y-125811541D01*
X132844664Y-125811541D01*
X132797085Y-125817805D01*
X132731306Y-125826465D01*
X132723679Y-125829624D01*
X132723676Y-125829625D01*
X132635635Y-125866093D01*
X132565045Y-125873682D01*
X132501558Y-125841903D01*
X132465331Y-125780844D01*
X132461417Y-125749684D01*
X132461417Y-125305163D01*
X132461094Y-125298788D01*
X132446638Y-125156471D01*
X132444084Y-125144031D01*
X132386952Y-124961723D01*
X132381943Y-124950035D01*
X132289318Y-124782934D01*
X132282074Y-124772511D01*
X132157731Y-124627439D01*
X132148537Y-124618684D01*
X131997572Y-124501584D01*
X131986799Y-124494851D01*
X131815372Y-124410498D01*
X131803465Y-124406070D01*
X131729648Y-124386842D01*
X131715553Y-124387276D01*
X131712117Y-124395457D01*
X131712117Y-127428002D01*
X131716090Y-127441533D01*
X131722192Y-127442410D01*
X131894217Y-127379116D01*
X131905623Y-127373554D01*
X132068010Y-127272870D01*
X132078071Y-127265122D01*
X132187646Y-127161502D01*
X132250884Y-127129230D01*
X132321531Y-127136270D01*
X132377156Y-127180387D01*
X132400219Y-127253050D01*
X132400219Y-127776094D01*
X132414699Y-127867516D01*
X132419199Y-127876348D01*
X132419201Y-127876353D01*
X132442077Y-127921249D01*
X132470842Y-127977704D01*
X132558287Y-128065149D01*
X132637004Y-128105257D01*
X132642262Y-128107936D01*
X132693878Y-128156684D01*
X132710944Y-128225599D01*
X132688044Y-128292800D01*
X132632446Y-128336953D01*
X132624936Y-128339727D01*
X132479166Y-128388360D01*
X132466004Y-128394525D01*
X132330627Y-128478298D01*
X132319229Y-128487332D01*
X132206756Y-128600001D01*
X132197744Y-128611412D01*
X132110367Y-128753165D01*
X132109222Y-128752459D01*
X132067430Y-128799926D01*
X131999154Y-128819389D01*
X131944519Y-128806447D01*
X131815372Y-128742898D01*
X131803465Y-128738470D01*
X131729648Y-128719242D01*
X131715553Y-128719676D01*
X131712117Y-128727857D01*
X131712117Y-130219704D01*
X131692115Y-130287825D01*
X131638459Y-130334318D01*
X131586117Y-130345704D01*
X130472932Y-130345704D01*
X130457693Y-130350179D01*
X130456488Y-130351569D01*
X130454817Y-130359252D01*
X130454817Y-130545845D01*
X130455140Y-130552220D01*
X130469596Y-130694537D01*
X130472150Y-130706977D01*
X130529282Y-130889285D01*
X130534291Y-130900973D01*
X130626916Y-131068074D01*
X130634160Y-131078497D01*
X130737765Y-131199374D01*
X130766909Y-131264113D01*
X130756427Y-131334331D01*
X130709645Y-131387736D01*
X130642097Y-131407372D01*
X128645770Y-131407372D01*
X128577649Y-131387370D01*
X128531156Y-131333714D01*
X128520101Y-131290493D01*
X128413342Y-129819589D01*
X130454817Y-129819589D01*
X130459292Y-129834828D01*
X130460682Y-129836033D01*
X130468365Y-129837704D01*
X131186002Y-129837704D01*
X131201241Y-129833229D01*
X131202446Y-129831839D01*
X131204117Y-129824156D01*
X131204117Y-128727806D01*
X131200144Y-128714275D01*
X131194042Y-128713398D01*
X131022017Y-128776692D01*
X131010611Y-128782254D01*
X130848224Y-128882938D01*
X130838163Y-128890686D01*
X130699346Y-129021959D01*
X130691044Y-129031577D01*
X130581462Y-129188077D01*
X130575262Y-129199171D01*
X130499385Y-129374512D01*
X130495543Y-129386624D01*
X130456157Y-129575154D01*
X130454915Y-129584721D01*
X130454904Y-129584919D01*
X130454817Y-129588252D01*
X130454817Y-129819589D01*
X128413342Y-129819589D01*
X128173728Y-126518245D01*
X130454817Y-126518245D01*
X130455140Y-126524620D01*
X130469596Y-126666937D01*
X130472150Y-126679377D01*
X130529282Y-126861685D01*
X130534291Y-126873373D01*
X130626916Y-127040474D01*
X130634160Y-127050897D01*
X130758503Y-127195969D01*
X130767697Y-127204724D01*
X130918662Y-127321824D01*
X130929435Y-127328557D01*
X131100862Y-127412910D01*
X131112769Y-127417338D01*
X131186586Y-127436566D01*
X131200681Y-127436132D01*
X131204117Y-127427951D01*
X131204117Y-126183819D01*
X131199642Y-126168580D01*
X131198252Y-126167375D01*
X131190569Y-126165704D01*
X130472932Y-126165704D01*
X130457693Y-126170179D01*
X130456488Y-126171569D01*
X130454817Y-126179252D01*
X130454817Y-126518245D01*
X128173728Y-126518245D01*
X128109955Y-125639589D01*
X130454817Y-125639589D01*
X130459292Y-125654828D01*
X130460682Y-125656033D01*
X130468365Y-125657704D01*
X131186002Y-125657704D01*
X131201241Y-125653229D01*
X131202446Y-125651839D01*
X131204117Y-125644156D01*
X131204117Y-124395406D01*
X131200144Y-124381875D01*
X131194042Y-124380998D01*
X131022017Y-124444292D01*
X131010611Y-124449854D01*
X130848224Y-124550538D01*
X130838163Y-124558286D01*
X130699346Y-124689559D01*
X130691044Y-124699177D01*
X130581462Y-124855677D01*
X130575262Y-124866771D01*
X130499385Y-125042112D01*
X130495543Y-125054224D01*
X130456157Y-125242754D01*
X130454915Y-125252321D01*
X130454904Y-125252519D01*
X130454817Y-125255852D01*
X130454817Y-125639589D01*
X128109955Y-125639589D01*
X127813158Y-121550389D01*
X130110119Y-121550389D01*
X130114594Y-121565628D01*
X130115984Y-121566833D01*
X130123667Y-121568504D01*
X130883504Y-121568504D01*
X130898743Y-121564029D01*
X130899948Y-121562639D01*
X130901619Y-121554956D01*
X130901619Y-120857619D01*
X130897144Y-120842380D01*
X130895754Y-120841175D01*
X130888071Y-120839504D01*
X130809353Y-120839504D01*
X130802837Y-120839841D01*
X130708987Y-120849579D01*
X130695591Y-120852472D01*
X130544166Y-120902992D01*
X130531004Y-120909157D01*
X130395627Y-120992930D01*
X130384229Y-121001964D01*
X130271756Y-121114633D01*
X130262744Y-121126044D01*
X130179207Y-121261567D01*
X130173063Y-121274745D01*
X130122804Y-121426270D01*
X130119938Y-121439636D01*
X130110447Y-121532274D01*
X130110119Y-121538689D01*
X130110119Y-121550389D01*
X127813158Y-121550389D01*
X127602440Y-118647159D01*
X127430141Y-116273257D01*
X128517000Y-116273257D01*
X128521475Y-116288496D01*
X128522865Y-116289701D01*
X128530548Y-116291372D01*
X129227885Y-116291372D01*
X129243124Y-116286897D01*
X129244329Y-116285507D01*
X129246000Y-116277824D01*
X129246000Y-115517987D01*
X129241525Y-115502748D01*
X129240135Y-115501543D01*
X129232452Y-115499872D01*
X129216234Y-115499872D01*
X129209718Y-115500209D01*
X129115868Y-115509947D01*
X129102472Y-115512840D01*
X128951047Y-115563360D01*
X128937885Y-115569525D01*
X128802508Y-115653298D01*
X128791110Y-115662332D01*
X128678637Y-115775001D01*
X128669625Y-115786412D01*
X128586088Y-115921935D01*
X128579944Y-115935113D01*
X128529685Y-116086638D01*
X128526819Y-116100004D01*
X128517328Y-116192642D01*
X128517000Y-116199057D01*
X128517000Y-116273257D01*
X127430141Y-116273257D01*
X126657855Y-105632872D01*
X128010246Y-105632872D01*
X128010936Y-105639437D01*
X128028812Y-105809513D01*
X128030085Y-105821629D01*
X128088736Y-106002137D01*
X128183634Y-106166506D01*
X128310633Y-106307553D01*
X128315975Y-106311434D01*
X128315977Y-106311436D01*
X128458840Y-106415232D01*
X128464182Y-106419113D01*
X128470210Y-106421797D01*
X128470212Y-106421798D01*
X128631540Y-106493626D01*
X128637571Y-106496311D01*
X128711434Y-106512011D01*
X128816763Y-106534400D01*
X128816767Y-106534400D01*
X128823220Y-106535772D01*
X129013018Y-106535772D01*
X129019471Y-106534400D01*
X129019475Y-106534400D01*
X129124804Y-106512011D01*
X129198667Y-106496311D01*
X129204698Y-106493626D01*
X129366026Y-106421798D01*
X129366028Y-106421797D01*
X129372056Y-106419113D01*
X129377398Y-106415232D01*
X129520261Y-106311436D01*
X129520263Y-106311434D01*
X129525605Y-106307553D01*
X129652604Y-106166506D01*
X129747502Y-106002137D01*
X129806153Y-105821629D01*
X129807427Y-105809513D01*
X129825302Y-105639437D01*
X129825992Y-105632872D01*
X130300246Y-105632872D01*
X130300936Y-105639437D01*
X130318812Y-105809513D01*
X130320085Y-105821629D01*
X130378736Y-106002137D01*
X130473634Y-106166506D01*
X130600633Y-106307553D01*
X130605975Y-106311434D01*
X130605977Y-106311436D01*
X130748840Y-106415232D01*
X130754182Y-106419113D01*
X130760210Y-106421797D01*
X130760212Y-106421798D01*
X130921540Y-106493626D01*
X130927571Y-106496311D01*
X131001434Y-106512011D01*
X131106763Y-106534400D01*
X131106767Y-106534400D01*
X131113220Y-106535772D01*
X131303018Y-106535772D01*
X131309471Y-106534400D01*
X131309475Y-106534400D01*
X131414804Y-106512011D01*
X131488667Y-106496311D01*
X131494698Y-106493626D01*
X131656026Y-106421798D01*
X131656028Y-106421797D01*
X131662056Y-106419113D01*
X131667398Y-106415232D01*
X131810261Y-106311436D01*
X131810263Y-106311434D01*
X131815605Y-106307553D01*
X131942604Y-106166506D01*
X132037502Y-106002137D01*
X132096153Y-105821629D01*
X132097427Y-105809513D01*
X132115302Y-105639437D01*
X132115992Y-105632872D01*
X132111645Y-105591510D01*
X132096843Y-105450678D01*
X132096843Y-105450676D01*
X132096153Y-105444115D01*
X132037502Y-105263607D01*
X131942604Y-105099238D01*
X131815605Y-104958191D01*
X131662056Y-104846631D01*
X131656028Y-104843947D01*
X131656026Y-104843946D01*
X131494698Y-104772118D01*
X131494696Y-104772118D01*
X131488667Y-104769433D01*
X131395843Y-104749703D01*
X131309475Y-104731344D01*
X131309471Y-104731344D01*
X131303018Y-104729972D01*
X131113220Y-104729972D01*
X131106767Y-104731344D01*
X131106763Y-104731344D01*
X131020396Y-104749702D01*
X130927571Y-104769433D01*
X130921542Y-104772117D01*
X130921540Y-104772118D01*
X130760213Y-104843946D01*
X130760211Y-104843947D01*
X130754183Y-104846631D01*
X130748842Y-104850511D01*
X130748841Y-104850512D01*
X130605977Y-104954308D01*
X130605975Y-104954310D01*
X130600633Y-104958191D01*
X130473634Y-105099238D01*
X130378736Y-105263607D01*
X130320085Y-105444115D01*
X130319395Y-105450676D01*
X130319395Y-105450678D01*
X130304593Y-105591510D01*
X130300246Y-105632872D01*
X129825992Y-105632872D01*
X129821645Y-105591510D01*
X129806843Y-105450678D01*
X129806843Y-105450676D01*
X129806153Y-105444115D01*
X129747502Y-105263607D01*
X129652604Y-105099238D01*
X129525605Y-104958191D01*
X129372056Y-104846631D01*
X129366028Y-104843947D01*
X129366026Y-104843946D01*
X129204698Y-104772118D01*
X129204696Y-104772118D01*
X129198667Y-104769433D01*
X129105843Y-104749703D01*
X129019475Y-104731344D01*
X129019471Y-104731344D01*
X129013018Y-104729972D01*
X128823220Y-104729972D01*
X128816767Y-104731344D01*
X128816763Y-104731344D01*
X128730396Y-104749702D01*
X128637571Y-104769433D01*
X128631542Y-104772117D01*
X128631540Y-104772118D01*
X128470213Y-104843946D01*
X128470211Y-104843947D01*
X128464183Y-104846631D01*
X128458842Y-104850511D01*
X128458841Y-104850512D01*
X128315977Y-104954308D01*
X128315975Y-104954310D01*
X128310633Y-104958191D01*
X128183634Y-105099238D01*
X128088736Y-105263607D01*
X128030085Y-105444115D01*
X128029395Y-105450676D01*
X128029395Y-105450678D01*
X128014593Y-105591510D01*
X128010246Y-105632872D01*
X126657855Y-105632872D01*
X126341134Y-101269168D01*
X126356152Y-101199779D01*
X126406301Y-101149524D01*
X126475659Y-101134360D01*
X126542206Y-101159100D01*
X126548634Y-101164237D01*
X126666798Y-101265160D01*
X126674771Y-101270952D01*
X126888855Y-101402143D01*
X126897649Y-101406624D01*
X127129611Y-101502706D01*
X127138996Y-101505755D01*
X127383136Y-101564368D01*
X127392883Y-101565911D01*
X127643189Y-101585611D01*
X127653049Y-101585611D01*
X127903355Y-101565911D01*
X127913102Y-101564368D01*
X128157242Y-101505755D01*
X128166627Y-101502706D01*
X128398589Y-101406624D01*
X128407383Y-101402143D01*
X128618994Y-101272468D01*
X128625041Y-101263202D01*
X128619034Y-101252997D01*
X127290041Y-99924004D01*
X128012527Y-99924004D01*
X128012658Y-99925837D01*
X128016909Y-99932452D01*
X128976785Y-100892328D01*
X128990323Y-100899721D01*
X128996854Y-100895152D01*
X129127390Y-100682136D01*
X129131871Y-100673342D01*
X129227953Y-100441380D01*
X129231002Y-100431995D01*
X129289615Y-100187855D01*
X129291158Y-100178108D01*
X129310858Y-99927802D01*
X129310858Y-99917942D01*
X129291158Y-99667636D01*
X129289615Y-99657889D01*
X129231002Y-99413749D01*
X129227953Y-99404364D01*
X129131871Y-99172402D01*
X129127390Y-99163608D01*
X128997715Y-98951997D01*
X128988449Y-98945950D01*
X128978244Y-98951957D01*
X128020141Y-99910060D01*
X128012527Y-99924004D01*
X127290041Y-99924004D01*
X126315799Y-98949762D01*
X126281773Y-98887450D01*
X126278894Y-98860645D01*
X126278907Y-98790510D01*
X126278944Y-98582542D01*
X126671197Y-98582542D01*
X126677204Y-98592747D01*
X127635307Y-99550850D01*
X127649251Y-99558464D01*
X127651084Y-99558333D01*
X127657699Y-99554082D01*
X128617575Y-98594206D01*
X128624968Y-98580668D01*
X128620399Y-98574137D01*
X128407383Y-98443601D01*
X128398589Y-98439120D01*
X128166627Y-98343038D01*
X128157242Y-98339989D01*
X127913102Y-98281376D01*
X127903355Y-98279833D01*
X127653049Y-98260133D01*
X127643189Y-98260133D01*
X127392883Y-98279833D01*
X127383136Y-98281376D01*
X127138996Y-98339989D01*
X127129611Y-98343038D01*
X126897649Y-98439120D01*
X126888855Y-98443601D01*
X126677244Y-98573276D01*
X126671197Y-98582542D01*
X126278944Y-98582542D01*
X126279274Y-96726524D01*
X126279308Y-96535536D01*
X127548086Y-96535536D01*
X127573937Y-96806483D01*
X127638630Y-97070861D01*
X127640342Y-97075087D01*
X127640343Y-97075091D01*
X127711099Y-97249779D01*
X127740809Y-97323131D01*
X127878336Y-97558009D01*
X128048328Y-97770573D01*
X128247224Y-97956371D01*
X128470858Y-98111512D01*
X128539653Y-98145737D01*
X128710458Y-98230712D01*
X128710461Y-98230713D01*
X128714545Y-98232745D01*
X128973181Y-98317530D01*
X128977672Y-98318310D01*
X128977673Y-98318310D01*
X129237566Y-98363435D01*
X129237574Y-98363436D01*
X129241347Y-98364091D01*
X129245184Y-98364282D01*
X129325770Y-98368294D01*
X129325778Y-98368294D01*
X129327341Y-98368372D01*
X129497263Y-98368372D01*
X129499531Y-98368207D01*
X129499543Y-98368207D01*
X129630587Y-98358698D01*
X129699583Y-98353692D01*
X129704038Y-98352708D01*
X129704041Y-98352708D01*
X129960901Y-98295999D01*
X129960905Y-98295998D01*
X129965361Y-98295014D01*
X130125964Y-98234167D01*
X130215614Y-98200202D01*
X130215617Y-98200201D01*
X130219884Y-98198584D01*
X130457821Y-98066422D01*
X130568756Y-97981759D01*
X135596596Y-97981759D01*
X135603664Y-97995206D01*
X136269308Y-98660851D01*
X136283251Y-98668464D01*
X136285085Y-98668333D01*
X136291699Y-98664082D01*
X136961299Y-97994481D01*
X136967726Y-97982711D01*
X136958432Y-97970697D01*
X136918031Y-97942408D01*
X136908535Y-97936925D01*
X136719006Y-97848546D01*
X136708714Y-97844800D01*
X136506718Y-97790676D01*
X136495923Y-97788773D01*
X136287594Y-97770546D01*
X136276644Y-97770546D01*
X136068315Y-97788773D01*
X136057520Y-97790676D01*
X135855524Y-97844800D01*
X135845232Y-97848546D01*
X135655702Y-97936926D01*
X135646212Y-97942406D01*
X135604970Y-97971283D01*
X135596596Y-97981759D01*
X130568756Y-97981759D01*
X130670562Y-97904063D01*
X130670566Y-97904060D01*
X130674187Y-97901296D01*
X130864450Y-97706666D01*
X131024625Y-97486609D01*
X131151355Y-97245735D01*
X131241986Y-96989090D01*
X131294619Y-96722049D01*
X131294846Y-96717491D01*
X131303904Y-96535536D01*
X140248086Y-96535536D01*
X140273937Y-96806483D01*
X140338630Y-97070861D01*
X140340342Y-97075087D01*
X140340343Y-97075091D01*
X140411099Y-97249779D01*
X140440809Y-97323131D01*
X140578336Y-97558009D01*
X140748328Y-97770573D01*
X140947224Y-97956371D01*
X141170858Y-98111512D01*
X141239653Y-98145737D01*
X141410458Y-98230712D01*
X141410461Y-98230713D01*
X141414545Y-98232745D01*
X141673181Y-98317530D01*
X141677672Y-98318310D01*
X141677673Y-98318310D01*
X141937566Y-98363435D01*
X141937574Y-98363436D01*
X141941347Y-98364091D01*
X141945184Y-98364282D01*
X142025770Y-98368294D01*
X142025778Y-98368294D01*
X142027341Y-98368372D01*
X142197263Y-98368372D01*
X142199531Y-98368207D01*
X142199543Y-98368207D01*
X142330587Y-98358698D01*
X142399583Y-98353692D01*
X142404038Y-98352708D01*
X142404041Y-98352708D01*
X142660901Y-98295999D01*
X142660905Y-98295998D01*
X142665361Y-98295014D01*
X142825964Y-98234167D01*
X142915614Y-98200202D01*
X142915617Y-98200201D01*
X142919884Y-98198584D01*
X143157821Y-98066422D01*
X143268756Y-97981759D01*
X143370562Y-97904063D01*
X143370566Y-97904060D01*
X143374187Y-97901296D01*
X143564450Y-97706666D01*
X143724625Y-97486609D01*
X143851355Y-97245735D01*
X143941986Y-96989090D01*
X143994619Y-96722049D01*
X143994846Y-96717491D01*
X144007925Y-96454777D01*
X144007925Y-96454771D01*
X144008152Y-96450208D01*
X143982301Y-96179261D01*
X143917608Y-95914883D01*
X143915895Y-95910653D01*
X143817142Y-95666841D01*
X143817139Y-95666835D01*
X143815429Y-95662613D01*
X143677902Y-95427735D01*
X143507910Y-95215171D01*
X143309014Y-95029373D01*
X143085380Y-94874232D01*
X142960243Y-94811977D01*
X142845780Y-94755032D01*
X142845777Y-94755031D01*
X142841693Y-94752999D01*
X142583057Y-94668214D01*
X142578565Y-94667434D01*
X142318672Y-94622309D01*
X142318664Y-94622308D01*
X142314891Y-94621653D01*
X142305435Y-94621182D01*
X142230468Y-94617450D01*
X142230460Y-94617450D01*
X142228897Y-94617372D01*
X142058975Y-94617372D01*
X142056707Y-94617537D01*
X142056695Y-94617537D01*
X141925651Y-94627046D01*
X141856655Y-94632052D01*
X141852200Y-94633036D01*
X141852197Y-94633036D01*
X141595337Y-94689745D01*
X141595333Y-94689746D01*
X141590877Y-94690730D01*
X141463616Y-94738945D01*
X141340624Y-94785542D01*
X141340621Y-94785543D01*
X141336354Y-94787160D01*
X141098417Y-94919322D01*
X141094785Y-94922094D01*
X140885676Y-95081681D01*
X140885672Y-95081684D01*
X140882051Y-95084448D01*
X140691788Y-95279078D01*
X140531613Y-95499135D01*
X140404883Y-95740009D01*
X140314252Y-95996654D01*
X140261619Y-96263695D01*
X140261392Y-96268252D01*
X140261392Y-96268253D01*
X140252561Y-96445652D01*
X140248086Y-96535536D01*
X131303904Y-96535536D01*
X131307925Y-96454777D01*
X131307925Y-96454771D01*
X131308152Y-96450208D01*
X131282301Y-96179261D01*
X131217608Y-95914883D01*
X131215895Y-95910653D01*
X131117142Y-95666841D01*
X131117139Y-95666835D01*
X131115429Y-95662613D01*
X130977902Y-95427735D01*
X130807910Y-95215171D01*
X130609014Y-95029373D01*
X130385380Y-94874232D01*
X130260243Y-94811977D01*
X130145780Y-94755032D01*
X130145777Y-94755031D01*
X130141693Y-94752999D01*
X129883057Y-94668214D01*
X129878565Y-94667434D01*
X129618672Y-94622309D01*
X129618664Y-94622308D01*
X129614891Y-94621653D01*
X129605435Y-94621182D01*
X129530468Y-94617450D01*
X129530460Y-94617450D01*
X129528897Y-94617372D01*
X129358975Y-94617372D01*
X129356707Y-94617537D01*
X129356695Y-94617537D01*
X129225651Y-94627046D01*
X129156655Y-94632052D01*
X129152200Y-94633036D01*
X129152197Y-94633036D01*
X128895337Y-94689745D01*
X128895333Y-94689746D01*
X128890877Y-94690730D01*
X128763616Y-94738945D01*
X128640624Y-94785542D01*
X128640621Y-94785543D01*
X128636354Y-94787160D01*
X128398417Y-94919322D01*
X128394785Y-94922094D01*
X128185676Y-95081681D01*
X128185672Y-95081684D01*
X128182051Y-95084448D01*
X127991788Y-95279078D01*
X127831613Y-95499135D01*
X127704883Y-95740009D01*
X127614252Y-95996654D01*
X127561619Y-96263695D01*
X127561392Y-96268252D01*
X127561392Y-96268253D01*
X127552561Y-96445652D01*
X127548086Y-96535536D01*
X126279308Y-96535536D01*
X126279883Y-93302194D01*
X126299897Y-93234076D01*
X126353561Y-93187593D01*
X126405764Y-93176216D01*
X145151501Y-93158492D01*
X145219639Y-93178430D01*
G37*
G04 #@! TD.AperFunction*
G04 #@! TA.AperFunction,Conductor*
G36*
X135111740Y-127673874D02*
G01*
X135158233Y-127727530D01*
X135169619Y-127779872D01*
X135169619Y-128872757D01*
X135174094Y-128887996D01*
X135175484Y-128889201D01*
X135191893Y-128892770D01*
X135254205Y-128926794D01*
X135288231Y-128989106D01*
X135290047Y-128999552D01*
X135293252Y-129024057D01*
X135295673Y-129042573D01*
X135352871Y-129172566D01*
X135444254Y-129281279D01*
X135451725Y-129286252D01*
X135451726Y-129286253D01*
X135555004Y-129355001D01*
X135555006Y-129355002D01*
X135562477Y-129359975D01*
X135571041Y-129362651D01*
X135571044Y-129362652D01*
X135689468Y-129399651D01*
X135689472Y-129399652D01*
X135698035Y-129402327D01*
X135766572Y-129403583D01*
X135831055Y-129404765D01*
X135831058Y-129404765D01*
X135840031Y-129404929D01*
X135882257Y-129393417D01*
X135968388Y-129369935D01*
X135968391Y-129369934D01*
X135977050Y-129367573D01*
X136098077Y-129293263D01*
X136104423Y-129286253D01*
X136187354Y-129194631D01*
X136187355Y-129194630D01*
X136193382Y-129187971D01*
X136204828Y-129164348D01*
X136251391Y-129068241D01*
X136251391Y-129068240D01*
X136255305Y-129060162D01*
X136277717Y-128926947D01*
X136312876Y-128858756D01*
X136598955Y-128572677D01*
X136661267Y-128538651D01*
X136688050Y-128535772D01*
X136971341Y-128535772D01*
X137062763Y-128521292D01*
X137071597Y-128516791D01*
X137071600Y-128516790D01*
X137131029Y-128486509D01*
X137172951Y-128465149D01*
X137260396Y-128377704D01*
X137291953Y-128315769D01*
X137312037Y-128276353D01*
X137312038Y-128276350D01*
X137316539Y-128267516D01*
X137331019Y-128176094D01*
X137331019Y-127946321D01*
X137351021Y-127878200D01*
X137404677Y-127831707D01*
X137476729Y-127821872D01*
X137526350Y-127829731D01*
X137657868Y-127808901D01*
X137732408Y-127770921D01*
X137802183Y-127757817D01*
X137867968Y-127784517D01*
X137908875Y-127842544D01*
X137910987Y-127851072D01*
X137913148Y-127857722D01*
X137914699Y-127867516D01*
X137919199Y-127876348D01*
X137919201Y-127876353D01*
X137942077Y-127921249D01*
X137970842Y-127977704D01*
X138058287Y-128065149D01*
X138137004Y-128105257D01*
X138142262Y-128107936D01*
X138193878Y-128156684D01*
X138210944Y-128225599D01*
X138188044Y-128292800D01*
X138132446Y-128336953D01*
X138124936Y-128339727D01*
X137979166Y-128388360D01*
X137966004Y-128394525D01*
X137830627Y-128478298D01*
X137819229Y-128487332D01*
X137706756Y-128600001D01*
X137697744Y-128611412D01*
X137614207Y-128746935D01*
X137608063Y-128760113D01*
X137557804Y-128911638D01*
X137554938Y-128925004D01*
X137545447Y-129017642D01*
X137545119Y-129024057D01*
X137545119Y-129048257D01*
X137549594Y-129063496D01*
X137550984Y-129064701D01*
X137558667Y-129066372D01*
X138656119Y-129066372D01*
X138724240Y-129086374D01*
X138770733Y-129140030D01*
X138782119Y-129192372D01*
X138782119Y-130297757D01*
X138786594Y-130312996D01*
X138787984Y-130314201D01*
X138795667Y-130315872D01*
X138811885Y-130315872D01*
X138818401Y-130315535D01*
X138912251Y-130305797D01*
X138925648Y-130302904D01*
X138928940Y-130301805D01*
X138931100Y-130301726D01*
X138932388Y-130301448D01*
X138932438Y-130301677D01*
X138999889Y-130299217D01*
X139060975Y-130335399D01*
X139092802Y-130398862D01*
X139094821Y-130421327D01*
X139094821Y-130545845D01*
X139095144Y-130552220D01*
X139109600Y-130694537D01*
X139112154Y-130706977D01*
X139169286Y-130889285D01*
X139174295Y-130900973D01*
X139266920Y-131068074D01*
X139274164Y-131078497D01*
X139377769Y-131199374D01*
X139406913Y-131264113D01*
X139396431Y-131334331D01*
X139349649Y-131387736D01*
X139282101Y-131407372D01*
X132273455Y-131407372D01*
X132205334Y-131387370D01*
X132158841Y-131333714D01*
X132148737Y-131263440D01*
X132178231Y-131198860D01*
X132186882Y-131189823D01*
X132216893Y-131161443D01*
X132225190Y-131151831D01*
X132334772Y-130995331D01*
X132340972Y-130984237D01*
X132416849Y-130808896D01*
X132420691Y-130796784D01*
X132460077Y-130608254D01*
X132461319Y-130598687D01*
X132461330Y-130598489D01*
X132461417Y-130595156D01*
X132461417Y-130421188D01*
X132481419Y-130353067D01*
X132535075Y-130306574D01*
X132605349Y-130296470D01*
X132627081Y-130301594D01*
X132631883Y-130303187D01*
X132645251Y-130306053D01*
X132737889Y-130315544D01*
X132744304Y-130315872D01*
X132756004Y-130315872D01*
X132771243Y-130311397D01*
X132772448Y-130310007D01*
X132774119Y-130302324D01*
X132774119Y-130297757D01*
X133282119Y-130297757D01*
X133286594Y-130312996D01*
X133287984Y-130314201D01*
X133295667Y-130315872D01*
X133311885Y-130315872D01*
X133318401Y-130315535D01*
X133412251Y-130305797D01*
X133425647Y-130302904D01*
X133577072Y-130252384D01*
X133590234Y-130246219D01*
X133725611Y-130162446D01*
X133737009Y-130153412D01*
X133849482Y-130040743D01*
X133858494Y-130029332D01*
X133942031Y-129893809D01*
X133948175Y-129880631D01*
X133998434Y-129729106D01*
X134001300Y-129715740D01*
X134010791Y-129623102D01*
X134011119Y-129616687D01*
X134011119Y-129616638D01*
X137545119Y-129616638D01*
X137545456Y-129623154D01*
X137555194Y-129717004D01*
X137558087Y-129730400D01*
X137608607Y-129881825D01*
X137614772Y-129894987D01*
X137698545Y-130030364D01*
X137707579Y-130041762D01*
X137820248Y-130154235D01*
X137831659Y-130163247D01*
X137967182Y-130246784D01*
X137980360Y-130252928D01*
X138131885Y-130303187D01*
X138145251Y-130306053D01*
X138237889Y-130315544D01*
X138244304Y-130315872D01*
X138256004Y-130315872D01*
X138271243Y-130311397D01*
X138272448Y-130310007D01*
X138274119Y-130302324D01*
X138274119Y-129592487D01*
X138269644Y-129577248D01*
X138268254Y-129576043D01*
X138260571Y-129574372D01*
X137563234Y-129574372D01*
X137547995Y-129578847D01*
X137546790Y-129580237D01*
X137545119Y-129587920D01*
X137545119Y-129616638D01*
X134011119Y-129616638D01*
X134011119Y-129592487D01*
X134006644Y-129577248D01*
X134005254Y-129576043D01*
X133997571Y-129574372D01*
X133300234Y-129574372D01*
X133284995Y-129578847D01*
X133283790Y-129580237D01*
X133282119Y-129587920D01*
X133282119Y-130297757D01*
X132774119Y-130297757D01*
X132774119Y-129192372D01*
X132794121Y-129124251D01*
X132847777Y-129077758D01*
X132900119Y-129066372D01*
X133993004Y-129066372D01*
X134008243Y-129061897D01*
X134009448Y-129060507D01*
X134011119Y-129052824D01*
X134011119Y-129024106D01*
X134010782Y-129017590D01*
X134001044Y-128923740D01*
X133998149Y-128910338D01*
X133994692Y-128899975D01*
X133992107Y-128829025D01*
X134028290Y-128767941D01*
X134091754Y-128736116D01*
X134162350Y-128743655D01*
X134180331Y-128752838D01*
X134292182Y-128821784D01*
X134305360Y-128827928D01*
X134456885Y-128878187D01*
X134470251Y-128881053D01*
X134562889Y-128890544D01*
X134569304Y-128890872D01*
X134643504Y-128890872D01*
X134658743Y-128886397D01*
X134659948Y-128885007D01*
X134661619Y-128877324D01*
X134661619Y-128179987D01*
X134657144Y-128164748D01*
X134655754Y-128163543D01*
X134648071Y-128161872D01*
X133888234Y-128161872D01*
X133872995Y-128166347D01*
X133871790Y-128167737D01*
X133870119Y-128175420D01*
X133870119Y-128191638D01*
X133870456Y-128198154D01*
X133880194Y-128292004D01*
X133883089Y-128305406D01*
X133886546Y-128315769D01*
X133889131Y-128386719D01*
X133852948Y-128447803D01*
X133789484Y-128479628D01*
X133718888Y-128472089D01*
X133700907Y-128462906D01*
X133589056Y-128393960D01*
X133575879Y-128387816D01*
X133431350Y-128339878D01*
X133372990Y-128299448D01*
X133345753Y-128233883D01*
X133358286Y-128164002D01*
X133406611Y-128111990D01*
X133413815Y-128108018D01*
X133415735Y-128107039D01*
X133497951Y-128065149D01*
X133585396Y-127977704D01*
X133641539Y-127867516D01*
X133643089Y-127857728D01*
X133646079Y-127848527D01*
X133686153Y-127789922D01*
X133751550Y-127762286D01*
X133823113Y-127775198D01*
X133896601Y-127812642D01*
X134028119Y-127833472D01*
X134159637Y-127812642D01*
X134278280Y-127752190D01*
X134339693Y-127690777D01*
X134402005Y-127656751D01*
X134428788Y-127653872D01*
X135043619Y-127653872D01*
X135111740Y-127673874D01*
G37*
G04 #@! TD.AperFunction*
G04 #@! TA.AperFunction,Conductor*
G36*
X133660240Y-119467506D02*
G01*
X133706733Y-119521162D01*
X133718119Y-119573504D01*
X133718119Y-121037388D01*
X133722594Y-121052627D01*
X133723984Y-121053832D01*
X133731667Y-121055503D01*
X133764219Y-121055503D01*
X133832340Y-121075505D01*
X133878833Y-121129161D01*
X133890219Y-121181503D01*
X133890219Y-121714052D01*
X133870217Y-121782173D01*
X133853314Y-121803147D01*
X133786114Y-121870347D01*
X133723802Y-121904373D01*
X133652987Y-121899308D01*
X133596151Y-121856761D01*
X133571340Y-121790241D01*
X133571019Y-121781252D01*
X133571019Y-121554282D01*
X133556539Y-121462860D01*
X133552038Y-121454026D01*
X133552037Y-121454023D01*
X133528604Y-121408033D01*
X133500396Y-121352672D01*
X133412951Y-121265227D01*
X133325186Y-121220509D01*
X133273571Y-121171763D01*
X133256505Y-121102848D01*
X133263631Y-121081937D01*
X133259612Y-121081063D01*
X133268119Y-121041956D01*
X133268119Y-119573504D01*
X133288121Y-119505383D01*
X133341777Y-119458890D01*
X133394119Y-119447504D01*
X133592119Y-119447504D01*
X133660240Y-119467506D01*
G37*
G04 #@! TD.AperFunction*
G04 #@! TA.AperFunction,Conductor*
G36*
X139704001Y-120688552D02*
G01*
X139708461Y-120691532D01*
X139753062Y-120700404D01*
X139770998Y-120700404D01*
X140073744Y-120700403D01*
X140141863Y-120720405D01*
X140188356Y-120774060D01*
X140198461Y-120844334D01*
X140168968Y-120908915D01*
X140162838Y-120915498D01*
X139693781Y-121384555D01*
X139631469Y-121418581D01*
X139604686Y-121421460D01*
X137818640Y-121421460D01*
X137750519Y-121401458D01*
X137729545Y-121384555D01*
X137350425Y-121005435D01*
X137334755Y-120986342D01*
X137334431Y-120985857D01*
X137327538Y-120975541D01*
X137306421Y-120961431D01*
X137306420Y-120961430D01*
X137261129Y-120931168D01*
X137215603Y-120876694D01*
X137206754Y-120806251D01*
X137237394Y-120742206D01*
X137297796Y-120704894D01*
X137331132Y-120700404D01*
X137617049Y-120700403D01*
X137633175Y-120700403D01*
X137677777Y-120691532D01*
X137678143Y-120691288D01*
X137740489Y-120684584D01*
X137754001Y-120688552D01*
X137758461Y-120691532D01*
X137803062Y-120700404D01*
X138043080Y-120700404D01*
X138283175Y-120700403D01*
X138327777Y-120691532D01*
X138328143Y-120691288D01*
X138390489Y-120684584D01*
X138404001Y-120688552D01*
X138408461Y-120691532D01*
X138453062Y-120700404D01*
X138693080Y-120700404D01*
X138933175Y-120700403D01*
X138977777Y-120691532D01*
X138978143Y-120691288D01*
X139040489Y-120684584D01*
X139054001Y-120688552D01*
X139058461Y-120691532D01*
X139103062Y-120700404D01*
X139343080Y-120700404D01*
X139583175Y-120700403D01*
X139627777Y-120691532D01*
X139628143Y-120691288D01*
X139690489Y-120684584D01*
X139704001Y-120688552D01*
G37*
G04 #@! TD.AperFunction*
G04 #@! TA.AperFunction,Conductor*
G36*
X141183251Y-115084660D02*
G01*
X141240087Y-115127207D01*
X141264898Y-115193727D01*
X141265219Y-115202716D01*
X141265219Y-119760927D01*
X141245217Y-119829048D01*
X141228314Y-119850022D01*
X140586114Y-120492222D01*
X140523802Y-120526248D01*
X140452987Y-120521183D01*
X140396151Y-120478636D01*
X140371340Y-120412116D01*
X140371019Y-120403127D01*
X140371018Y-118788637D01*
X140371018Y-118782448D01*
X140362147Y-118737846D01*
X140348625Y-118717608D01*
X140335246Y-118697586D01*
X140328353Y-118687270D01*
X140315283Y-118678537D01*
X140310634Y-118672974D01*
X140309260Y-118671600D01*
X140309383Y-118671477D01*
X140269756Y-118624061D01*
X140260907Y-118553618D01*
X140291548Y-118489574D01*
X140352142Y-118452209D01*
X140405425Y-118437682D01*
X140405429Y-118437681D01*
X140409741Y-118436505D01*
X140440104Y-118423366D01*
X140446191Y-118420732D01*
X140446194Y-118420730D01*
X140450306Y-118418951D01*
X140572358Y-118344011D01*
X140606366Y-118315778D01*
X140702480Y-118209594D01*
X140727197Y-118172948D01*
X140729148Y-118168920D01*
X140729152Y-118168914D01*
X140760126Y-118104982D01*
X140789644Y-118044056D01*
X140803082Y-118001948D01*
X140826844Y-117860710D01*
X140828993Y-117836753D01*
X140829144Y-117824411D01*
X140827582Y-117800404D01*
X140826165Y-117790506D01*
X140825287Y-117784379D01*
X140824014Y-117766516D01*
X140824014Y-117388058D01*
X140825760Y-117367153D01*
X140826844Y-117360710D01*
X140828993Y-117336753D01*
X140829144Y-117324411D01*
X140828622Y-117316385D01*
X140827741Y-117302843D01*
X140827740Y-117302835D01*
X140827582Y-117300404D01*
X140814967Y-117212318D01*
X140807915Y-117163072D01*
X140807914Y-117163066D01*
X140807278Y-117158627D01*
X140804999Y-117150831D01*
X140796130Y-117120504D01*
X140794872Y-117116202D01*
X140735592Y-116985823D01*
X140711778Y-116948586D01*
X140618288Y-116840085D01*
X140584979Y-116811028D01*
X140573901Y-116803847D01*
X140468557Y-116735567D01*
X140468556Y-116735567D01*
X140464794Y-116733128D01*
X140424669Y-116714588D01*
X140327116Y-116685414D01*
X140291749Y-116674837D01*
X140291744Y-116674836D01*
X140287451Y-116673552D01*
X140283019Y-116672890D01*
X140283016Y-116672889D01*
X140248167Y-116667681D01*
X140248164Y-116667681D01*
X140243736Y-116667019D01*
X140174920Y-116666599D01*
X140104997Y-116666171D01*
X140104992Y-116666171D01*
X140100515Y-116666144D01*
X140098035Y-116666484D01*
X140094174Y-116666609D01*
X139978337Y-116666609D01*
X139910216Y-116646607D01*
X139889242Y-116629704D01*
X139778493Y-116518955D01*
X139744467Y-116456643D01*
X139749532Y-116385828D01*
X139792079Y-116328992D01*
X139819369Y-116313452D01*
X139820095Y-116313151D01*
X139832263Y-116310731D01*
X139842578Y-116303839D01*
X139842580Y-116303838D01*
X139894799Y-116268946D01*
X139894800Y-116268945D01*
X139905601Y-116261728D01*
X139915917Y-116254835D01*
X139923134Y-116244034D01*
X139938804Y-116224941D01*
X141050124Y-115113621D01*
X141112436Y-115079595D01*
X141183251Y-115084660D01*
G37*
G04 #@! TD.AperFunction*
G04 #@! TA.AperFunction,Conductor*
G36*
X136573039Y-117195415D02*
G01*
X136594013Y-117212318D01*
X136658238Y-117276543D01*
X136776881Y-117336995D01*
X136786672Y-117338546D01*
X136786673Y-117338546D01*
X136834051Y-117346050D01*
X136903435Y-117381404D01*
X137304289Y-117782258D01*
X137338315Y-117844570D01*
X137333250Y-117915385D01*
X137290703Y-117972221D01*
X137272396Y-117983620D01*
X137261102Y-117989374D01*
X137261098Y-117989377D01*
X137252268Y-117993876D01*
X137214059Y-118032085D01*
X137151747Y-118066111D01*
X137145898Y-118066740D01*
X137145039Y-118066569D01*
X137138864Y-118067797D01*
X137132298Y-118069103D01*
X137107718Y-118071524D01*
X136356814Y-118071524D01*
X136288693Y-118051522D01*
X136242200Y-117997866D01*
X136232096Y-117927592D01*
X136242759Y-117891975D01*
X136258700Y-117858022D01*
X136292305Y-117786447D01*
X136293616Y-117782159D01*
X136303920Y-117748456D01*
X136303921Y-117748453D01*
X136305228Y-117744177D01*
X136306184Y-117738040D01*
X136326574Y-117607080D01*
X136326574Y-117607075D01*
X136327262Y-117602659D01*
X136327361Y-117594604D01*
X136327747Y-117562939D01*
X136327802Y-117558462D01*
X136325078Y-117537630D01*
X136324014Y-117521293D01*
X136324014Y-117301413D01*
X136344016Y-117233292D01*
X136397672Y-117186799D01*
X136450014Y-117175413D01*
X136504918Y-117175413D01*
X136573039Y-117195415D01*
G37*
G04 #@! TD.AperFunction*
G04 #@! TA.AperFunction,Conductor*
G36*
X132953509Y-114095406D02*
G01*
X133000002Y-114149062D01*
X133011388Y-114201404D01*
X133011388Y-115613290D01*
X133008967Y-115637870D01*
X133006433Y-115650611D01*
X133011388Y-115675522D01*
X133020525Y-115721456D01*
X133026061Y-115749288D01*
X133065796Y-115808755D01*
X133081957Y-115832942D01*
X133092273Y-115839835D01*
X133092758Y-115840159D01*
X133111851Y-115855829D01*
X133803688Y-116547666D01*
X133837714Y-116609978D01*
X133832649Y-116680793D01*
X133819055Y-116707212D01*
X133809041Y-116722060D01*
X133807090Y-116726088D01*
X133807086Y-116726094D01*
X133776112Y-116790026D01*
X133746594Y-116850952D01*
X133733156Y-116893060D01*
X133709394Y-117034298D01*
X133707245Y-117058255D01*
X133707094Y-117070597D01*
X133708656Y-117094604D01*
X133709001Y-117097012D01*
X133709002Y-117097023D01*
X133710951Y-117110629D01*
X133712224Y-117128492D01*
X133712224Y-117354764D01*
X133692222Y-117422885D01*
X133638566Y-117469378D01*
X133568292Y-117479482D01*
X133503712Y-117449988D01*
X133497129Y-117443859D01*
X132406973Y-116353703D01*
X132372947Y-116291391D01*
X132375801Y-116227034D01*
X132414228Y-116104036D01*
X132414229Y-116104034D01*
X132415565Y-116099756D01*
X132422632Y-116056124D01*
X132425257Y-115912925D01*
X132424704Y-115908486D01*
X132424467Y-115904000D01*
X132424564Y-115903995D01*
X132424014Y-115895127D01*
X132424014Y-115472504D01*
X132412147Y-115412846D01*
X132398555Y-115392505D01*
X132377341Y-115324754D01*
X132398555Y-115252503D01*
X132412147Y-115232162D01*
X132424014Y-115172504D01*
X132424014Y-114681896D01*
X132424035Y-114679587D01*
X132425175Y-114617398D01*
X132425257Y-114612925D01*
X132419793Y-114569062D01*
X132382120Y-114430882D01*
X132364566Y-114390317D01*
X132289626Y-114268265D01*
X132291284Y-114267247D01*
X132270495Y-114207811D01*
X132287007Y-114138762D01*
X132338229Y-114089600D01*
X132396332Y-114075404D01*
X132885388Y-114075404D01*
X132953509Y-114095406D01*
G37*
G04 #@! TD.AperFunction*
G04 #@! TA.AperFunction,Conductor*
G36*
X137645507Y-113499642D02*
G01*
X137710351Y-113505445D01*
X137766419Y-113548999D01*
X137790219Y-113622696D01*
X137790219Y-114231994D01*
X137777612Y-114286929D01*
X137746594Y-114350952D01*
X137733156Y-114393060D01*
X137709394Y-114534298D01*
X137709177Y-114536721D01*
X137709176Y-114536726D01*
X137708629Y-114542828D01*
X137707245Y-114558255D01*
X137707094Y-114570597D01*
X137708656Y-114594604D01*
X137709001Y-114597012D01*
X137709002Y-114597023D01*
X137710951Y-114610629D01*
X137712224Y-114628492D01*
X137712224Y-114962654D01*
X137692222Y-115030775D01*
X137675319Y-115051749D01*
X137621418Y-115105650D01*
X137559106Y-115139676D01*
X137532323Y-115142555D01*
X137527912Y-115142555D01*
X137518119Y-115141004D01*
X137386601Y-115161834D01*
X137267958Y-115222286D01*
X137173801Y-115316443D01*
X137113349Y-115435086D01*
X137092519Y-115566604D01*
X137094070Y-115576397D01*
X137094070Y-115586314D01*
X137090062Y-115586314D01*
X137083510Y-115637287D01*
X137037826Y-115691632D01*
X136970012Y-115712652D01*
X136901600Y-115693672D01*
X136879031Y-115675761D01*
X136404667Y-115201397D01*
X136370641Y-115139085D01*
X136367762Y-115112302D01*
X136367762Y-114797901D01*
X136369262Y-114778517D01*
X136370322Y-114771711D01*
X136370322Y-114771706D01*
X136371010Y-114767290D01*
X136371550Y-114723094D01*
X136370389Y-114714210D01*
X136356380Y-114607079D01*
X136352980Y-114581080D01*
X136341093Y-114538506D01*
X136283410Y-114407413D01*
X136272769Y-114390317D01*
X136262420Y-114373691D01*
X136262417Y-114373687D01*
X136260053Y-114369889D01*
X136248008Y-114355559D01*
X136186578Y-114282479D01*
X136158057Y-114217463D01*
X136169213Y-114147349D01*
X136216506Y-114094396D01*
X136283029Y-114075404D01*
X136480798Y-114075404D01*
X136505378Y-114077825D01*
X136505946Y-114077938D01*
X136505948Y-114077938D01*
X136518119Y-114080359D01*
X136530290Y-114077938D01*
X136556800Y-114072665D01*
X136616796Y-114060731D01*
X136673528Y-114022824D01*
X136679332Y-114018946D01*
X136679333Y-114018945D01*
X136700450Y-114004835D01*
X136707671Y-113994028D01*
X136723337Y-113974941D01*
X136895556Y-113802722D01*
X136914649Y-113787052D01*
X136915132Y-113786729D01*
X136925450Y-113779835D01*
X136944123Y-113751890D01*
X136949432Y-113743945D01*
X136974452Y-113706499D01*
X136974452Y-113706498D01*
X136981346Y-113696181D01*
X136994123Y-113631948D01*
X136996019Y-113622415D01*
X137000760Y-113598580D01*
X137033666Y-113535670D01*
X137095360Y-113500537D01*
X137140718Y-113499728D01*
X137140830Y-113498590D01*
X137146995Y-113499197D01*
X137153062Y-113500404D01*
X137393080Y-113500404D01*
X137633175Y-113500403D01*
X137639640Y-113499117D01*
X137639849Y-113499136D01*
X137645403Y-113498589D01*
X137645507Y-113499642D01*
G37*
G04 #@! TD.AperFunction*
G04 #@! TA.AperFunction,Conductor*
G36*
X136208821Y-110183456D02*
G01*
X136265657Y-110226003D01*
X136290468Y-110292523D01*
X136290789Y-110301512D01*
X136290789Y-110383811D01*
X136288368Y-110408391D01*
X136285834Y-110421132D01*
X136288255Y-110433303D01*
X136290789Y-110446043D01*
X136299744Y-110491063D01*
X136302634Y-110505590D01*
X136305462Y-110519809D01*
X136312356Y-110530126D01*
X136312357Y-110530129D01*
X136337477Y-110567723D01*
X136337479Y-110567725D01*
X136361358Y-110603463D01*
X136371674Y-110610356D01*
X136372156Y-110610678D01*
X136391249Y-110626347D01*
X136430402Y-110665499D01*
X136453314Y-110688411D01*
X136487339Y-110750723D01*
X136490219Y-110777507D01*
X136490219Y-111322310D01*
X136470217Y-111390431D01*
X136416561Y-111436924D01*
X136345528Y-111445204D01*
X136345408Y-111446418D01*
X136339827Y-111445868D01*
X136339641Y-111445890D01*
X136333176Y-111444604D01*
X136093158Y-111444604D01*
X135853063Y-111444605D01*
X135808461Y-111453476D01*
X135808095Y-111453720D01*
X135745749Y-111460424D01*
X135732237Y-111456456D01*
X135727777Y-111453476D01*
X135683176Y-111444604D01*
X135443158Y-111444604D01*
X135203063Y-111444605D01*
X135196598Y-111445891D01*
X135196389Y-111445872D01*
X135190835Y-111446419D01*
X135190731Y-111445366D01*
X135125887Y-111439563D01*
X135069819Y-111396009D01*
X135046019Y-111322312D01*
X135046019Y-111294283D01*
X135066021Y-111226162D01*
X135082924Y-111205188D01*
X135562796Y-110725316D01*
X136075694Y-110212417D01*
X136138006Y-110178392D01*
X136208821Y-110183456D01*
G37*
G04 #@! TD.AperFunction*
G04 #@! TA.AperFunction,Conductor*
G36*
X135036493Y-108255510D02*
G01*
X135051528Y-108273965D01*
X135066678Y-108296638D01*
X135088894Y-108329886D01*
X135095788Y-108340203D01*
X135106104Y-108347096D01*
X135106589Y-108347420D01*
X135125682Y-108363090D01*
X135238314Y-108475722D01*
X135272340Y-108538034D01*
X135275219Y-108564817D01*
X135275219Y-109090030D01*
X135255217Y-109158151D01*
X135201561Y-109204644D01*
X135131287Y-109214748D01*
X135066707Y-109185254D01*
X135042074Y-109156333D01*
X135022690Y-109125008D01*
X135013659Y-109113614D01*
X134900990Y-109001141D01*
X134889579Y-108992129D01*
X134754056Y-108908592D01*
X134740879Y-108902448D01*
X134655789Y-108874225D01*
X134597429Y-108833795D01*
X134570192Y-108768231D01*
X134582725Y-108698349D01*
X134631050Y-108646337D01*
X134638252Y-108642366D01*
X134654110Y-108634286D01*
X134654112Y-108634285D01*
X134662951Y-108629781D01*
X134750396Y-108542336D01*
X134798313Y-108448293D01*
X134802037Y-108440985D01*
X134802038Y-108440982D01*
X134806539Y-108432148D01*
X134821019Y-108340726D01*
X134821019Y-108335772D01*
X134821152Y-108334083D01*
X134846437Y-108267742D01*
X134903575Y-108225601D01*
X134974425Y-108221042D01*
X135036493Y-108255510D01*
G37*
G04 #@! TD.AperFunction*
M02*
