M48
; DRILL file {KiCad (6.0.0)} date Sat May 28 20:38:38 2022
; FORMAT={-:-/ absolute / metric / decimal}
; #@! TF.CreationDate,2022-05-28T20:38:38-06:00
; #@! TF.GenerationSoftware,Kicad,Pcbnew,(6.0.0)
; #@! TF.FileFunction,Plated,1,4,PTH
FMAT,2
METRIC
; #@! TA.AperFunction,Plated,PTH,ViaDrill
T1C0.300
; #@! TA.AperFunction,Plated,PTH,ViaDrill
T2C0.330
; #@! TA.AperFunction,Plated,PTH,ComponentDrill
T3C0.600
; #@! TA.AperFunction,Plated,PTH,ComponentDrill
T4C0.660
; #@! TA.AperFunction,Plated,PTH,ComponentDrill
T5C0.890
; #@! TA.AperFunction,Plated,PTH,ComponentDrill
T6C1.570
; #@! TA.AperFunction,Plated,PTH,ViaDrill
T7C2.007
; #@! TA.AperFunction,Plated,PTH,ViaDrill
T8C2.997
%
G90
G05
T1
X133.5Y-110.895
X133.504Y-121.029
X134.028Y-127.408
X134.415Y-124.039
X135.278Y-123.976
X136.278Y-121.158
X136.538Y-124.071
X136.836Y-105.992
X136.908Y-116.932
X137.502Y-118.338
X137.518Y-115.567
X137.526Y-127.404
X137.768Y-117.076
X138.053Y-110.883
X138.768Y-107.573
X138.837Y-110.91
X140.022Y-111.164
X140.518Y-113.823
T2
X128.432Y-116.53
X129.778Y-115.158
X130.768Y-117.323
X131.778Y-117.158
X133.028Y-116.408
X134.528Y-105.158
X134.933Y-108.908
X135.278Y-126.917
X135.778Y-128.908
X135.894Y-110.878
X136.328Y-126.67
X136.768Y-117.73
X136.799Y-121.753
X136.808Y-114.342
X137.06Y-107.642
X137.278Y-102.658
X137.328Y-123.999
X138.018Y-121.073
X139.016Y-121.08
X139.778Y-104.158
X140.528Y-121.908
X140.778Y-116.158
X140.778Y-123.908
X140.896Y-119.36
X141.278Y-121.158
X141.528Y-124.658
T4
X132.888Y-126.412
X138.668Y-126.412
T5
X128.918Y-105.633
X131.208Y-105.633
X132.218Y-99.033
X133.234Y-100.813
X134.25Y-99.033
X135.266Y-100.813
X136.282Y-99.033
X137.298Y-100.813
X138.314Y-99.033
X139.33Y-100.813
X140.348Y-105.633
X142.638Y-105.633
T6
X127.648Y-99.923
X143.908Y-99.923
T7
X129.278Y-122.658
X142.278Y-122.658
T8
X129.278Y-109.158
X142.278Y-108.908
T3
X131.458Y-125.362G85X131.458Y-126.462
G05
X131.458Y-129.692G85X131.458Y-130.492
G05
X140.098Y-125.362G85X140.098Y-126.462
G05
X140.098Y-129.692G85X140.098Y-130.492
G05
T0
M30
